<svg id="Layer_1" data-name="Layer 1" xmlns="http://www.w3.org/2000/svg" xmlns:xlink="http://www.w3.org/1999/xlink" width="2049.67" height="1100.06" viewBox="0 0 2049.67 1100.06"><defs><style>.cls-1,.cls-4,.cls-5,.cls-6,.cls-7,.cls-8,.cls-9{fill:none;}.cls-2{clip-path:url(#clip-path);}.cls-3{fill:#fff;}.cls-4,.cls-6{stroke:#000;}.cls-10,.cls-4,.cls-5,.cls-6,.cls-7,.cls-8,.cls-9{stroke-miterlimit:8;}.cls-4{stroke-width:1px;}.cls-5,.cls-7,.cls-9{stroke:#6cacdd;}.cls-5,.cls-7{stroke-width:0.5px;}.cls-5{stroke-dasharray:2 1.5;}.cls-6{stroke-width:2.25px;}.cls-10,.cls-8{stroke:#aebfcd;}.cls-8{stroke-width:4px;}.cls-9{stroke-width:3px;}.cls-10{font-size:55px;fill:#aebfcd;font-family:HelveticaNeue-CondensedBold, Helvetica Neue;font-weight:700;}.cls-11{font-size:20px;font-family:MyriadPro-Regular, Myriad Pro;}.cls-12{letter-spacing:0.01em;}.cls-13{letter-spacing:-0.01em;}.cls-14{letter-spacing:-0.07em;}.cls-15{letter-spacing:-0.03em;}.cls-16{letter-spacing:-0.01em;}.cls-17{clip-path:url(#clip-path-2);}</style><clipPath id="clip-path" transform="translate(0 0)"><rect class="cls-1" x="1041.67" width="1008" height="756"/></clipPath><clipPath id="clip-path-2" transform="translate(0 0)"><polyline class="cls-1" points="973.79 756 1008 756 1008 0 0 0 0 756 973.79 756"/></clipPath></defs><title>burndown-chart</title><g class="cls-2"><rect class="cls-3" x="1041.67" width="1008" height="756"/><rect class="cls-4" x="1108.37" y="94.24" width="882" height="612.28"/><line class="cls-5" x1="1194.67" y1="94.24" x2="1194.67" y2="706.52"/><line class="cls-6" x1="1279.9" y1="94.24" x2="1279.9" y2="706.52"/><line class="cls-5" x1="1365.14" y1="94.24" x2="1365.14" y2="706.52"/><line class="cls-6" x1="1450.37" y1="94.24" x2="1450.37" y2="706.52"/><line class="cls-5" x1="1535.61" y1="94.24" x2="1535.61" y2="706.52"/><line class="cls-6" x1="1620.84" y1="94.24" x2="1620.84" y2="706.52"/><line class="cls-5" x1="1706.08" y1="94.24" x2="1706.08" y2="706.52"/><line class="cls-6" x1="1791.31" y1="94.24" x2="1791.31" y2="706.52"/><line class="cls-5" x1="1876.55" y1="94.24" x2="1876.55" y2="706.52"/><text></text><line class="cls-7" x1="1108.37" y1="492.58" x2="1990.51" y2="492.58"/><line class="cls-7" x1="1108.37" y1="523.23" x2="1990.51" y2="523.23"/><line class="cls-7" x1="1108.37" y1="676.44" x2="1990.37" y2="676.44"/><line class="cls-7" x1="1058.12" y1="903.35" x2="1999.27" y2="903.35"/><line class="cls-7" x1="1108.37" y1="645.8" x2="1990.51" y2="645.8"/><line class="cls-7" x1="1058.12" y1="848.83" x2="1999.27" y2="848.83"/><line class="cls-7" x1="1045.78" y1="1099.81" x2="1986.92" y2="1099.81"/><polyline class="cls-8" points="1108.37 461.94 1194.45 401.6 1278.76 584.33"/><line class="cls-7" x1="1108.37" y1="615.15" x2="1990.51" y2="615.15"/><line class="cls-7" x1="1045.78" y1="1065.86" x2="1986.92" y2="1065.86"/><line class="cls-7" x1="1108.37" y1="431.3" x2="1990.51" y2="431.3"/><line class="cls-7" x1="1108.37" y1="463.72" x2="1990.51" y2="463.72"/><line class="cls-7" x1="1108.37" y1="553.87" x2="1990.51" y2="553.87"/><line class="cls-7" x1="1108.37" y1="584.51" x2="1990.51" y2="584.51"/><line class="cls-7" x1="1045.78" y1="972.26" x2="1986.92" y2="972.26"/><line class="cls-7" x1="1108.37" y1="186.16" x2="1990.51" y2="186.16"/><line class="cls-7" x1="1108.37" y1="216.8" x2="1990.51" y2="216.8"/><line class="cls-9" x1="1990.51" y1="400.66" x2="1108.37" y2="400.66"/><line class="cls-7" x1="1108.37" y1="370.02" x2="1990.51" y2="370.02"/><line class="cls-7" x1="1108.37" y1="339.37" x2="1990.51" y2="339.37"/><line class="cls-7" x1="1108.37" y1="155.52" x2="1990.51" y2="155.52"/><line class="cls-7" x1="1108.37" y1="308.73" x2="1990.51" y2="308.73"/><line class="cls-7" x1="1108.37" y1="124.88" x2="1990.51" y2="124.88"/><line class="cls-7" x1="1108.37" y1="247.45" x2="1990.51" y2="247.45"/><line class="cls-7" x1="1108.37" y1="278.09" x2="1990.51" y2="278.09"/><line class="cls-9" x1="1108.37" y1="94.24" x2="1990.51" y2="94.24"/><text class="cls-10" transform="translate(1079.32 58.11)">Gruppe 7</text><text class="cls-11" transform="translate(1158.98 730.23)"><tspan class="cls-12">M</tspan><tspan x="16.2" y="0">andag</tspan></text><text class="cls-11" transform="translate(1333.92 730.23)"><tspan class="cls-13">T</tspan><tspan x="9.7" y="0">irsdag</tspan></text><text class="cls-11" transform="translate(1504.38 730.23)">Onsdag</text><text class="cls-11" transform="translate(1674.68 730.23)"><tspan class="cls-14">T</tspan><tspan x="8.52" y="0">orsdag</tspan></text><text class="cls-11" transform="translate(1863.74 730.23)"><tspan class="cls-15">F</tspan><tspan class="cls-16" x="9.22" y="0">r</tspan><tspan x="15.56" y="0">edag</tspan></text></g><g class="cls-17"><rect class="cls-3" width="1008" height="756"/><rect class="cls-4" x="66.71" y="94.24" width="882" height="612.28"/><line class="cls-5" x1="153" y1="94.24" x2="153" y2="706.52"/><line class="cls-6" x1="238.24" y1="94.24" x2="238.24" y2="706.52"/><line class="cls-5" x1="323.47" y1="94.24" x2="323.47" y2="706.52"/><line class="cls-6" x1="408.71" y1="94.24" x2="408.71" y2="706.52"/><line class="cls-5" x1="493.94" y1="94.24" x2="493.94" y2="706.52"/><line class="cls-6" x1="579.18" y1="94.24" x2="579.18" y2="706.52"/><line class="cls-5" x1="664.41" y1="94.24" x2="664.41" y2="706.52"/><line class="cls-6" x1="749.65" y1="94.24" x2="749.65" y2="706.52"/><line class="cls-5" x1="834.88" y1="94.24" x2="834.88" y2="706.52"/><text></text><line class="cls-7" x1="66.71" y1="492.58" x2="948.85" y2="492.58"/><line class="cls-7" x1="66.71" y1="523.23" x2="948.85" y2="523.23"/><line class="cls-7" x1="66.71" y1="676.44" x2="948.71" y2="676.44"/><line class="cls-7" x1="16.46" y1="903.35" x2="957.6" y2="903.35"/><line class="cls-7" x1="66.71" y1="645.8" x2="948.85" y2="645.8"/><line class="cls-7" x1="16.46" y1="848.83" x2="957.6" y2="848.83"/><line class="cls-7" x1="4.11" y1="1099.81" x2="945.26" y2="1099.81"/><polyline class="cls-8" points="66.71 706.52 238.28 276.48 323.25 216.77 407.76 291.62 491.38 231.23 576.8 292.14 662.84 247.45 747.75 307.79 833.79 246.34 948.85 461.94"/><line class="cls-7" x1="66.71" y1="615.15" x2="948.85" y2="615.15"/><line class="cls-7" x1="16.46" y1="814.89" x2="957.6" y2="814.89"/><line class="cls-7" x1="4.11" y1="1065.86" x2="945.26" y2="1065.86"/><line class="cls-7" x1="66.71" y1="431.3" x2="948.85" y2="431.3"/><line class="cls-7" x1="64.59" y1="461.35" x2="946.73" y2="461.35"/><line class="cls-7" x1="66.71" y1="553.87" x2="948.85" y2="553.87"/><line class="cls-7" x1="66.71" y1="584.51" x2="948.85" y2="584.51"/><line class="cls-7" x1="4.11" y1="972.26" x2="945.26" y2="972.26"/><line class="cls-7" x1="66.71" y1="186.16" x2="948.85" y2="186.16"/><line class="cls-7" x1="66.71" y1="216.8" x2="948.85" y2="216.8"/><line class="cls-9" x1="948.85" y1="400.66" x2="66.71" y2="400.66"/><line class="cls-7" x1="66.71" y1="370.02" x2="948.85" y2="370.02"/><line class="cls-7" x1="66.71" y1="339.37" x2="948.85" y2="339.37"/><line class="cls-7" x1="66.71" y1="155.52" x2="948.85" y2="155.52"/><line class="cls-7" x1="66.71" y1="308.73" x2="948.85" y2="308.73"/><line class="cls-7" x1="66.71" y1="124.88" x2="948.85" y2="124.88"/><line class="cls-7" x1="66.71" y1="247.45" x2="948.85" y2="247.45"/><line class="cls-7" x1="66.71" y1="278.09" x2="948.85" y2="278.09"/><line class="cls-9" x1="66.71" y1="94.24" x2="948.85" y2="94.24"/><text class="cls-10" transform="translate(37.65 58.11)">Gruppe 7</text><text class="cls-11" transform="translate(117.31 730.23)"><tspan class="cls-12">M</tspan><tspan x="16.2" y="0">andag</tspan></text><text class="cls-11" transform="translate(292.25 730.23)"><tspan class="cls-13">T</tspan><tspan x="9.7" y="0">irsdag</tspan></text><text class="cls-11" transform="translate(462.71 730.23)">Onsdag</text><text class="cls-11" transform="translate(633.02 730.23)"><tspan class="cls-14">T</tspan><tspan x="8.52" y="0">orsdag</tspan></text><text class="cls-11" transform="translate(822.08 730.23)"><tspan class="cls-15">F</tspan><tspan class="cls-16" x="9.22" y="0">r</tspan><tspan x="15.56" y="0">edag</tspan></text></g><polyline class="cls-8" points="1278.76 584.33 1364.29 569.01 1449.76 568.52 1533.65 612.12 1616.12 660.23"/></svg>
