<?xml version="1.0" encoding="utf-8"?>
<!-- Generator: Adobe Illustrator 22.0.0, SVG Export Plug-In . SVG Version: 6.00 Build 0)  -->
<svg version="1.1" id="Layer_1" xmlns="http://www.w3.org/2000/svg" xmlns:xlink="http://www.w3.org/1999/xlink" x="0px" y="0px"
	 viewBox="0 0 2049.7 794.1" style="enable-background:new 0 0 2049.7 794.1;" xml:space="preserve">
<style type="text/css">
	.st0{clip-path:url(#SVGID_2_);}
	.st1{fill:#FFFFFF;}
	.st2{fill:none;stroke:#000000;stroke-miterlimit:8;}
	.st3{fill:none;stroke:#6CACDD;stroke-width:0.5;stroke-miterlimit:8;stroke-dasharray:2,1.5;}
	.st4{fill:none;stroke:#000000;stroke-width:2.25;stroke-miterlimit:8;}
	.st5{fill:none;stroke:#6CACDD;stroke-width:0.5;stroke-miterlimit:8;}
	.st6{fill:none;stroke:#AEBFCD;stroke-width:4;stroke-miterlimit:8;}
	.st7{fill:none;stroke:#6CACDD;stroke-width:3;stroke-miterlimit:8;}
	.st8{fill:#AEBFCD;}
	.st9{font-family:'HelveticaNeue-Bold';}
	.st10{font-size:55px;}
	.st11{fill:none;stroke:#AEBFCD;stroke-miterlimit:8;}
	.st12{font-family:'ArialMT';}
	.st13{font-size:20px;}
	.st14{letter-spacing:-1;}
	.st15{clip-path:url(#SVGID_4_);}
</style>
<title>burndown-chart</title>
<g>
	<defs>
		<rect id="SVGID_1_" x="1041.7" width="1008" height="756"/>
	</defs>
	<clipPath id="SVGID_2_">
		<use xlink:href="#SVGID_1_"  style="overflow:visible;"/>
	</clipPath>
	<g class="st0">
		<rect x="1041.7" class="st1" width="1008" height="756"/>
		<rect x="1108.4" y="94.2" class="st2" width="882" height="612.3"/>
		<line class="st3" x1="1194.7" y1="94.2" x2="1194.7" y2="706.5"/>
		<line class="st4" x1="1279.9" y1="94.2" x2="1279.9" y2="706.5"/>
		<line class="st3" x1="1365.1" y1="94.2" x2="1365.1" y2="706.5"/>
		<line class="st4" x1="1450.4" y1="94.2" x2="1450.4" y2="706.5"/>
		<line class="st3" x1="1535.6" y1="94.2" x2="1535.6" y2="706.5"/>
		<line class="st4" x1="1620.8" y1="94.2" x2="1620.8" y2="706.5"/>
		<line class="st3" x1="1706.1" y1="94.2" x2="1706.1" y2="706.5"/>
		<line class="st4" x1="1791.3" y1="94.2" x2="1791.3" y2="706.5"/>
		<line class="st3" x1="1876.6" y1="94.2" x2="1876.6" y2="706.5"/>
		<line class="st5" x1="1108.4" y1="492.6" x2="1990.5" y2="492.6"/>
		<line class="st5" x1="1108.4" y1="523.2" x2="1990.5" y2="523.2"/>
		<line class="st5" x1="1108.4" y1="676.4" x2="1990.4" y2="676.4"/>
		<line class="st5" x1="1058.1" y1="903.3" x2="1999.3" y2="903.3"/>
		<line class="st5" x1="1108.4" y1="645.8" x2="1990.5" y2="645.8"/>
		<line class="st5" x1="1058.1" y1="848.8" x2="1999.3" y2="848.8"/>
		<line class="st5" x1="1045.8" y1="1099.8" x2="1986.9" y2="1099.8"/>
		<polyline class="st6" points="1108.4,461.9 1194.4,401.6 1278.8,584.3 		"/>
		<line class="st5" x1="1108.4" y1="615.2" x2="1990.5" y2="615.2"/>
		<line class="st5" x1="1045.8" y1="1065.9" x2="1986.9" y2="1065.9"/>
		<line class="st5" x1="1108.4" y1="431.3" x2="1990.5" y2="431.3"/>
		<line class="st5" x1="1108.4" y1="463.7" x2="1990.5" y2="463.7"/>
		<line class="st5" x1="1108.4" y1="553.9" x2="1990.5" y2="553.9"/>
		<line class="st5" x1="1108.4" y1="584.5" x2="1990.5" y2="584.5"/>
		<line class="st5" x1="1045.8" y1="972.3" x2="1986.9" y2="972.3"/>
		<line class="st5" x1="1108.4" y1="186.2" x2="1990.5" y2="186.2"/>
		<line class="st5" x1="1108.4" y1="216.8" x2="1990.5" y2="216.8"/>
		<line class="st7" x1="1990.5" y1="400.7" x2="1108.4" y2="400.7"/>
		<line class="st5" x1="1108.4" y1="370" x2="1990.5" y2="370"/>
		<line class="st5" x1="1108.4" y1="339.4" x2="1990.5" y2="339.4"/>
		<line class="st5" x1="1108.4" y1="155.5" x2="1990.5" y2="155.5"/>
		<line class="st5" x1="1108.4" y1="308.7" x2="1990.5" y2="308.7"/>
		<line class="st5" x1="1108.4" y1="124.9" x2="1990.5" y2="124.9"/>
		<line class="st5" x1="1108.4" y1="247.4" x2="1990.5" y2="247.4"/>
		<line class="st5" x1="1108.4" y1="278.1" x2="1990.5" y2="278.1"/>
		<line class="st7" x1="1108.4" y1="94.2" x2="1990.5" y2="94.2"/>
		<text transform="matrix(1 0 0 1 1079.3199 58.11)" class="st8 st9 st10">Gruppe 7</text>
		<text transform="matrix(1 0 0 1 1079.3199 58.11)" class="st11 st9 st10">Gruppe 7</text>
		<text transform="matrix(1 0 0 1 1158.98 730.23)" class="st12 st13">M</text>
		<text transform="matrix(1 0 0 1 1175.1799 730.23)" class="st12 st13">andag</text>
		<text transform="matrix(1 0 0 1 1333.92 730.23)" class="st12 st13">T</text>
		<text transform="matrix(1 0 0 1 1343.62 730.23)" class="st12 st13">irsdag</text>
		<text transform="matrix(1 0 0 1 1504.38 730.23)" class="st12 st13">Onsdag</text>
		<text transform="matrix(1 0 0 1 1674.6801 730.23)" class="st12 st13 st14">T</text>
		<text transform="matrix(1 0 0 1 1683.2001 730.23)" class="st12 st13">orsdag</text>
		<text transform="matrix(1 0 0 1 1863.74 730.23)" class="st12 st13">F</text>
		<text transform="matrix(1 0 0 1 1872.96 730.23)" class="st12 st13">r</text>
		<text transform="matrix(1 0 0 1 1879.3 730.23)" class="st12 st13">edag</text>
	</g>
</g>
<g>
	<defs>
		<polyline id="SVGID_3_" points="973.8,756 1008,756 1008,0 0,0 0,756 973.8,756 		"/>
	</defs>
	<clipPath id="SVGID_4_">
		<use xlink:href="#SVGID_3_"  style="overflow:visible;"/>
	</clipPath>
	<g class="st15">
		<rect class="st1" width="1008" height="756"/>
		<rect x="66.7" y="94.2" class="st2" width="882" height="612.3"/>
		<line class="st3" x1="153" y1="94.2" x2="153" y2="706.5"/>
		<line class="st4" x1="238.2" y1="94.2" x2="238.2" y2="706.5"/>
		<line class="st3" x1="323.5" y1="94.2" x2="323.5" y2="706.5"/>
		<line class="st4" x1="408.7" y1="94.2" x2="408.7" y2="706.5"/>
		<line class="st3" x1="493.9" y1="94.2" x2="493.9" y2="706.5"/>
		<line class="st4" x1="579.2" y1="94.2" x2="579.2" y2="706.5"/>
		<line class="st3" x1="664.4" y1="94.2" x2="664.4" y2="706.5"/>
		<line class="st4" x1="749.7" y1="94.2" x2="749.7" y2="706.5"/>
		<line class="st3" x1="834.9" y1="94.2" x2="834.9" y2="706.5"/>
		<line class="st5" x1="66.7" y1="492.6" x2="948.8" y2="492.6"/>
		<line class="st5" x1="66.7" y1="523.2" x2="948.8" y2="523.2"/>
		<line class="st5" x1="66.7" y1="676.4" x2="948.7" y2="676.4"/>
		<line class="st5" x1="16.5" y1="903.3" x2="957.6" y2="903.3"/>
		<line class="st5" x1="66.7" y1="645.8" x2="948.8" y2="645.8"/>
		<line class="st5" x1="16.5" y1="848.8" x2="957.6" y2="848.8"/>
		<line class="st5" x1="4.1" y1="1099.8" x2="945.3" y2="1099.8"/>
		<polyline class="st6" points="66.7,706.5 238.3,276.5 323.2,216.8 407.8,291.6 491.4,231.2 576.8,292.1 662.8,247.4 747.8,307.8 
			833.8,246.3 948.8,461.9 		"/>
		<line class="st5" x1="66.7" y1="615.2" x2="948.8" y2="615.2"/>
		<line class="st5" x1="16.5" y1="814.9" x2="957.6" y2="814.9"/>
		<line class="st5" x1="4.1" y1="1065.9" x2="945.3" y2="1065.9"/>
		<line class="st5" x1="66.7" y1="431.3" x2="948.8" y2="431.3"/>
		<line class="st5" x1="64.6" y1="461.4" x2="946.7" y2="461.4"/>
		<line class="st5" x1="66.7" y1="553.9" x2="948.8" y2="553.9"/>
		<line class="st5" x1="66.7" y1="584.5" x2="948.8" y2="584.5"/>
		<line class="st5" x1="4.1" y1="972.3" x2="945.3" y2="972.3"/>
		<line class="st5" x1="66.7" y1="186.2" x2="948.8" y2="186.2"/>
		<line class="st5" x1="66.7" y1="216.8" x2="948.8" y2="216.8"/>
		<line class="st7" x1="948.8" y1="400.7" x2="66.7" y2="400.7"/>
		<line class="st5" x1="66.7" y1="370" x2="948.8" y2="370"/>
		<line class="st5" x1="66.7" y1="339.4" x2="948.8" y2="339.4"/>
		<line class="st5" x1="66.7" y1="155.5" x2="948.8" y2="155.5"/>
		<line class="st5" x1="66.7" y1="308.7" x2="948.8" y2="308.7"/>
		<line class="st5" x1="66.7" y1="124.9" x2="948.8" y2="124.9"/>
		<line class="st5" x1="66.7" y1="247.4" x2="948.8" y2="247.4"/>
		<line class="st5" x1="66.7" y1="278.1" x2="948.8" y2="278.1"/>
		<line class="st7" x1="66.7" y1="94.2" x2="948.8" y2="94.2"/>
		<text transform="matrix(1 0 0 1 37.65 58.11)" class="st8 st9 st10">Gruppe 7</text>
		<text transform="matrix(1 0 0 1 37.65 58.11)" class="st11 st9 st10">Gruppe 7</text>
		<text transform="matrix(1 0 0 1 117.31 730.23)" class="st12 st13">M</text>
		<text transform="matrix(1 0 0 1 133.51 730.23)" class="st12 st13">andag</text>
		<text transform="matrix(1 0 0 1 292.25 730.23)" class="st12 st13">T</text>
		<text transform="matrix(1 0 0 1 301.95 730.23)" class="st12 st13">irsdag</text>
		<text transform="matrix(1 0 0 1 462.71 730.23)" class="st12 st13">Onsdag</text>
		<text transform="matrix(1 0 0 1 633.02 730.23)" class="st12 st13 st14">T</text>
		<text transform="matrix(1 0 0 1 641.54 730.23)" class="st12 st13">orsdag</text>
		<text transform="matrix(1 0 0 1 822.08 730.23)" class="st12 st13">F</text>
		<text transform="matrix(1 0 0 1 831.3 730.23)" class="st12 st13">r</text>
		<text transform="matrix(1 0 0 1 837.64 730.23)" class="st12 st13">edag</text>
	</g>
</g>
<polyline class="st6" points="1278.8,584.3 1364.3,569 1449.8,568.5 1533.7,612.1 1616.1,660.2 "/>
</svg>
