<?xml version="1.0" encoding="utf-8"?>
<!-- Generator: Adobe Illustrator 22.0.0, SVG Export Plug-In . SVG Version: 6.00 Build 0)  -->
<svg version="1.1" xmlns="http://www.w3.org/2000/svg" xmlns:xlink="http://www.w3.org/1999/xlink" x="0px" y="0px"
	 viewBox="0 0 368.9 756.8" style="enable-background:new 0 0 368.9 756.8;" xml:space="preserve">
<style type="text/css">
	.st0{fill:none;}
	.st1{fill:#91CFCA;stroke:#FAFAFA;stroke-width:1.5;stroke-linecap:round;stroke-linejoin:bevel;stroke-miterlimit:10;}
	
		.st2{fill:none;stroke:#FAFAFA;stroke-width:1.5;stroke-linecap:round;stroke-linejoin:bevel;stroke-miterlimit:10;stroke-dasharray:9;}
	.st3{fill:#91CFCA;}
	.st4{clip-path:url(#SVGID_2_);fill:url(#SVGID_3_);}
	.st5{opacity:0.8;fill:#FFFFFF;}
</style>
<pattern  x="-79.8" y="-10" width="39" height="39.2" patternUnits="userSpaceOnUse" id="New_Pattern" viewBox="39.8 -79.1 39 39.2" style="overflow:visible;">
	<g>
		<rect x="39.8" y="-79.1" class="st0" width="39" height="39.2"/>
		<g>
			
				<rect x="84.3" y="-34.3" transform="matrix(-0.7071 -0.7071 0.7071 -0.7071 182.2336 34.825)" class="st1" width="28" height="28"/>
		</g>
		<g>
			
				<rect x="45.3" y="-34.3" transform="matrix(-0.7071 -0.7071 0.7071 -0.7071 115.6564 7.2479)" class="st1" width="28" height="28"/>
		</g>
		<g>
			
				<rect x="6.3" y="-34.3" transform="matrix(-0.7071 -0.7071 0.7071 -0.7071 49.0793 -20.3293)" class="st1" width="28" height="28"/>
		</g>
		<g>
			
				<rect x="64.8" y="-53.9" transform="matrix(-0.7071 -0.7071 0.7071 -0.7071 162.8043 -12.4228)" class="st1" width="28" height="28"/>
			<line class="st2" x1="88.7" y1="-30" x2="68.9" y2="-49.8"/>
			<line class="st2" x1="68.9" y1="-30" x2="88.7" y2="-49.8"/>
		</g>
		<g>
			<rect x="25.8" y="-53.9" transform="matrix(-0.7071 -0.7071 0.7071 -0.7071 96.2271 -40)" class="st1" width="28" height="28"/>
			<line class="st2" x1="49.7" y1="-30" x2="29.9" y2="-49.8"/>
			<line class="st2" x1="29.9" y1="-30" x2="49.7" y2="-49.8"/>
		</g>
		<g>
			
				<rect x="84.3" y="-73.5" transform="matrix(-0.7071 -0.7071 0.7071 -0.7071 209.9522 -32.0936)" class="st1" width="28" height="28"/>
		</g>
		<g>
			
				<rect x="45.3" y="-73.5" transform="matrix(-0.7071 -0.7071 0.7071 -0.7071 143.375 -59.6707)" class="st1" width="28" height="28"/>
			<line class="st2" x1="69.2" y1="-49.6" x2="49.4" y2="-69.4"/>
			<line class="st2" x1="49.4" y1="-49.6" x2="69.2" y2="-69.4"/>
		</g>
		<g>
			
				<rect x="6.3" y="-73.5" transform="matrix(-0.7071 -0.7071 0.7071 -0.7071 76.7979 -87.2478)" class="st1" width="28" height="28"/>
		</g>
		<g>
			
				<rect x="64.8" y="-93.1" transform="matrix(-0.7071 -0.7071 0.7071 -0.7071 190.5229 -79.3414)" class="st1" width="28" height="28"/>
			<line class="st2" x1="88.7" y1="-69.2" x2="68.9" y2="-89"/>
			<line class="st2" x1="68.9" y1="-69.2" x2="88.7" y2="-89"/>
		</g>
		<g>
			
				<rect x="25.8" y="-93.1" transform="matrix(-0.7071 -0.7071 0.7071 -0.7071 123.9457 -106.9186)" class="st1" width="28" height="28"/>
			<line class="st2" x1="49.7" y1="-69.2" x2="29.9" y2="-89"/>
			<line class="st2" x1="29.9" y1="-69.2" x2="49.7" y2="-89"/>
		</g>
		<g>
			<g>
				
					<rect x="84.3" y="-112.7" transform="matrix(-0.7071 -0.7071 0.7071 -0.7071 237.6708 -99.0122)" class="st3" width="28" height="28"/>
			</g>
		</g>
		<g>
			
				<rect x="45.3" y="-112.7" transform="matrix(-0.7071 -0.7071 0.7071 -0.7071 171.0936 -126.5893)" class="st1" width="28" height="28"/>
		</g>
		<g>
			
				<rect x="6.3" y="-112.7" transform="matrix(-0.7071 -0.7071 0.7071 -0.7071 104.5165 -154.1664)" class="st1" width="28" height="28"/>
		</g>
	</g>
</pattern>
<g id="PATTERN">
</g>
<g id="DESIGNED_BY_FREEPIK">
</g>
<g id="Layer_3">
	<g>
		<defs>
			<rect id="SVGID_1_" width="368.9" height="756.8"/>
		</defs>
		<clipPath id="SVGID_2_">
			<use xlink:href="#SVGID_1_"  style="overflow:visible;"/>
		</clipPath>
		<pattern  id="SVGID_3_" xlink:href="#New_Pattern" patternTransform="matrix(2.3585 0 0 2.147 10403.334 8056.5737)">
		</pattern>
		<rect x="-79.8" y="-10" class="st4" width="471.7" height="800"/>
	</g>
	<rect class="st5" width="368.9" height="756.8"/>
</g>
</svg>
