<?xml version="1.0" encoding="utf-8"?>
<!-- Generator: Adobe Illustrator 22.0.0, SVG Export Plug-In . SVG Version: 6.00 Build 0)  -->
<svg version="1.1" id="Layer_1" xmlns="http://www.w3.org/2000/svg" xmlns:xlink="http://www.w3.org/1999/xlink" x="0px" y="0px"
	 viewBox="0 0 288 288" style="enable-background:new 0 0 288 288;" xml:space="preserve">
<style type="text/css">
	.st0{opacity:0.4;}
	.st1{clip-path:url(#SVGID_2_);}
	.st2{fill:#C9E0D6;}
</style>
<g class="st0">
	<defs>
		<rect id="SVGID_1_" class="st0" width="288" height="288"/>
	</defs>
	<use xlink:href="#SVGID_1_"  style="overflow:visible;fill:#FFFFFF;"/>
	<clipPath id="SVGID_2_">
		<use xlink:href="#SVGID_1_"  style="overflow:visible;"/>
	</clipPath>
	<g class="st1">
		<path class="st2" d="M-1.9-3.3c1.1,0,2-0.9,2-2c0-1.1-0.9-2-2-2c-1.1,0-2,0.9-2,2C-3.8-4.2-3-3.3-1.9-3.3z"/>
		<path class="st2" d="M9.2-3.3c1.1,0,2-0.9,2-2c0-1.1-0.9-2-2-2c-1.1,0-2,0.9-2,2C7.2-4.2,8.1-3.3,9.2-3.3z"/>
		<path class="st2" d="M20.3-3.3c1.1,0,2-0.9,2-2c0-1.1-0.9-2-2-2c-1.1,0-2,0.9-2,2C18.3-4.2,19.2-3.3,20.3-3.3z"/>
		<circle class="st2" cx="31.4" cy="-5.3" r="2"/>
		<path class="st2" d="M42.4-3.3c1.1,0,2-0.9,2-2c0-1.1-0.9-2-2-2c-1.1,0-2,0.9-2,2C40.4-4.2,41.3-3.3,42.4-3.3z"/>
		<path class="st2" d="M53.5-3.3c1.1,0,2-0.9,2-2c0-1.1-0.9-2-2-2c-1.1,0-2,0.9-2,2C51.5-4.2,52.4-3.3,53.5-3.3z"/>
		<path class="st2" d="M64.6-3.3c1.1,0,2-0.9,2-2c0-1.1-0.9-2-2-2s-2,0.9-2,2C62.6-4.2,63.5-3.3,64.6-3.3z"/>
		<path class="st2" d="M75.6-3.3c1.1,0,2-0.9,2-2c0-1.1-0.9-2-2-2c-1.1,0-2,0.9-2,2C73.6-4.2,74.5-3.3,75.6-3.3z"/>
		<circle class="st2" cx="86.7" cy="-5.3" r="2"/>
		<path class="st2" d="M97.8-3.3c1.1,0,2-0.9,2-2c0-1.1-0.9-2-2-2c-1.1,0-2,0.9-2,2C95.8-4.2,96.7-3.3,97.8-3.3z"/>
		<circle class="st2" cx="108.8" cy="-5.3" r="2"/>
		<circle class="st2" cx="119.9" cy="-5.3" r="2"/>
		<path class="st2" d="M131-3.3c1.1,0,2-0.9,2-2c0-1.1-0.9-2-2-2c-1.1,0-2,0.9-2,2C129-4.2,129.9-3.3,131-3.3z"/>
		<path class="st2" d="M142.1-3.3c1.1,0,2-0.9,2-2c0-1.1-0.9-2-2-2c-1.1,0-2,0.9-2,2C140.1-4.2,141-3.3,142.1-3.3z"/>
		<path class="st2" d="M153.1-3.3c1.1,0,2-0.9,2-2c0-1.1-0.9-2-2-2c-1.1,0-2,0.9-2,2C151.1-4.2,152-3.3,153.1-3.3z"/>
		<circle class="st2" cx="164.2" cy="-5.3" r="2"/>
		<path class="st2" d="M175.3-3.3c1.1,0,2-0.9,2-2c0-1.1-0.9-2-2-2c-1.1,0-2,0.9-2,2C173.3-4.2,174.2-3.3,175.3-3.3z"/>
		<path class="st2" d="M186.3-3.3c1.1,0,2-0.9,2-2c0-1.1-0.9-2-2-2c-1.1,0-2,0.9-2,2C184.3-4.2,185.2-3.3,186.3-3.3z"/>
		<path class="st2" d="M197.4-3.3c1.1,0,2-0.9,2-2c0-1.1-0.9-2-2-2c-1.1,0-2,0.9-2,2C195.4-4.2,196.3-3.3,197.4-3.3z"/>
		<path class="st2" d="M208.5-3.3c1.1,0,2-0.9,2-2c0-1.1-0.9-2-2-2c-1.1,0-2,0.9-2,2C206.5-4.2,207.4-3.3,208.5-3.3z"/>
		<path class="st2" d="M219.5-3.3c1.1,0,2-0.9,2-2c0-1.1-0.9-2-2-2c-1.1,0-2,0.9-2,2C217.5-4.2,218.4-3.3,219.5-3.3z"/>
		<path class="st2" d="M230.6-3.3c1.1,0,2-0.9,2-2c0-1.1-0.9-2-2-2c-1.1,0-2,0.9-2,2C228.6-4.2,229.5-3.3,230.6-3.3z"/>
		<path class="st2" d="M241.7-3.3c1.1,0,2-0.9,2-2c0-1.1-0.9-2-2-2c-1.1,0-2,0.9-2,2C239.7-4.2,240.6-3.3,241.7-3.3z"/>
		<circle class="st2" cx="252.8" cy="-5.3" r="2"/>
		<path class="st2" d="M263.8-3.3c1.1,0,2-0.9,2-2c0-1.1-0.9-2-2-2c-1.1,0-2,0.9-2,2C261.8-4.2,262.7-3.3,263.8-3.3z"/>
		<path class="st2" d="M274.9-3.3c1.1,0,2-0.9,2-2c0-1.1-0.9-2-2-2c-1.1,0-2,0.9-2,2C272.9-4.2,273.8-3.3,274.9-3.3z"/>
		<path class="st2" d="M286-3.3c1.1,0,2-0.9,2-2c0-1.1-0.9-2-2-2s-2,0.9-2,2C284-4.2,284.9-3.3,286-3.3z"/>
		<path class="st2" d="M297-3.3c1.1,0,2-0.9,2-2c0-1.1-0.9-2-2-2c-1.1,0-2,0.9-2,2C295-4.2,295.9-3.3,297-3.3z"/>
		<path class="st2" d="M-7.4,7.8c1.1,0,2-0.9,2-2c0-1.1-0.9-2-2-2c-1.1,0-2,0.9-2,2C-9.4,6.9-8.5,7.8-7.4,7.8z"/>
		<path class="st2" d="M3.7,7.8c1.1,0,2-0.9,2-2c0-1.1-0.9-2-2-2c-1.1,0-2,0.9-2,2C1.7,6.9,2.6,7.8,3.7,7.8z"/>
		<path class="st2" d="M14.8,7.8c1.1,0,2-0.9,2-2c0-1.1-0.9-2-2-2c-1.1,0-2,0.9-2,2C12.8,6.9,13.6,7.8,14.8,7.8z"/>
		<path class="st2" d="M25.8,7.8c1.1,0,2-0.9,2-2c0-1.1-0.9-2-2-2c-1.1,0-2,0.9-2,2C23.8,6.9,24.7,7.8,25.8,7.8z"/>
		<path class="st2" d="M36.9,7.8c1.1,0,2-0.9,2-2c0-1.1-0.9-2-2-2c-1.1,0-2,0.9-2,2C34.9,6.9,35.8,7.8,36.9,7.8z"/>
		<path class="st2" d="M48,7.8c1.1,0,2-0.9,2-2c0-1.1-0.9-2-2-2c-1.1,0-2,0.9-2,2C46,6.9,46.9,7.8,48,7.8z"/>
		<path class="st2" d="M59,7.8c1.1,0,2-0.9,2-2c0-1.1-0.9-2-2-2c-1.1,0-2,0.9-2,2C57,6.9,57.9,7.8,59,7.8z"/>
		<path class="st2" d="M70.1,7.8c1.1,0,2-0.9,2-2c0-1.1-0.9-2-2-2c-1.1,0-2,0.9-2,2C68.1,6.9,69,7.8,70.1,7.8z"/>
		<path class="st2" d="M81.2,7.8c1.1,0,2-0.9,2-2c0-1.1-0.9-2-2-2c-1.1,0-2,0.9-2,2C79.2,6.9,80.1,7.8,81.2,7.8z"/>
		<path class="st2" d="M92.2,7.8c1.1,0,2-0.9,2-2c0-1.1-0.9-2-2-2c-1.1,0-2,0.9-2,2C90.2,6.9,91.1,7.8,92.2,7.8z"/>
		<path class="st2" d="M103.3,7.8c1.1,0,2-0.9,2-2c0-1.1-0.9-2-2-2c-1.1,0-2,0.9-2,2C101.3,6.9,102.2,7.8,103.3,7.8z"/>
		<path class="st2" d="M114.4,7.8c1.1,0,2-0.9,2-2c0-1.1-0.9-2-2-2c-1.1,0-2,0.9-2,2C112.4,6.9,113.3,7.8,114.4,7.8z"/>
		<path class="st2" d="M125.4,7.8c1.1,0,2-0.9,2-2c0-1.1-0.9-2-2-2c-1.1,0-2,0.9-2,2C123.5,6.9,124.3,7.8,125.4,7.8z"/>
		<path class="st2" d="M136.5,7.8c1.1,0,2-0.9,2-2c0-1.1-0.9-2-2-2c-1.1,0-2,0.9-2,2C134.5,6.9,135.4,7.8,136.5,7.8z"/>
		<path class="st2" d="M147.6,7.8c1.1,0,2-0.9,2-2c0-1.1-0.9-2-2-2c-1.1,0-2,0.9-2,2C145.6,6.9,146.5,7.8,147.6,7.8z"/>
		<path class="st2" d="M158.7,7.8c1.1,0,2-0.9,2-2c0-1.1-0.9-2-2-2c-1.1,0-2,0.9-2,2C156.7,6.9,157.6,7.8,158.7,7.8z"/>
		<path class="st2" d="M169.7,7.8c1.1,0,2-0.9,2-2c0-1.1-0.9-2-2-2c-1.1,0-2,0.9-2,2C167.7,6.9,168.6,7.8,169.7,7.8z"/>
		<path class="st2" d="M180.8,7.8c1.1,0,2-0.9,2-2c0-1.1-0.9-2-2-2c-1.1,0-2,0.9-2,2C178.8,6.9,179.7,7.8,180.8,7.8z"/>
		<path class="st2" d="M191.9,7.8c1.1,0,2-0.9,2-2c0-1.1-0.9-2-2-2c-1.1,0-2,0.9-2,2C189.9,6.9,190.8,7.8,191.9,7.8z"/>
		<path class="st2" d="M202.9,7.8c1.1,0,2-0.9,2-2c0-1.1-0.9-2-2-2c-1.1,0-2,0.9-2,2C200.9,6.9,201.8,7.8,202.9,7.8z"/>
		<path class="st2" d="M214,7.8c1.1,0,2-0.9,2-2c0-1.1-0.9-2-2-2c-1.1,0-2,0.9-2,2C212,6.9,212.9,7.8,214,7.8z"/>
		<path class="st2" d="M225.1,7.8c1.1,0,2-0.9,2-2c0-1.1-0.9-2-2-2c-1.1,0-2,0.9-2,2C223.1,6.9,224,7.8,225.1,7.8z"/>
		<path class="st2" d="M236.1,7.8c1.1,0,2-0.9,2-2c0-1.1-0.9-2-2-2c-1.1,0-2,0.9-2,2C234.2,6.9,235,7.8,236.1,7.8z"/>
		<path class="st2" d="M247.2,7.8c1.1,0,2-0.9,2-2c0-1.1-0.9-2-2-2c-1.1,0-2,0.9-2,2C245.2,6.9,246.1,7.8,247.2,7.8z"/>
		<path class="st2" d="M258.3,7.8c1.1,0,2-0.9,2-2c0-1.1-0.9-2-2-2c-1.1,0-2,0.9-2,2C256.3,6.9,257.2,7.8,258.3,7.8z"/>
		<path class="st2" d="M269.4,7.8c1.1,0,2-0.9,2-2c0-1.1-0.9-2-2-2c-1.1,0-2,0.9-2,2C267.4,6.9,268.3,7.8,269.4,7.8z"/>
		<path class="st2" d="M280.4,7.8c1.1,0,2-0.9,2-2c0-1.1-0.9-2-2-2c-1.1,0-2,0.9-2,2C278.4,6.9,279.3,7.8,280.4,7.8z"/>
		<path class="st2" d="M291.5,7.8c1.1,0,2-0.9,2-2c0-1.1-0.9-2-2-2c-1.1,0-2,0.9-2,2C289.5,6.9,290.4,7.8,291.5,7.8z"/>
		<path class="st2" d="M-1.9,18.8c1.1,0,2-0.9,2-2c0-1.1-0.9-2-2-2c-1.1,0-2,0.9-2,2C-3.8,17.9-3,18.8-1.9,18.8z"/>
		<path class="st2" d="M9.2,18.8c1.1,0,2-0.9,2-2c0-1.1-0.9-2-2-2c-1.1,0-2,0.9-2,2C7.2,17.9,8.1,18.8,9.2,18.8z"/>
		<path class="st2" d="M20.3,18.8c1.1,0,2-0.9,2-2c0-1.1-0.9-2-2-2c-1.1,0-2,0.9-2,2C18.3,17.9,19.2,18.8,20.3,18.8z"/>
		<path class="st2" d="M31.4,18.8c1.1,0,2-0.9,2-2c0-1.1-0.9-2-2-2c-1.1,0-2,0.9-2,2C29.4,17.9,30.3,18.8,31.4,18.8z"/>
		<path class="st2" d="M42.4,18.8c1.1,0,2-0.9,2-2c0-1.1-0.9-2-2-2c-1.1,0-2,0.9-2,2C40.4,17.9,41.3,18.8,42.4,18.8z"/>
		<path class="st2" d="M53.5,18.8c1.1,0,2-0.9,2-2c0-1.1-0.9-2-2-2c-1.1,0-2,0.9-2,2C51.5,17.9,52.4,18.8,53.5,18.8z"/>
		<path class="st2" d="M64.6,18.8c1.1,0,2-0.9,2-2c0-1.1-0.9-2-2-2s-2,0.9-2,2C62.6,17.9,63.5,18.8,64.6,18.8z"/>
		<path class="st2" d="M75.6,18.8c1.1,0,2-0.9,2-2c0-1.1-0.9-2-2-2c-1.1,0-2,0.9-2,2C73.6,17.9,74.5,18.8,75.6,18.8z"/>
		<path class="st2" d="M86.7,18.8c1.1,0,2-0.9,2-2c0-1.1-0.9-2-2-2c-1.1,0-2,0.9-2,2C84.7,17.9,85.6,18.8,86.7,18.8z"/>
		<path class="st2" d="M97.8,18.8c1.1,0,2-0.9,2-2c0-1.1-0.9-2-2-2c-1.1,0-2,0.9-2,2C95.8,17.9,96.7,18.8,97.8,18.8z"/>
		<path class="st2" d="M108.8,18.8c1.1,0,2-0.9,2-2c0-1.1-0.9-2-2-2c-1.1,0-2,0.9-2,2C106.8,17.9,107.7,18.8,108.8,18.8z"/>
		<path class="st2" d="M119.9,18.8c1.1,0,2-0.9,2-2c0-1.1-0.9-2-2-2c-1.1,0-2,0.9-2,2C117.9,17.9,118.8,18.8,119.9,18.8z"/>
		<path class="st2" d="M131,18.8c1.1,0,2-0.9,2-2c0-1.1-0.9-2-2-2c-1.1,0-2,0.9-2,2C129,17.9,129.9,18.8,131,18.8z"/>
		<path class="st2" d="M142.1,18.8c1.1,0,2-0.9,2-2c0-1.1-0.9-2-2-2c-1.1,0-2,0.9-2,2C140.1,17.9,141,18.8,142.1,18.8z"/>
		<path class="st2" d="M153.1,18.8c1.1,0,2-0.9,2-2c0-1.1-0.9-2-2-2c-1.1,0-2,0.9-2,2C151.1,17.9,152,18.8,153.1,18.8z"/>
		<path class="st2" d="M164.2,18.8c1.1,0,2-0.9,2-2c0-1.1-0.9-2-2-2c-1.1,0-2,0.9-2,2C162.2,17.9,163.1,18.8,164.2,18.8z"/>
		<path class="st2" d="M175.3,18.8c1.1,0,2-0.9,2-2c0-1.1-0.9-2-2-2c-1.1,0-2,0.9-2,2C173.3,17.9,174.2,18.8,175.3,18.8z"/>
		<path class="st2" d="M186.3,18.8c1.1,0,2-0.9,2-2c0-1.1-0.9-2-2-2c-1.1,0-2,0.9-2,2C184.3,17.9,185.2,18.8,186.3,18.8z"/>
		<path class="st2" d="M197.4,18.8c1.1,0,2-0.9,2-2c0-1.1-0.9-2-2-2c-1.1,0-2,0.9-2,2C195.4,17.9,196.3,18.8,197.4,18.8z"/>
		<path class="st2" d="M208.5,18.8c1.1,0,2-0.9,2-2c0-1.1-0.9-2-2-2c-1.1,0-2,0.9-2,2C206.5,17.9,207.4,18.8,208.5,18.8z"/>
		<path class="st2" d="M219.5,18.8c1.1,0,2-0.9,2-2c0-1.1-0.9-2-2-2c-1.1,0-2,0.9-2,2C217.5,17.9,218.4,18.8,219.5,18.8z"/>
		<path class="st2" d="M230.6,18.8c1.1,0,2-0.9,2-2c0-1.1-0.9-2-2-2c-1.1,0-2,0.9-2,2C228.6,17.9,229.5,18.8,230.6,18.8z"/>
		<path class="st2" d="M241.7,18.8c1.1,0,2-0.9,2-2c0-1.1-0.9-2-2-2c-1.1,0-2,0.9-2,2C239.7,17.9,240.6,18.8,241.7,18.8z"/>
		<path class="st2" d="M252.8,18.8c1.1,0,2-0.9,2-2c0-1.1-0.9-2-2-2c-1.1,0-2,0.9-2,2C250.8,17.9,251.7,18.8,252.8,18.8z"/>
		<path class="st2" d="M263.8,18.8c1.1,0,2-0.9,2-2c0-1.1-0.9-2-2-2c-1.1,0-2,0.9-2,2C261.8,17.9,262.7,18.8,263.8,18.8z"/>
		<path class="st2" d="M274.9,18.8c1.1,0,2-0.9,2-2c0-1.1-0.9-2-2-2c-1.1,0-2,0.9-2,2C272.9,17.9,273.8,18.8,274.9,18.8z"/>
		<path class="st2" d="M286,18.8c1.1,0,2-0.9,2-2c0-1.1-0.9-2-2-2s-2,0.9-2,2C284,17.9,284.9,18.8,286,18.8z"/>
		<path class="st2" d="M297,18.8c1.1,0,2-0.9,2-2c0-1.1-0.9-2-2-2c-1.1,0-2,0.9-2,2C295,17.9,295.9,18.8,297,18.8z"/>
		<path class="st2" d="M-7.4,29.9c1.1,0,2-0.9,2-2c0-1.1-0.9-2-2-2c-1.1,0-2,0.9-2,2C-9.4,29-8.5,29.9-7.4,29.9z"/>
		<path class="st2" d="M3.7,29.9c1.1,0,2-0.9,2-2c0-1.1-0.9-2-2-2c-1.1,0-2,0.9-2,2C1.7,29,2.6,29.9,3.7,29.9z"/>
		<path class="st2" d="M14.8,29.9c1.1,0,2-0.9,2-2c0-1.1-0.9-2-2-2c-1.1,0-2,0.9-2,2C12.8,29,13.6,29.9,14.8,29.9z"/>
		<path class="st2" d="M25.8,29.9c1.1,0,2-0.9,2-2c0-1.1-0.9-2-2-2c-1.1,0-2,0.9-2,2C23.8,29,24.7,29.9,25.8,29.9z"/>
		<path class="st2" d="M36.9,29.9c1.1,0,2-0.9,2-2c0-1.1-0.9-2-2-2c-1.1,0-2,0.9-2,2C34.9,29,35.8,29.9,36.9,29.9z"/>
		<path class="st2" d="M48,29.9c1.1,0,2-0.9,2-2c0-1.1-0.9-2-2-2c-1.1,0-2,0.9-2,2C46,29,46.9,29.9,48,29.9z"/>
		<path class="st2" d="M59,29.9c1.1,0,2-0.9,2-2c0-1.1-0.9-2-2-2c-1.1,0-2,0.9-2,2C57,29,57.9,29.9,59,29.9z"/>
		<path class="st2" d="M70.1,29.9c1.1,0,2-0.9,2-2c0-1.1-0.9-2-2-2c-1.1,0-2,0.9-2,2C68.1,29,69,29.9,70.1,29.9z"/>
		<path class="st2" d="M81.2,29.9c1.1,0,2-0.9,2-2c0-1.1-0.9-2-2-2c-1.1,0-2,0.9-2,2C79.2,29,80.1,29.9,81.2,29.9z"/>
		<path class="st2" d="M92.2,29.9c1.1,0,2-0.9,2-2c0-1.1-0.9-2-2-2c-1.1,0-2,0.9-2,2C90.2,29,91.1,29.9,92.2,29.9z"/>
		<path class="st2" d="M103.3,29.9c1.1,0,2-0.9,2-2c0-1.1-0.9-2-2-2c-1.1,0-2,0.9-2,2C101.3,29,102.2,29.9,103.3,29.9z"/>
		<path class="st2" d="M114.4,29.9c1.1,0,2-0.9,2-2c0-1.1-0.9-2-2-2c-1.1,0-2,0.9-2,2C112.4,29,113.3,29.9,114.4,29.9z"/>
		<path class="st2" d="M125.4,29.9c1.1,0,2-0.9,2-2c0-1.1-0.9-2-2-2c-1.1,0-2,0.9-2,2C123.5,29,124.3,29.9,125.4,29.9z"/>
		<path class="st2" d="M136.5,29.9c1.1,0,2-0.9,2-2c0-1.1-0.9-2-2-2c-1.1,0-2,0.9-2,2C134.5,29,135.4,29.9,136.5,29.9z"/>
		<path class="st2" d="M147.6,29.9c1.1,0,2-0.9,2-2c0-1.1-0.9-2-2-2c-1.1,0-2,0.9-2,2C145.6,29,146.5,29.9,147.6,29.9z"/>
		<path class="st2" d="M158.7,29.9c1.1,0,2-0.9,2-2c0-1.1-0.9-2-2-2c-1.1,0-2,0.9-2,2C156.7,29,157.6,29.9,158.7,29.9z"/>
		<path class="st2" d="M169.7,29.9c1.1,0,2-0.9,2-2c0-1.1-0.9-2-2-2c-1.1,0-2,0.9-2,2C167.7,29,168.6,29.9,169.7,29.9z"/>
		<path class="st2" d="M180.8,29.9c1.1,0,2-0.9,2-2c0-1.1-0.9-2-2-2c-1.1,0-2,0.9-2,2C178.8,29,179.7,29.9,180.8,29.9z"/>
		<path class="st2" d="M191.9,29.9c1.1,0,2-0.9,2-2c0-1.1-0.9-2-2-2c-1.1,0-2,0.9-2,2C189.9,29,190.8,29.9,191.9,29.9z"/>
		<path class="st2" d="M202.9,29.9c1.1,0,2-0.9,2-2c0-1.1-0.9-2-2-2c-1.1,0-2,0.9-2,2C200.9,29,201.8,29.9,202.9,29.9z"/>
		<path class="st2" d="M214,29.9c1.1,0,2-0.9,2-2c0-1.1-0.9-2-2-2c-1.1,0-2,0.9-2,2C212,29,212.9,29.9,214,29.9z"/>
		<path class="st2" d="M225.1,29.9c1.1,0,2-0.9,2-2c0-1.1-0.9-2-2-2c-1.1,0-2,0.9-2,2C223.1,29,224,29.9,225.1,29.9z"/>
		<path class="st2" d="M236.1,29.9c1.1,0,2-0.9,2-2c0-1.1-0.9-2-2-2c-1.1,0-2,0.9-2,2C234.2,29,235,29.9,236.1,29.9z"/>
		<path class="st2" d="M247.2,29.9c1.1,0,2-0.9,2-2c0-1.1-0.9-2-2-2c-1.1,0-2,0.9-2,2C245.2,29,246.1,29.9,247.2,29.9z"/>
		<path class="st2" d="M258.3,29.9c1.1,0,2-0.9,2-2c0-1.1-0.9-2-2-2c-1.1,0-2,0.9-2,2C256.3,29,257.2,29.9,258.3,29.9z"/>
		<path class="st2" d="M269.4,29.9c1.1,0,2-0.9,2-2c0-1.1-0.9-2-2-2c-1.1,0-2,0.9-2,2C267.4,29,268.3,29.9,269.4,29.9z"/>
		<path class="st2" d="M280.4,29.9c1.1,0,2-0.9,2-2c0-1.1-0.9-2-2-2c-1.1,0-2,0.9-2,2C278.4,29,279.3,29.9,280.4,29.9z"/>
		<path class="st2" d="M291.5,29.9c1.1,0,2-0.9,2-2c0-1.1-0.9-2-2-2c-1.1,0-2,0.9-2,2C289.5,29,290.4,29.9,291.5,29.9z"/>
		<path class="st2" d="M-1.9,41c1.1,0,2-0.9,2-2c0-1.1-0.9-2-2-2c-1.1,0-2,0.9-2,2C-3.8,40.1-3,41-1.9,41z"/>
		<path class="st2" d="M9.2,41c1.1,0,2-0.9,2-2c0-1.1-0.9-2-2-2c-1.1,0-2,0.9-2,2C7.2,40.1,8.1,41,9.2,41z"/>
		<path class="st2" d="M20.3,41c1.1,0,2-0.9,2-2c0-1.1-0.9-2-2-2c-1.1,0-2,0.9-2,2C18.3,40.1,19.2,41,20.3,41z"/>
		<path class="st2" d="M31.4,41c1.1,0,2-0.9,2-2c0-1.1-0.9-2-2-2c-1.1,0-2,0.9-2,2C29.4,40.1,30.3,41,31.4,41z"/>
		<path class="st2" d="M42.4,41c1.1,0,2-0.9,2-2c0-1.1-0.9-2-2-2c-1.1,0-2,0.9-2,2C40.4,40.1,41.3,41,42.4,41z"/>
		<path class="st2" d="M53.5,41c1.1,0,2-0.9,2-2c0-1.1-0.9-2-2-2c-1.1,0-2,0.9-2,2C51.5,40.1,52.4,41,53.5,41z"/>
		<path class="st2" d="M64.6,41c1.1,0,2-0.9,2-2c0-1.1-0.9-2-2-2s-2,0.9-2,2C62.6,40.1,63.5,41,64.6,41z"/>
		<path class="st2" d="M75.6,41c1.1,0,2-0.9,2-2c0-1.1-0.9-2-2-2c-1.1,0-2,0.9-2,2C73.6,40.1,74.5,41,75.6,41z"/>
		<path class="st2" d="M86.7,41c1.1,0,2-0.9,2-2c0-1.1-0.9-2-2-2c-1.1,0-2,0.9-2,2C84.7,40.1,85.6,41,86.7,41z"/>
		<path class="st2" d="M97.8,41c1.1,0,2-0.9,2-2c0-1.1-0.9-2-2-2c-1.1,0-2,0.9-2,2C95.8,40.1,96.7,41,97.8,41z"/>
		<path class="st2" d="M108.8,41c1.1,0,2-0.9,2-2c0-1.1-0.9-2-2-2c-1.1,0-2,0.9-2,2C106.8,40.1,107.7,41,108.8,41z"/>
		<path class="st2" d="M119.9,41c1.1,0,2-0.9,2-2c0-1.1-0.9-2-2-2c-1.1,0-2,0.9-2,2C117.9,40.1,118.8,41,119.9,41z"/>
		<path class="st2" d="M131,41c1.1,0,2-0.9,2-2c0-1.1-0.9-2-2-2c-1.1,0-2,0.9-2,2C129,40.1,129.9,41,131,41z"/>
		<path class="st2" d="M142.1,41c1.1,0,2-0.9,2-2c0-1.1-0.9-2-2-2c-1.1,0-2,0.9-2,2C140.1,40.1,141,41,142.1,41z"/>
		<path class="st2" d="M153.1,41c1.1,0,2-0.9,2-2c0-1.1-0.9-2-2-2c-1.1,0-2,0.9-2,2C151.1,40.1,152,41,153.1,41z"/>
		<path class="st2" d="M164.2,41c1.1,0,2-0.9,2-2c0-1.1-0.9-2-2-2c-1.1,0-2,0.9-2,2C162.2,40.1,163.1,41,164.2,41z"/>
		<path class="st2" d="M175.3,41c1.1,0,2-0.9,2-2c0-1.1-0.9-2-2-2c-1.1,0-2,0.9-2,2C173.3,40.1,174.2,41,175.3,41z"/>
		<path class="st2" d="M186.3,41c1.1,0,2-0.9,2-2c0-1.1-0.9-2-2-2c-1.1,0-2,0.9-2,2C184.3,40.1,185.2,41,186.3,41z"/>
		<path class="st2" d="M197.4,41c1.1,0,2-0.9,2-2c0-1.1-0.9-2-2-2c-1.1,0-2,0.9-2,2C195.4,40.1,196.3,41,197.4,41z"/>
		<path class="st2" d="M208.5,41c1.1,0,2-0.9,2-2c0-1.1-0.9-2-2-2c-1.1,0-2,0.9-2,2C206.5,40.1,207.4,41,208.5,41z"/>
		<path class="st2" d="M219.5,41c1.1,0,2-0.9,2-2c0-1.1-0.9-2-2-2c-1.1,0-2,0.9-2,2C217.5,40.1,218.4,41,219.5,41z"/>
		<path class="st2" d="M230.6,41c1.1,0,2-0.9,2-2c0-1.1-0.9-2-2-2c-1.1,0-2,0.9-2,2C228.6,40.1,229.5,41,230.6,41z"/>
		<path class="st2" d="M241.7,41c1.1,0,2-0.9,2-2c0-1.1-0.9-2-2-2c-1.1,0-2,0.9-2,2C239.7,40.1,240.6,41,241.7,41z"/>
		<path class="st2" d="M252.8,41c1.1,0,2-0.9,2-2c0-1.1-0.9-2-2-2c-1.1,0-2,0.9-2,2C250.8,40.1,251.7,41,252.8,41z"/>
		<path class="st2" d="M263.8,41c1.1,0,2-0.9,2-2c0-1.1-0.9-2-2-2c-1.1,0-2,0.9-2,2C261.8,40.1,262.7,41,263.8,41z"/>
		<path class="st2" d="M274.9,41c1.1,0,2-0.9,2-2c0-1.1-0.9-2-2-2c-1.1,0-2,0.9-2,2C272.9,40.1,273.8,41,274.9,41z"/>
		<path class="st2" d="M286,41c1.1,0,2-0.9,2-2c0-1.1-0.9-2-2-2s-2,0.9-2,2C284,40.1,284.9,41,286,41z"/>
		<path class="st2" d="M297,41c1.1,0,2-0.9,2-2c0-1.1-0.9-2-2-2c-1.1,0-2,0.9-2,2C295,40.1,295.9,41,297,41z"/>
		<path class="st2" d="M-7.4,52c1.1,0,2-0.9,2-2c0-1.1-0.9-2-2-2c-1.1,0-2,0.9-2,2C-9.4,51.1-8.5,52-7.4,52z"/>
		<path class="st2" d="M3.7,52c1.1,0,2-0.9,2-2c0-1.1-0.9-2-2-2c-1.1,0-2,0.9-2,2C1.7,51.1,2.6,52,3.7,52z"/>
		<path class="st2" d="M14.8,52c1.1,0,2-0.9,2-2c0-1.1-0.9-2-2-2c-1.1,0-2,0.9-2,2C12.8,51.1,13.6,52,14.8,52z"/>
		<path class="st2" d="M25.8,52c1.1,0,2-0.9,2-2c0-1.1-0.9-2-2-2c-1.1,0-2,0.9-2,2C23.8,51.1,24.7,52,25.8,52z"/>
		<path class="st2" d="M36.9,52c1.1,0,2-0.9,2-2c0-1.1-0.9-2-2-2c-1.1,0-2,0.9-2,2C34.9,51.1,35.8,52,36.9,52z"/>
		<path class="st2" d="M48,52c1.1,0,2-0.9,2-2c0-1.1-0.9-2-2-2c-1.1,0-2,0.9-2,2C46,51.1,46.9,52,48,52z"/>
		<path class="st2" d="M59,52c1.1,0,2-0.9,2-2c0-1.1-0.9-2-2-2c-1.1,0-2,0.9-2,2C57,51.1,57.9,52,59,52z"/>
		<path class="st2" d="M70.1,52c1.1,0,2-0.9,2-2c0-1.1-0.9-2-2-2c-1.1,0-2,0.9-2,2C68.1,51.1,69,52,70.1,52z"/>
		<path class="st2" d="M81.2,52c1.1,0,2-0.9,2-2c0-1.1-0.9-2-2-2c-1.1,0-2,0.9-2,2C79.2,51.1,80.1,52,81.2,52z"/>
		<path class="st2" d="M92.2,52c1.1,0,2-0.9,2-2c0-1.1-0.9-2-2-2c-1.1,0-2,0.9-2,2C90.2,51.1,91.1,52,92.2,52z"/>
		<path class="st2" d="M103.3,52c1.1,0,2-0.9,2-2c0-1.1-0.9-2-2-2c-1.1,0-2,0.9-2,2C101.3,51.1,102.2,52,103.3,52z"/>
		<path class="st2" d="M114.4,52c1.1,0,2-0.9,2-2c0-1.1-0.9-2-2-2c-1.1,0-2,0.9-2,2C112.4,51.1,113.3,52,114.4,52z"/>
		<path class="st2" d="M125.4,52c1.1,0,2-0.9,2-2c0-1.1-0.9-2-2-2c-1.1,0-2,0.9-2,2C123.5,51.1,124.3,52,125.4,52z"/>
		<path class="st2" d="M136.5,52c1.1,0,2-0.9,2-2c0-1.1-0.9-2-2-2c-1.1,0-2,0.9-2,2C134.5,51.1,135.4,52,136.5,52z"/>
		<path class="st2" d="M147.6,52c1.1,0,2-0.9,2-2c0-1.1-0.9-2-2-2c-1.1,0-2,0.9-2,2C145.6,51.1,146.5,52,147.6,52z"/>
		<path class="st2" d="M158.7,52c1.1,0,2-0.9,2-2c0-1.1-0.9-2-2-2c-1.1,0-2,0.9-2,2C156.7,51.1,157.6,52,158.7,52z"/>
		<path class="st2" d="M169.7,52c1.1,0,2-0.9,2-2c0-1.1-0.9-2-2-2c-1.1,0-2,0.9-2,2C167.7,51.1,168.6,52,169.7,52z"/>
		<path class="st2" d="M180.8,52c1.1,0,2-0.9,2-2c0-1.1-0.9-2-2-2c-1.1,0-2,0.9-2,2C178.8,51.1,179.7,52,180.8,52z"/>
		<path class="st2" d="M191.9,52c1.1,0,2-0.9,2-2c0-1.1-0.9-2-2-2c-1.1,0-2,0.9-2,2C189.9,51.1,190.8,52,191.9,52z"/>
		<path class="st2" d="M202.9,52c1.1,0,2-0.9,2-2c0-1.1-0.9-2-2-2c-1.1,0-2,0.9-2,2C200.9,51.1,201.8,52,202.9,52z"/>
		<path class="st2" d="M214,52c1.1,0,2-0.9,2-2c0-1.1-0.9-2-2-2c-1.1,0-2,0.9-2,2C212,51.1,212.9,52,214,52z"/>
		<path class="st2" d="M225.1,52c1.1,0,2-0.9,2-2c0-1.1-0.9-2-2-2c-1.1,0-2,0.9-2,2C223.1,51.1,224,52,225.1,52z"/>
		<path class="st2" d="M236.1,52c1.1,0,2-0.9,2-2c0-1.1-0.9-2-2-2c-1.1,0-2,0.9-2,2C234.2,51.1,235,52,236.1,52z"/>
		<path class="st2" d="M247.2,52c1.1,0,2-0.9,2-2c0-1.1-0.9-2-2-2c-1.1,0-2,0.9-2,2C245.2,51.1,246.1,52,247.2,52z"/>
		<path class="st2" d="M258.3,52c1.1,0,2-0.9,2-2c0-1.1-0.9-2-2-2c-1.1,0-2,0.9-2,2C256.3,51.1,257.2,52,258.3,52z"/>
		<path class="st2" d="M269.4,52c1.1,0,2-0.9,2-2c0-1.1-0.9-2-2-2c-1.1,0-2,0.9-2,2C267.4,51.1,268.3,52,269.4,52z"/>
		<path class="st2" d="M280.4,52c1.1,0,2-0.9,2-2c0-1.1-0.9-2-2-2c-1.1,0-2,0.9-2,2C278.4,51.1,279.3,52,280.4,52z"/>
		<path class="st2" d="M291.5,52c1.1,0,2-0.9,2-2c0-1.1-0.9-2-2-2c-1.1,0-2,0.9-2,2C289.5,51.1,290.4,52,291.5,52z"/>
		<path class="st2" d="M-1.9,63.1c1.1,0,2-0.9,2-2c0-1.1-0.9-2-2-2c-1.1,0-2,0.9-2,2C-3.8,62.2-3,63.1-1.9,63.1z"/>
		<path class="st2" d="M9.2,63.1c1.1,0,2-0.9,2-2c0-1.1-0.9-2-2-2c-1.1,0-2,0.9-2,2C7.2,62.2,8.1,63.1,9.2,63.1z"/>
		<path class="st2" d="M20.3,63.1c1.1,0,2-0.9,2-2c0-1.1-0.9-2-2-2c-1.1,0-2,0.9-2,2C18.3,62.2,19.2,63.1,20.3,63.1z"/>
		<path class="st2" d="M31.4,63.1c1.1,0,2-0.9,2-2c0-1.1-0.9-2-2-2c-1.1,0-2,0.9-2,2C29.4,62.2,30.3,63.1,31.4,63.1z"/>
		<path class="st2" d="M42.4,63.1c1.1,0,2-0.9,2-2c0-1.1-0.9-2-2-2c-1.1,0-2,0.9-2,2C40.4,62.2,41.3,63.1,42.4,63.1z"/>
		<path class="st2" d="M53.5,63.1c1.1,0,2-0.9,2-2c0-1.1-0.9-2-2-2c-1.1,0-2,0.9-2,2C51.5,62.2,52.4,63.1,53.5,63.1z"/>
		<path class="st2" d="M64.6,63.1c1.1,0,2-0.9,2-2c0-1.1-0.9-2-2-2s-2,0.9-2,2C62.6,62.2,63.5,63.1,64.6,63.1z"/>
		<path class="st2" d="M75.6,63.1c1.1,0,2-0.9,2-2c0-1.1-0.9-2-2-2c-1.1,0-2,0.9-2,2C73.6,62.2,74.5,63.1,75.6,63.1z"/>
		<path class="st2" d="M86.7,63.1c1.1,0,2-0.9,2-2c0-1.1-0.9-2-2-2c-1.1,0-2,0.9-2,2C84.7,62.2,85.6,63.1,86.7,63.1z"/>
		<path class="st2" d="M97.8,63.1c1.1,0,2-0.9,2-2c0-1.1-0.9-2-2-2c-1.1,0-2,0.9-2,2C95.8,62.2,96.7,63.1,97.8,63.1z"/>
		<path class="st2" d="M108.8,63.1c1.1,0,2-0.9,2-2c0-1.1-0.9-2-2-2c-1.1,0-2,0.9-2,2C106.8,62.2,107.7,63.1,108.8,63.1z"/>
		<path class="st2" d="M119.9,63.1c1.1,0,2-0.9,2-2c0-1.1-0.9-2-2-2c-1.1,0-2,0.9-2,2C117.9,62.2,118.8,63.1,119.9,63.1z"/>
		<path class="st2" d="M131,63.1c1.1,0,2-0.9,2-2c0-1.1-0.9-2-2-2c-1.1,0-2,0.9-2,2C129,62.2,129.9,63.1,131,63.1z"/>
		<path class="st2" d="M142.1,63.1c1.1,0,2-0.9,2-2c0-1.1-0.9-2-2-2c-1.1,0-2,0.9-2,2C140.1,62.2,141,63.1,142.1,63.1z"/>
		<path class="st2" d="M153.1,63.1c1.1,0,2-0.9,2-2c0-1.1-0.9-2-2-2c-1.1,0-2,0.9-2,2C151.1,62.2,152,63.1,153.1,63.1z"/>
		<path class="st2" d="M164.2,63.1c1.1,0,2-0.9,2-2c0-1.1-0.9-2-2-2c-1.1,0-2,0.9-2,2C162.2,62.2,163.1,63.1,164.2,63.1z"/>
		<path class="st2" d="M175.3,63.1c1.1,0,2-0.9,2-2c0-1.1-0.9-2-2-2c-1.1,0-2,0.9-2,2C173.3,62.2,174.2,63.1,175.3,63.1z"/>
		<path class="st2" d="M186.3,63.1c1.1,0,2-0.9,2-2c0-1.1-0.9-2-2-2c-1.1,0-2,0.9-2,2C184.3,62.2,185.2,63.1,186.3,63.1z"/>
		<path class="st2" d="M197.4,63.1c1.1,0,2-0.9,2-2c0-1.1-0.9-2-2-2c-1.1,0-2,0.9-2,2C195.4,62.2,196.3,63.1,197.4,63.1z"/>
		<path class="st2" d="M208.5,63.1c1.1,0,2-0.9,2-2c0-1.1-0.9-2-2-2c-1.1,0-2,0.9-2,2C206.5,62.2,207.4,63.1,208.5,63.1z"/>
		<path class="st2" d="M219.5,63.1c1.1,0,2-0.9,2-2c0-1.1-0.9-2-2-2c-1.1,0-2,0.9-2,2C217.5,62.2,218.4,63.1,219.5,63.1z"/>
		<path class="st2" d="M230.6,63.1c1.1,0,2-0.9,2-2c0-1.1-0.9-2-2-2c-1.1,0-2,0.9-2,2C228.6,62.2,229.5,63.1,230.6,63.1z"/>
		<path class="st2" d="M241.7,63.1c1.1,0,2-0.9,2-2c0-1.1-0.9-2-2-2c-1.1,0-2,0.9-2,2C239.7,62.2,240.6,63.1,241.7,63.1z"/>
		<path class="st2" d="M252.8,63.1c1.1,0,2-0.9,2-2c0-1.1-0.9-2-2-2c-1.1,0-2,0.9-2,2C250.8,62.2,251.7,63.1,252.8,63.1z"/>
		<path class="st2" d="M263.8,63.1c1.1,0,2-0.9,2-2c0-1.1-0.9-2-2-2c-1.1,0-2,0.9-2,2C261.8,62.2,262.7,63.1,263.8,63.1z"/>
		<path class="st2" d="M274.9,63.1c1.1,0,2-0.9,2-2c0-1.1-0.9-2-2-2c-1.1,0-2,0.9-2,2C272.9,62.2,273.8,63.1,274.9,63.1z"/>
		<path class="st2" d="M286,63.1c1.1,0,2-0.9,2-2c0-1.1-0.9-2-2-2s-2,0.9-2,2C284,62.2,284.9,63.1,286,63.1z"/>
		<path class="st2" d="M297,63.1c1.1,0,2-0.9,2-2c0-1.1-0.9-2-2-2c-1.1,0-2,0.9-2,2C295,62.2,295.9,63.1,297,63.1z"/>
		<path class="st2" d="M-7.4,74.2c1.1,0,2-0.9,2-2c0-1.1-0.9-2-2-2c-1.1,0-2,0.9-2,2C-9.4,73.3-8.5,74.2-7.4,74.2z"/>
		<path class="st2" d="M3.7,74.2c1.1,0,2-0.9,2-2c0-1.1-0.9-2-2-2c-1.1,0-2,0.9-2,2C1.7,73.3,2.6,74.2,3.7,74.2z"/>
		<path class="st2" d="M14.8,74.2c1.1,0,2-0.9,2-2c0-1.1-0.9-2-2-2c-1.1,0-2,0.9-2,2C12.8,73.3,13.6,74.2,14.8,74.2z"/>
		<path class="st2" d="M25.8,74.2c1.1,0,2-0.9,2-2c0-1.1-0.9-2-2-2c-1.1,0-2,0.9-2,2C23.8,73.3,24.7,74.2,25.8,74.2z"/>
		<path class="st2" d="M36.9,74.2c1.1,0,2-0.9,2-2c0-1.1-0.9-2-2-2c-1.1,0-2,0.9-2,2C34.9,73.3,35.8,74.2,36.9,74.2z"/>
		<path class="st2" d="M48,74.2c1.1,0,2-0.9,2-2c0-1.1-0.9-2-2-2c-1.1,0-2,0.9-2,2C46,73.3,46.9,74.2,48,74.2z"/>
		<path class="st2" d="M59,74.2c1.1,0,2-0.9,2-2c0-1.1-0.9-2-2-2c-1.1,0-2,0.9-2,2C57,73.3,57.9,74.2,59,74.2z"/>
		<path class="st2" d="M70.1,74.2c1.1,0,2-0.9,2-2c0-1.1-0.9-2-2-2c-1.1,0-2,0.9-2,2C68.1,73.3,69,74.2,70.1,74.2z"/>
		<path class="st2" d="M81.2,74.2c1.1,0,2-0.9,2-2c0-1.1-0.9-2-2-2c-1.1,0-2,0.9-2,2C79.2,73.3,80.1,74.2,81.2,74.2z"/>
		<path class="st2" d="M92.2,74.2c1.1,0,2-0.9,2-2c0-1.1-0.9-2-2-2c-1.1,0-2,0.9-2,2C90.2,73.3,91.1,74.2,92.2,74.2z"/>
		<path class="st2" d="M103.3,74.2c1.1,0,2-0.9,2-2c0-1.1-0.9-2-2-2c-1.1,0-2,0.9-2,2C101.3,73.3,102.2,74.2,103.3,74.2z"/>
		<path class="st2" d="M114.4,74.2c1.1,0,2-0.9,2-2c0-1.1-0.9-2-2-2c-1.1,0-2,0.9-2,2C112.4,73.3,113.3,74.2,114.4,74.2z"/>
		<path class="st2" d="M125.4,74.2c1.1,0,2-0.9,2-2c0-1.1-0.9-2-2-2c-1.1,0-2,0.9-2,2C123.5,73.3,124.3,74.2,125.4,74.2z"/>
		<path class="st2" d="M136.5,74.2c1.1,0,2-0.9,2-2c0-1.1-0.9-2-2-2c-1.1,0-2,0.9-2,2C134.5,73.3,135.4,74.2,136.5,74.2z"/>
		<path class="st2" d="M147.6,74.2c1.1,0,2-0.9,2-2c0-1.1-0.9-2-2-2c-1.1,0-2,0.9-2,2C145.6,73.3,146.5,74.2,147.6,74.2z"/>
		<path class="st2" d="M158.7,74.2c1.1,0,2-0.9,2-2c0-1.1-0.9-2-2-2c-1.1,0-2,0.9-2,2C156.7,73.3,157.6,74.2,158.7,74.2z"/>
		<path class="st2" d="M169.7,74.2c1.1,0,2-0.9,2-2c0-1.1-0.9-2-2-2c-1.1,0-2,0.9-2,2C167.7,73.3,168.6,74.2,169.7,74.2z"/>
		<path class="st2" d="M180.8,74.2c1.1,0,2-0.9,2-2c0-1.1-0.9-2-2-2c-1.1,0-2,0.9-2,2C178.8,73.3,179.7,74.2,180.8,74.2z"/>
		<path class="st2" d="M191.9,74.2c1.1,0,2-0.9,2-2c0-1.1-0.9-2-2-2c-1.1,0-2,0.9-2,2C189.9,73.3,190.8,74.2,191.9,74.2z"/>
		<path class="st2" d="M202.9,74.2c1.1,0,2-0.9,2-2c0-1.1-0.9-2-2-2c-1.1,0-2,0.9-2,2C200.9,73.3,201.8,74.2,202.9,74.2z"/>
		<path class="st2" d="M214,74.2c1.1,0,2-0.9,2-2c0-1.1-0.9-2-2-2c-1.1,0-2,0.9-2,2C212,73.3,212.9,74.2,214,74.2z"/>
		<path class="st2" d="M225.1,74.2c1.1,0,2-0.9,2-2c0-1.1-0.9-2-2-2c-1.1,0-2,0.9-2,2C223.1,73.3,224,74.2,225.1,74.2z"/>
		<path class="st2" d="M236.1,74.2c1.1,0,2-0.9,2-2c0-1.1-0.9-2-2-2c-1.1,0-2,0.9-2,2C234.2,73.3,235,74.2,236.1,74.2z"/>
		<path class="st2" d="M247.2,74.2c1.1,0,2-0.9,2-2c0-1.1-0.9-2-2-2c-1.1,0-2,0.9-2,2C245.2,73.3,246.1,74.2,247.2,74.2z"/>
		<path class="st2" d="M258.3,74.2c1.1,0,2-0.9,2-2c0-1.1-0.9-2-2-2c-1.1,0-2,0.9-2,2C256.3,73.3,257.2,74.2,258.3,74.2z"/>
		<path class="st2" d="M269.4,74.2c1.1,0,2-0.9,2-2c0-1.1-0.9-2-2-2c-1.1,0-2,0.9-2,2C267.4,73.3,268.3,74.2,269.4,74.2z"/>
		<path class="st2" d="M280.4,74.2c1.1,0,2-0.9,2-2c0-1.1-0.9-2-2-2c-1.1,0-2,0.9-2,2C278.4,73.3,279.3,74.2,280.4,74.2z"/>
		<path class="st2" d="M291.5,74.2c1.1,0,2-0.9,2-2c0-1.1-0.9-2-2-2c-1.1,0-2,0.9-2,2C289.5,73.3,290.4,74.2,291.5,74.2z"/>
		<path class="st2" d="M-1.9,85.2c1.1,0,2-0.9,2-2c0-1.1-0.9-2-2-2c-1.1,0-2,0.9-2,2C-3.8,84.3-3,85.2-1.9,85.2z"/>
		<path class="st2" d="M9.2,85.2c1.1,0,2-0.9,2-2c0-1.1-0.9-2-2-2c-1.1,0-2,0.9-2,2C7.2,84.3,8.1,85.2,9.2,85.2z"/>
		<path class="st2" d="M20.3,85.2c1.1,0,2-0.9,2-2c0-1.1-0.9-2-2-2c-1.1,0-2,0.9-2,2C18.3,84.3,19.2,85.2,20.3,85.2z"/>
		<circle class="st2" cx="31.4" cy="83.2" r="2"/>
		<path class="st2" d="M42.4,85.2c1.1,0,2-0.9,2-2c0-1.1-0.9-2-2-2c-1.1,0-2,0.9-2,2C40.4,84.3,41.3,85.2,42.4,85.2z"/>
		<path class="st2" d="M53.5,85.2c1.1,0,2-0.9,2-2c0-1.1-0.9-2-2-2c-1.1,0-2,0.9-2,2C51.5,84.3,52.4,85.2,53.5,85.2z"/>
		<path class="st2" d="M64.6,85.2c1.1,0,2-0.9,2-2c0-1.1-0.9-2-2-2s-2,0.9-2,2C62.6,84.3,63.5,85.2,64.6,85.2z"/>
		<path class="st2" d="M75.6,85.2c1.1,0,2-0.9,2-2c0-1.1-0.9-2-2-2c-1.1,0-2,0.9-2,2C73.6,84.3,74.5,85.2,75.6,85.2z"/>
		<circle class="st2" cx="86.7" cy="83.2" r="2"/>
		<path class="st2" d="M97.8,85.2c1.1,0,2-0.9,2-2c0-1.1-0.9-2-2-2c-1.1,0-2,0.9-2,2C95.8,84.3,96.7,85.2,97.8,85.2z"/>
		<circle class="st2" cx="108.8" cy="83.2" r="2"/>
		<circle class="st2" cx="119.9" cy="83.2" r="2"/>
		<path class="st2" d="M131,85.2c1.1,0,2-0.9,2-2c0-1.1-0.9-2-2-2c-1.1,0-2,0.9-2,2C129,84.3,129.9,85.2,131,85.2z"/>
		<path class="st2" d="M142.1,85.2c1.1,0,2-0.9,2-2c0-1.1-0.9-2-2-2c-1.1,0-2,0.9-2,2C140.1,84.3,141,85.2,142.1,85.2z"/>
		<path class="st2" d="M153.1,85.2c1.1,0,2-0.9,2-2c0-1.1-0.9-2-2-2c-1.1,0-2,0.9-2,2C151.1,84.3,152,85.2,153.1,85.2z"/>
		<circle class="st2" cx="164.2" cy="83.2" r="2"/>
		<path class="st2" d="M175.3,85.2c1.1,0,2-0.9,2-2c0-1.1-0.9-2-2-2c-1.1,0-2,0.9-2,2C173.3,84.3,174.2,85.2,175.3,85.2z"/>
		<path class="st2" d="M186.3,85.2c1.1,0,2-0.9,2-2c0-1.1-0.9-2-2-2c-1.1,0-2,0.9-2,2C184.3,84.3,185.2,85.2,186.3,85.2z"/>
		<path class="st2" d="M197.4,85.2c1.1,0,2-0.9,2-2c0-1.1-0.9-2-2-2c-1.1,0-2,0.9-2,2C195.4,84.3,196.3,85.2,197.4,85.2z"/>
		<path class="st2" d="M208.5,85.2c1.1,0,2-0.9,2-2c0-1.1-0.9-2-2-2c-1.1,0-2,0.9-2,2C206.5,84.3,207.4,85.2,208.5,85.2z"/>
		<path class="st2" d="M219.5,85.2c1.1,0,2-0.9,2-2c0-1.1-0.9-2-2-2c-1.1,0-2,0.9-2,2C217.5,84.3,218.4,85.2,219.5,85.2z"/>
		<path class="st2" d="M230.6,85.2c1.1,0,2-0.9,2-2c0-1.1-0.9-2-2-2c-1.1,0-2,0.9-2,2C228.6,84.3,229.5,85.2,230.6,85.2z"/>
		<path class="st2" d="M241.7,85.2c1.1,0,2-0.9,2-2c0-1.1-0.9-2-2-2c-1.1,0-2,0.9-2,2C239.7,84.3,240.6,85.2,241.7,85.2z"/>
		<circle class="st2" cx="252.8" cy="83.2" r="2"/>
		<path class="st2" d="M263.8,85.2c1.1,0,2-0.9,2-2c0-1.1-0.9-2-2-2c-1.1,0-2,0.9-2,2C261.8,84.3,262.7,85.2,263.8,85.2z"/>
		<path class="st2" d="M274.9,85.2c1.1,0,2-0.9,2-2c0-1.1-0.9-2-2-2c-1.1,0-2,0.9-2,2C272.9,84.3,273.8,85.2,274.9,85.2z"/>
		<path class="st2" d="M286,85.2c1.1,0,2-0.9,2-2c0-1.1-0.9-2-2-2s-2,0.9-2,2C284,84.3,284.9,85.2,286,85.2z"/>
		<path class="st2" d="M297,85.2c1.1,0,2-0.9,2-2c0-1.1-0.9-2-2-2c-1.1,0-2,0.9-2,2C295,84.3,295.9,85.2,297,85.2z"/>
		<path class="st2" d="M-7.4,96.3c1.1,0,2-0.9,2-2c0-1.1-0.9-2-2-2c-1.1,0-2,0.9-2,2C-9.4,95.4-8.5,96.3-7.4,96.3z"/>
		<path class="st2" d="M3.7,96.3c1.1,0,2-0.9,2-2c0-1.1-0.9-2-2-2c-1.1,0-2,0.9-2,2C1.7,95.4,2.6,96.3,3.7,96.3z"/>
		<path class="st2" d="M14.8,96.3c1.1,0,2-0.9,2-2c0-1.1-0.9-2-2-2c-1.1,0-2,0.9-2,2C12.8,95.4,13.6,96.3,14.8,96.3z"/>
		<path class="st2" d="M25.8,96.3c1.1,0,2-0.9,2-2c0-1.1-0.9-2-2-2c-1.1,0-2,0.9-2,2C23.8,95.4,24.7,96.3,25.8,96.3z"/>
		<path class="st2" d="M36.9,96.3c1.1,0,2-0.9,2-2c0-1.1-0.9-2-2-2c-1.1,0-2,0.9-2,2C34.9,95.4,35.8,96.3,36.9,96.3z"/>
		<path class="st2" d="M48,96.3c1.1,0,2-0.9,2-2c0-1.1-0.9-2-2-2c-1.1,0-2,0.9-2,2C46,95.4,46.9,96.3,48,96.3z"/>
		<path class="st2" d="M59,96.3c1.1,0,2-0.9,2-2c0-1.1-0.9-2-2-2c-1.1,0-2,0.9-2,2C57,95.4,57.9,96.3,59,96.3z"/>
		<path class="st2" d="M70.1,96.3c1.1,0,2-0.9,2-2c0-1.1-0.9-2-2-2c-1.1,0-2,0.9-2,2C68.1,95.4,69,96.3,70.1,96.3z"/>
		<path class="st2" d="M81.2,96.3c1.1,0,2-0.9,2-2c0-1.1-0.9-2-2-2c-1.1,0-2,0.9-2,2C79.2,95.4,80.1,96.3,81.2,96.3z"/>
		<path class="st2" d="M92.2,96.3c1.1,0,2-0.9,2-2c0-1.1-0.9-2-2-2c-1.1,0-2,0.9-2,2C90.2,95.4,91.1,96.3,92.2,96.3z"/>
		<path class="st2" d="M103.3,96.3c1.1,0,2-0.9,2-2c0-1.1-0.9-2-2-2c-1.1,0-2,0.9-2,2C101.3,95.4,102.2,96.3,103.3,96.3z"/>
		<path class="st2" d="M114.4,96.3c1.1,0,2-0.9,2-2c0-1.1-0.9-2-2-2c-1.1,0-2,0.9-2,2C112.4,95.4,113.3,96.3,114.4,96.3z"/>
		<path class="st2" d="M125.4,96.3c1.1,0,2-0.9,2-2c0-1.1-0.9-2-2-2c-1.1,0-2,0.9-2,2C123.5,95.4,124.3,96.3,125.4,96.3z"/>
		<path class="st2" d="M136.5,96.3c1.1,0,2-0.9,2-2c0-1.1-0.9-2-2-2c-1.1,0-2,0.9-2,2C134.5,95.4,135.4,96.3,136.5,96.3z"/>
		<path class="st2" d="M147.6,96.3c1.1,0,2-0.9,2-2c0-1.1-0.9-2-2-2c-1.1,0-2,0.9-2,2C145.6,95.4,146.5,96.3,147.6,96.3z"/>
		<path class="st2" d="M158.7,96.3c1.1,0,2-0.9,2-2c0-1.1-0.9-2-2-2c-1.1,0-2,0.9-2,2C156.7,95.4,157.6,96.3,158.7,96.3z"/>
		<path class="st2" d="M169.7,96.3c1.1,0,2-0.9,2-2c0-1.1-0.9-2-2-2c-1.1,0-2,0.9-2,2C167.7,95.4,168.6,96.3,169.7,96.3z"/>
		<path class="st2" d="M180.8,96.3c1.1,0,2-0.9,2-2c0-1.1-0.9-2-2-2c-1.1,0-2,0.9-2,2C178.8,95.4,179.7,96.3,180.8,96.3z"/>
		<path class="st2" d="M191.9,96.3c1.1,0,2-0.9,2-2c0-1.1-0.9-2-2-2c-1.1,0-2,0.9-2,2C189.9,95.4,190.8,96.3,191.9,96.3z"/>
		<path class="st2" d="M202.9,96.3c1.1,0,2-0.9,2-2c0-1.1-0.9-2-2-2c-1.1,0-2,0.9-2,2C200.9,95.4,201.8,96.3,202.9,96.3z"/>
		<path class="st2" d="M214,96.3c1.1,0,2-0.9,2-2c0-1.1-0.9-2-2-2c-1.1,0-2,0.9-2,2C212,95.4,212.9,96.3,214,96.3z"/>
		<path class="st2" d="M225.1,96.3c1.1,0,2-0.9,2-2c0-1.1-0.9-2-2-2c-1.1,0-2,0.9-2,2C223.1,95.4,224,96.3,225.1,96.3z"/>
		<path class="st2" d="M236.1,96.3c1.1,0,2-0.9,2-2c0-1.1-0.9-2-2-2c-1.1,0-2,0.9-2,2C234.2,95.4,235,96.3,236.1,96.3z"/>
		<path class="st2" d="M247.2,96.3c1.1,0,2-0.9,2-2c0-1.1-0.9-2-2-2c-1.1,0-2,0.9-2,2C245.2,95.4,246.1,96.3,247.2,96.3z"/>
		<path class="st2" d="M258.3,96.3c1.1,0,2-0.9,2-2c0-1.1-0.9-2-2-2c-1.1,0-2,0.9-2,2C256.3,95.4,257.2,96.3,258.3,96.3z"/>
		<path class="st2" d="M269.4,96.3c1.1,0,2-0.9,2-2c0-1.1-0.9-2-2-2c-1.1,0-2,0.9-2,2C267.4,95.4,268.3,96.3,269.4,96.3z"/>
		<path class="st2" d="M280.4,96.3c1.1,0,2-0.9,2-2c0-1.1-0.9-2-2-2c-1.1,0-2,0.9-2,2C278.4,95.4,279.3,96.3,280.4,96.3z"/>
		<path class="st2" d="M291.5,96.3c1.1,0,2-0.9,2-2c0-1.1-0.9-2-2-2c-1.1,0-2,0.9-2,2C289.5,95.4,290.4,96.3,291.5,96.3z"/>
		<path class="st2" d="M-1.9,107.4c1.1,0,2-0.9,2-2c0-1.1-0.9-2-2-2c-1.1,0-2,0.9-2,2C-3.8,106.5-3,107.4-1.9,107.4z"/>
		<path class="st2" d="M9.2,107.4c1.1,0,2-0.9,2-2c0-1.1-0.9-2-2-2c-1.1,0-2,0.9-2,2C7.2,106.5,8.1,107.4,9.2,107.4z"/>
		<path class="st2" d="M20.3,107.4c1.1,0,2-0.9,2-2c0-1.1-0.9-2-2-2c-1.1,0-2,0.9-2,2C18.3,106.5,19.2,107.4,20.3,107.4z"/>
		<path class="st2" d="M31.4,107.4c1.1,0,2-0.9,2-2c0-1.1-0.9-2-2-2c-1.1,0-2,0.9-2,2C29.4,106.5,30.3,107.4,31.4,107.4z"/>
		<path class="st2" d="M42.4,107.4c1.1,0,2-0.9,2-2c0-1.1-0.9-2-2-2c-1.1,0-2,0.9-2,2C40.4,106.5,41.3,107.4,42.4,107.4z"/>
		<path class="st2" d="M53.5,107.4c1.1,0,2-0.9,2-2c0-1.1-0.9-2-2-2c-1.1,0-2,0.9-2,2C51.5,106.5,52.4,107.4,53.5,107.4z"/>
		<path class="st2" d="M64.6,107.4c1.1,0,2-0.9,2-2c0-1.1-0.9-2-2-2s-2,0.9-2,2C62.6,106.5,63.5,107.4,64.6,107.4z"/>
		<path class="st2" d="M75.6,107.4c1.1,0,2-0.9,2-2c0-1.1-0.9-2-2-2c-1.1,0-2,0.9-2,2C73.6,106.5,74.5,107.4,75.6,107.4z"/>
		<path class="st2" d="M86.7,107.4c1.1,0,2-0.9,2-2c0-1.1-0.9-2-2-2c-1.1,0-2,0.9-2,2C84.7,106.5,85.6,107.4,86.7,107.4z"/>
		<path class="st2" d="M97.8,107.4c1.1,0,2-0.9,2-2c0-1.1-0.9-2-2-2c-1.1,0-2,0.9-2,2C95.8,106.5,96.7,107.4,97.8,107.4z"/>
		<path class="st2" d="M108.8,107.4c1.1,0,2-0.9,2-2c0-1.1-0.9-2-2-2c-1.1,0-2,0.9-2,2C106.8,106.5,107.7,107.4,108.8,107.4z"/>
		<path class="st2" d="M119.9,107.4c1.1,0,2-0.9,2-2c0-1.1-0.9-2-2-2c-1.1,0-2,0.9-2,2C117.9,106.5,118.8,107.4,119.9,107.4z"/>
		<path class="st2" d="M131,107.4c1.1,0,2-0.9,2-2c0-1.1-0.9-2-2-2c-1.1,0-2,0.9-2,2C129,106.5,129.9,107.4,131,107.4z"/>
		<path class="st2" d="M142.1,107.4c1.1,0,2-0.9,2-2c0-1.1-0.9-2-2-2c-1.1,0-2,0.9-2,2C140.1,106.5,141,107.4,142.1,107.4z"/>
		<path class="st2" d="M153.1,107.4c1.1,0,2-0.9,2-2c0-1.1-0.9-2-2-2c-1.1,0-2,0.9-2,2C151.1,106.5,152,107.4,153.1,107.4z"/>
		<path class="st2" d="M164.2,107.4c1.1,0,2-0.9,2-2c0-1.1-0.9-2-2-2c-1.1,0-2,0.9-2,2C162.2,106.5,163.1,107.4,164.2,107.4z"/>
		<path class="st2" d="M175.3,107.4c1.1,0,2-0.9,2-2c0-1.1-0.9-2-2-2c-1.1,0-2,0.9-2,2C173.3,106.5,174.2,107.4,175.3,107.4z"/>
		<path class="st2" d="M186.3,107.4c1.1,0,2-0.9,2-2c0-1.1-0.9-2-2-2c-1.1,0-2,0.9-2,2C184.3,106.5,185.2,107.4,186.3,107.4z"/>
		<path class="st2" d="M197.4,107.4c1.1,0,2-0.9,2-2c0-1.1-0.9-2-2-2c-1.1,0-2,0.9-2,2C195.4,106.5,196.3,107.4,197.4,107.4z"/>
		<path class="st2" d="M208.5,107.4c1.1,0,2-0.9,2-2c0-1.1-0.9-2-2-2c-1.1,0-2,0.9-2,2C206.5,106.5,207.4,107.4,208.5,107.4z"/>
		<path class="st2" d="M219.5,107.4c1.1,0,2-0.9,2-2c0-1.1-0.9-2-2-2c-1.1,0-2,0.9-2,2C217.5,106.5,218.4,107.4,219.5,107.4z"/>
		<path class="st2" d="M230.6,107.4c1.1,0,2-0.9,2-2c0-1.1-0.9-2-2-2c-1.1,0-2,0.9-2,2C228.6,106.5,229.5,107.4,230.6,107.4z"/>
		<path class="st2" d="M241.7,107.4c1.1,0,2-0.9,2-2c0-1.1-0.9-2-2-2c-1.1,0-2,0.9-2,2C239.7,106.5,240.6,107.4,241.7,107.4z"/>
		<path class="st2" d="M252.8,107.4c1.1,0,2-0.9,2-2c0-1.1-0.9-2-2-2c-1.1,0-2,0.9-2,2C250.8,106.5,251.7,107.4,252.8,107.4z"/>
		<path class="st2" d="M263.8,107.4c1.1,0,2-0.9,2-2c0-1.1-0.9-2-2-2c-1.1,0-2,0.9-2,2C261.8,106.5,262.7,107.4,263.8,107.4z"/>
		<path class="st2" d="M274.9,107.4c1.1,0,2-0.9,2-2c0-1.1-0.9-2-2-2c-1.1,0-2,0.9-2,2C272.9,106.5,273.8,107.4,274.9,107.4z"/>
		<path class="st2" d="M286,107.4c1.1,0,2-0.9,2-2c0-1.1-0.9-2-2-2s-2,0.9-2,2C284,106.5,284.9,107.4,286,107.4z"/>
		<path class="st2" d="M297,107.4c1.1,0,2-0.9,2-2c0-1.1-0.9-2-2-2c-1.1,0-2,0.9-2,2C295,106.5,295.9,107.4,297,107.4z"/>
		<path class="st2" d="M-7.4,118.5c1.1,0,2-0.9,2-2c0-1.1-0.9-2-2-2c-1.1,0-2,0.9-2,2C-9.4,117.6-8.5,118.5-7.4,118.5z"/>
		<path class="st2" d="M3.7,118.5c1.1,0,2-0.9,2-2c0-1.1-0.9-2-2-2c-1.1,0-2,0.9-2,2C1.7,117.6,2.6,118.5,3.7,118.5z"/>
		<path class="st2" d="M14.8,118.5c1.1,0,2-0.9,2-2c0-1.1-0.9-2-2-2c-1.1,0-2,0.9-2,2C12.8,117.6,13.6,118.5,14.8,118.5z"/>
		<path class="st2" d="M25.8,118.5c1.1,0,2-0.9,2-2c0-1.1-0.9-2-2-2c-1.1,0-2,0.9-2,2C23.8,117.6,24.7,118.5,25.8,118.5z"/>
		<path class="st2" d="M36.9,118.5c1.1,0,2-0.9,2-2c0-1.1-0.9-2-2-2c-1.1,0-2,0.9-2,2C34.9,117.6,35.8,118.5,36.9,118.5z"/>
		<path class="st2" d="M48,118.5c1.1,0,2-0.9,2-2c0-1.1-0.9-2-2-2c-1.1,0-2,0.9-2,2C46,117.6,46.9,118.5,48,118.5z"/>
		<path class="st2" d="M59,118.5c1.1,0,2-0.9,2-2c0-1.1-0.9-2-2-2c-1.1,0-2,0.9-2,2C57,117.6,57.9,118.5,59,118.5z"/>
		<path class="st2" d="M70.1,118.5c1.1,0,2-0.9,2-2c0-1.1-0.9-2-2-2c-1.1,0-2,0.9-2,2C68.1,117.6,69,118.5,70.1,118.5z"/>
		<path class="st2" d="M81.2,118.5c1.1,0,2-0.9,2-2c0-1.1-0.9-2-2-2c-1.1,0-2,0.9-2,2C79.2,117.6,80.1,118.5,81.2,118.5z"/>
		<path class="st2" d="M92.2,118.5c1.1,0,2-0.9,2-2c0-1.1-0.9-2-2-2c-1.1,0-2,0.9-2,2C90.2,117.6,91.1,118.5,92.2,118.5z"/>
		<path class="st2" d="M103.3,118.5c1.1,0,2-0.9,2-2c0-1.1-0.9-2-2-2c-1.1,0-2,0.9-2,2C101.3,117.6,102.2,118.5,103.3,118.5z"/>
		<path class="st2" d="M114.4,118.5c1.1,0,2-0.9,2-2c0-1.1-0.9-2-2-2c-1.1,0-2,0.9-2,2C112.4,117.6,113.3,118.5,114.4,118.5z"/>
		<path class="st2" d="M125.4,118.5c1.1,0,2-0.9,2-2c0-1.1-0.9-2-2-2c-1.1,0-2,0.9-2,2C123.5,117.6,124.3,118.5,125.4,118.5z"/>
		<path class="st2" d="M136.5,118.5c1.1,0,2-0.9,2-2c0-1.1-0.9-2-2-2c-1.1,0-2,0.9-2,2C134.5,117.6,135.4,118.5,136.5,118.5z"/>
		<path class="st2" d="M147.6,118.5c1.1,0,2-0.9,2-2c0-1.1-0.9-2-2-2c-1.1,0-2,0.9-2,2C145.6,117.6,146.5,118.5,147.6,118.5z"/>
		<path class="st2" d="M158.7,118.5c1.1,0,2-0.9,2-2c0-1.1-0.9-2-2-2c-1.1,0-2,0.9-2,2C156.7,117.6,157.6,118.5,158.7,118.5z"/>
		<path class="st2" d="M169.7,118.5c1.1,0,2-0.9,2-2c0-1.1-0.9-2-2-2c-1.1,0-2,0.9-2,2C167.7,117.6,168.6,118.5,169.7,118.5z"/>
		<path class="st2" d="M180.8,118.5c1.1,0,2-0.9,2-2c0-1.1-0.9-2-2-2c-1.1,0-2,0.9-2,2C178.8,117.6,179.7,118.5,180.8,118.5z"/>
		<path class="st2" d="M191.9,118.5c1.1,0,2-0.9,2-2c0-1.1-0.9-2-2-2c-1.1,0-2,0.9-2,2C189.9,117.6,190.8,118.5,191.9,118.5z"/>
		<path class="st2" d="M202.9,118.5c1.1,0,2-0.9,2-2c0-1.1-0.9-2-2-2c-1.1,0-2,0.9-2,2C200.9,117.6,201.8,118.5,202.9,118.5z"/>
		<path class="st2" d="M214,118.5c1.1,0,2-0.9,2-2c0-1.1-0.9-2-2-2c-1.1,0-2,0.9-2,2C212,117.6,212.9,118.5,214,118.5z"/>
		<path class="st2" d="M225.1,118.5c1.1,0,2-0.9,2-2c0-1.1-0.9-2-2-2c-1.1,0-2,0.9-2,2C223.1,117.6,224,118.5,225.1,118.5z"/>
		<path class="st2" d="M236.1,118.5c1.1,0,2-0.9,2-2c0-1.1-0.9-2-2-2c-1.1,0-2,0.9-2,2C234.2,117.6,235,118.5,236.1,118.5z"/>
		<path class="st2" d="M247.2,118.5c1.1,0,2-0.9,2-2c0-1.1-0.9-2-2-2c-1.1,0-2,0.9-2,2C245.2,117.6,246.1,118.5,247.2,118.5z"/>
		<path class="st2" d="M258.3,118.5c1.1,0,2-0.9,2-2c0-1.1-0.9-2-2-2c-1.1,0-2,0.9-2,2C256.3,117.6,257.2,118.5,258.3,118.5z"/>
		<path class="st2" d="M269.4,118.5c1.1,0,2-0.9,2-2c0-1.1-0.9-2-2-2c-1.1,0-2,0.9-2,2C267.4,117.6,268.3,118.5,269.4,118.5z"/>
		<path class="st2" d="M280.4,118.5c1.1,0,2-0.9,2-2c0-1.1-0.9-2-2-2c-1.1,0-2,0.9-2,2C278.4,117.6,279.3,118.5,280.4,118.5z"/>
		<path class="st2" d="M291.5,118.5c1.1,0,2-0.9,2-2c0-1.1-0.9-2-2-2c-1.1,0-2,0.9-2,2C289.5,117.6,290.4,118.5,291.5,118.5z"/>
		<path class="st2" d="M-1.9,129.5c1.1,0,2-0.9,2-2c0-1.1-0.9-2-2-2c-1.1,0-2,0.9-2,2C-3.8,128.6-3,129.5-1.9,129.5z"/>
		<path class="st2" d="M9.2,129.5c1.1,0,2-0.9,2-2c0-1.1-0.9-2-2-2c-1.1,0-2,0.9-2,2C7.2,128.6,8.1,129.5,9.2,129.5z"/>
		<path class="st2" d="M20.3,129.5c1.1,0,2-0.9,2-2c0-1.1-0.9-2-2-2c-1.1,0-2,0.9-2,2C18.3,128.6,19.2,129.5,20.3,129.5z"/>
		<path class="st2" d="M31.4,129.5c1.1,0,2-0.9,2-2c0-1.1-0.9-2-2-2c-1.1,0-2,0.9-2,2C29.4,128.6,30.3,129.5,31.4,129.5z"/>
		<path class="st2" d="M42.4,129.5c1.1,0,2-0.9,2-2c0-1.1-0.9-2-2-2c-1.1,0-2,0.9-2,2C40.4,128.6,41.3,129.5,42.4,129.5z"/>
		<path class="st2" d="M53.5,129.5c1.1,0,2-0.9,2-2c0-1.1-0.9-2-2-2c-1.1,0-2,0.9-2,2C51.5,128.6,52.4,129.5,53.5,129.5z"/>
		<path class="st2" d="M64.6,129.5c1.1,0,2-0.9,2-2c0-1.1-0.9-2-2-2s-2,0.9-2,2C62.6,128.6,63.5,129.5,64.6,129.5z"/>
		<path class="st2" d="M75.6,129.5c1.1,0,2-0.9,2-2c0-1.1-0.9-2-2-2c-1.1,0-2,0.9-2,2C73.6,128.6,74.5,129.5,75.6,129.5z"/>
		<path class="st2" d="M86.7,129.5c1.1,0,2-0.9,2-2c0-1.1-0.9-2-2-2c-1.1,0-2,0.9-2,2C84.7,128.6,85.6,129.5,86.7,129.5z"/>
		<path class="st2" d="M97.8,129.5c1.1,0,2-0.9,2-2c0-1.1-0.9-2-2-2c-1.1,0-2,0.9-2,2C95.8,128.6,96.7,129.5,97.8,129.5z"/>
		<path class="st2" d="M108.8,129.5c1.1,0,2-0.9,2-2c0-1.1-0.9-2-2-2c-1.1,0-2,0.9-2,2C106.8,128.6,107.7,129.5,108.8,129.5z"/>
		<path class="st2" d="M119.9,129.5c1.1,0,2-0.9,2-2c0-1.1-0.9-2-2-2c-1.1,0-2,0.9-2,2C117.9,128.6,118.8,129.5,119.9,129.5z"/>
		<path class="st2" d="M131,129.5c1.1,0,2-0.9,2-2c0-1.1-0.9-2-2-2c-1.1,0-2,0.9-2,2C129,128.6,129.9,129.5,131,129.5z"/>
		<path class="st2" d="M142.1,129.5c1.1,0,2-0.9,2-2c0-1.1-0.9-2-2-2c-1.1,0-2,0.9-2,2C140.1,128.6,141,129.5,142.1,129.5z"/>
		<path class="st2" d="M153.1,129.5c1.1,0,2-0.9,2-2c0-1.1-0.9-2-2-2c-1.1,0-2,0.9-2,2C151.1,128.6,152,129.5,153.1,129.5z"/>
		<path class="st2" d="M164.2,129.5c1.1,0,2-0.9,2-2c0-1.1-0.9-2-2-2c-1.1,0-2,0.9-2,2C162.2,128.6,163.1,129.5,164.2,129.5z"/>
		<path class="st2" d="M175.3,129.5c1.1,0,2-0.9,2-2c0-1.1-0.9-2-2-2c-1.1,0-2,0.9-2,2C173.3,128.6,174.2,129.5,175.3,129.5z"/>
		<path class="st2" d="M186.3,129.5c1.1,0,2-0.9,2-2c0-1.1-0.9-2-2-2c-1.1,0-2,0.9-2,2C184.3,128.6,185.2,129.5,186.3,129.5z"/>
		<path class="st2" d="M197.4,129.5c1.1,0,2-0.9,2-2c0-1.1-0.9-2-2-2c-1.1,0-2,0.9-2,2C195.4,128.6,196.3,129.5,197.4,129.5z"/>
		<path class="st2" d="M208.5,129.5c1.1,0,2-0.9,2-2c0-1.1-0.9-2-2-2c-1.1,0-2,0.9-2,2C206.5,128.6,207.4,129.5,208.5,129.5z"/>
		<path class="st2" d="M219.5,129.5c1.1,0,2-0.9,2-2c0-1.1-0.9-2-2-2c-1.1,0-2,0.9-2,2C217.5,128.6,218.4,129.5,219.5,129.5z"/>
		<path class="st2" d="M230.6,129.5c1.1,0,2-0.9,2-2c0-1.1-0.9-2-2-2c-1.1,0-2,0.9-2,2C228.6,128.6,229.5,129.5,230.6,129.5z"/>
		<path class="st2" d="M241.7,129.5c1.1,0,2-0.9,2-2c0-1.1-0.9-2-2-2c-1.1,0-2,0.9-2,2C239.7,128.6,240.6,129.5,241.7,129.5z"/>
		<path class="st2" d="M252.8,129.5c1.1,0,2-0.9,2-2c0-1.1-0.9-2-2-2c-1.1,0-2,0.9-2,2C250.8,128.6,251.7,129.5,252.8,129.5z"/>
		<path class="st2" d="M263.8,129.5c1.1,0,2-0.9,2-2c0-1.1-0.9-2-2-2c-1.1,0-2,0.9-2,2C261.8,128.6,262.7,129.5,263.8,129.5z"/>
		<path class="st2" d="M274.9,129.5c1.1,0,2-0.9,2-2c0-1.1-0.9-2-2-2c-1.1,0-2,0.9-2,2C272.9,128.6,273.8,129.5,274.9,129.5z"/>
		<path class="st2" d="M286,129.5c1.1,0,2-0.9,2-2c0-1.1-0.9-2-2-2s-2,0.9-2,2C284,128.6,284.9,129.5,286,129.5z"/>
		<path class="st2" d="M297,129.5c1.1,0,2-0.9,2-2c0-1.1-0.9-2-2-2c-1.1,0-2,0.9-2,2C295,128.6,295.9,129.5,297,129.5z"/>
		<path class="st2" d="M-7.4,140.6c1.1,0,2-0.9,2-2c0-1.1-0.9-2-2-2c-1.1,0-2,0.9-2,2C-9.4,139.7-8.5,140.6-7.4,140.6z"/>
		<path class="st2" d="M3.7,140.6c1.1,0,2-0.9,2-2c0-1.1-0.9-2-2-2c-1.1,0-2,0.9-2,2C1.7,139.7,2.6,140.6,3.7,140.6z"/>
		<path class="st2" d="M14.8,140.6c1.1,0,2-0.9,2-2c0-1.1-0.9-2-2-2c-1.1,0-2,0.9-2,2C12.8,139.7,13.6,140.6,14.8,140.6z"/>
		<path class="st2" d="M25.8,140.6c1.1,0,2-0.9,2-2c0-1.1-0.9-2-2-2c-1.1,0-2,0.9-2,2C23.8,139.7,24.7,140.6,25.8,140.6z"/>
		<path class="st2" d="M36.9,140.6c1.1,0,2-0.9,2-2c0-1.1-0.9-2-2-2c-1.1,0-2,0.9-2,2C34.9,139.7,35.8,140.6,36.9,140.6z"/>
		<path class="st2" d="M48,140.6c1.1,0,2-0.9,2-2c0-1.1-0.9-2-2-2c-1.1,0-2,0.9-2,2C46,139.7,46.9,140.6,48,140.6z"/>
		<path class="st2" d="M59,140.6c1.1,0,2-0.9,2-2c0-1.1-0.9-2-2-2c-1.1,0-2,0.9-2,2C57,139.7,57.9,140.6,59,140.6z"/>
		<path class="st2" d="M70.1,140.6c1.1,0,2-0.9,2-2c0-1.1-0.9-2-2-2c-1.1,0-2,0.9-2,2C68.1,139.7,69,140.6,70.1,140.6z"/>
		<path class="st2" d="M81.2,140.6c1.1,0,2-0.9,2-2c0-1.1-0.9-2-2-2c-1.1,0-2,0.9-2,2C79.2,139.7,80.1,140.6,81.2,140.6z"/>
		<path class="st2" d="M92.2,140.6c1.1,0,2-0.9,2-2c0-1.1-0.9-2-2-2c-1.1,0-2,0.9-2,2C90.2,139.7,91.1,140.6,92.2,140.6z"/>
		<path class="st2" d="M103.3,140.6c1.1,0,2-0.9,2-2c0-1.1-0.9-2-2-2c-1.1,0-2,0.9-2,2C101.3,139.7,102.2,140.6,103.3,140.6z"/>
		<path class="st2" d="M114.4,140.6c1.1,0,2-0.9,2-2c0-1.1-0.9-2-2-2c-1.1,0-2,0.9-2,2C112.4,139.7,113.3,140.6,114.4,140.6z"/>
		<path class="st2" d="M125.4,140.6c1.1,0,2-0.9,2-2c0-1.1-0.9-2-2-2c-1.1,0-2,0.9-2,2C123.5,139.7,124.3,140.6,125.4,140.6z"/>
		<path class="st2" d="M136.5,140.6c1.1,0,2-0.9,2-2c0-1.1-0.9-2-2-2c-1.1,0-2,0.9-2,2C134.5,139.7,135.4,140.6,136.5,140.6z"/>
		<path class="st2" d="M147.6,140.6c1.1,0,2-0.9,2-2c0-1.1-0.9-2-2-2c-1.1,0-2,0.9-2,2C145.6,139.7,146.5,140.6,147.6,140.6z"/>
		<path class="st2" d="M158.7,140.6c1.1,0,2-0.9,2-2c0-1.1-0.9-2-2-2c-1.1,0-2,0.9-2,2C156.7,139.7,157.6,140.6,158.7,140.6z"/>
		<path class="st2" d="M169.7,140.6c1.1,0,2-0.9,2-2c0-1.1-0.9-2-2-2c-1.1,0-2,0.9-2,2C167.7,139.7,168.6,140.6,169.7,140.6z"/>
		<path class="st2" d="M180.8,140.6c1.1,0,2-0.9,2-2c0-1.1-0.9-2-2-2c-1.1,0-2,0.9-2,2C178.8,139.7,179.7,140.6,180.8,140.6z"/>
		<path class="st2" d="M191.9,140.6c1.1,0,2-0.9,2-2c0-1.1-0.9-2-2-2c-1.1,0-2,0.9-2,2C189.9,139.7,190.8,140.6,191.9,140.6z"/>
		<path class="st2" d="M202.9,140.6c1.1,0,2-0.9,2-2c0-1.1-0.9-2-2-2c-1.1,0-2,0.9-2,2C200.9,139.7,201.8,140.6,202.9,140.6z"/>
		<path class="st2" d="M214,140.6c1.1,0,2-0.9,2-2c0-1.1-0.9-2-2-2c-1.1,0-2,0.9-2,2C212,139.7,212.9,140.6,214,140.6z"/>
		<path class="st2" d="M225.1,140.6c1.1,0,2-0.9,2-2c0-1.1-0.9-2-2-2c-1.1,0-2,0.9-2,2C223.1,139.7,224,140.6,225.1,140.6z"/>
		<path class="st2" d="M236.1,140.6c1.1,0,2-0.9,2-2c0-1.1-0.9-2-2-2c-1.1,0-2,0.9-2,2C234.2,139.7,235,140.6,236.1,140.6z"/>
		<path class="st2" d="M247.2,140.6c1.1,0,2-0.9,2-2c0-1.1-0.9-2-2-2c-1.1,0-2,0.9-2,2C245.2,139.7,246.1,140.6,247.2,140.6z"/>
		<path class="st2" d="M258.3,140.6c1.1,0,2-0.9,2-2c0-1.1-0.9-2-2-2c-1.1,0-2,0.9-2,2C256.3,139.7,257.2,140.6,258.3,140.6z"/>
		<path class="st2" d="M269.4,140.6c1.1,0,2-0.9,2-2c0-1.1-0.9-2-2-2c-1.1,0-2,0.9-2,2C267.4,139.7,268.3,140.6,269.4,140.6z"/>
		<path class="st2" d="M280.4,140.6c1.1,0,2-0.9,2-2c0-1.1-0.9-2-2-2c-1.1,0-2,0.9-2,2C278.4,139.7,279.3,140.6,280.4,140.6z"/>
		<path class="st2" d="M291.5,140.6c1.1,0,2-0.9,2-2c0-1.1-0.9-2-2-2c-1.1,0-2,0.9-2,2C289.5,139.7,290.4,140.6,291.5,140.6z"/>
		<path class="st2" d="M-1.9,151.7c1.1,0,2-0.9,2-2c0-1.1-0.9-2-2-2c-1.1,0-2,0.9-2,2C-3.8,150.8-3,151.7-1.9,151.7z"/>
		<path class="st2" d="M9.2,151.7c1.1,0,2-0.9,2-2c0-1.1-0.9-2-2-2c-1.1,0-2,0.9-2,2C7.2,150.8,8.1,151.7,9.2,151.7z"/>
		<path class="st2" d="M20.3,151.7c1.1,0,2-0.9,2-2c0-1.1-0.9-2-2-2c-1.1,0-2,0.9-2,2C18.3,150.8,19.2,151.7,20.3,151.7z"/>
		<path class="st2" d="M31.4,151.7c1.1,0,2-0.9,2-2c0-1.1-0.9-2-2-2c-1.1,0-2,0.9-2,2C29.4,150.8,30.3,151.7,31.4,151.7z"/>
		<path class="st2" d="M42.4,151.7c1.1,0,2-0.9,2-2c0-1.1-0.9-2-2-2c-1.1,0-2,0.9-2,2C40.4,150.8,41.3,151.7,42.4,151.7z"/>
		<path class="st2" d="M53.5,151.7c1.1,0,2-0.9,2-2c0-1.1-0.9-2-2-2c-1.1,0-2,0.9-2,2C51.5,150.8,52.4,151.7,53.5,151.7z"/>
		<path class="st2" d="M64.6,151.7c1.1,0,2-0.9,2-2c0-1.1-0.9-2-2-2s-2,0.9-2,2C62.6,150.8,63.5,151.7,64.6,151.7z"/>
		<path class="st2" d="M75.6,151.7c1.1,0,2-0.9,2-2c0-1.1-0.9-2-2-2c-1.1,0-2,0.9-2,2C73.6,150.8,74.5,151.7,75.6,151.7z"/>
		<path class="st2" d="M86.7,151.7c1.1,0,2-0.9,2-2c0-1.1-0.9-2-2-2c-1.1,0-2,0.9-2,2C84.7,150.8,85.6,151.7,86.7,151.7z"/>
		<path class="st2" d="M97.8,151.7c1.1,0,2-0.9,2-2c0-1.1-0.9-2-2-2c-1.1,0-2,0.9-2,2C95.8,150.8,96.7,151.7,97.8,151.7z"/>
		<path class="st2" d="M108.8,151.7c1.1,0,2-0.9,2-2c0-1.1-0.9-2-2-2c-1.1,0-2,0.9-2,2C106.8,150.8,107.7,151.7,108.8,151.7z"/>
		<path class="st2" d="M119.9,151.7c1.1,0,2-0.9,2-2c0-1.1-0.9-2-2-2c-1.1,0-2,0.9-2,2C117.9,150.8,118.8,151.7,119.9,151.7z"/>
		<path class="st2" d="M131,151.7c1.1,0,2-0.9,2-2c0-1.1-0.9-2-2-2c-1.1,0-2,0.9-2,2C129,150.8,129.9,151.7,131,151.7z"/>
		<path class="st2" d="M142.1,151.7c1.1,0,2-0.9,2-2c0-1.1-0.9-2-2-2c-1.1,0-2,0.9-2,2C140.1,150.8,141,151.7,142.1,151.7z"/>
		<path class="st2" d="M153.1,151.7c1.1,0,2-0.9,2-2c0-1.1-0.9-2-2-2c-1.1,0-2,0.9-2,2C151.1,150.8,152,151.7,153.1,151.7z"/>
		<path class="st2" d="M164.2,151.7c1.1,0,2-0.9,2-2c0-1.1-0.9-2-2-2c-1.1,0-2,0.9-2,2C162.2,150.8,163.1,151.7,164.2,151.7z"/>
		<path class="st2" d="M175.3,151.7c1.1,0,2-0.9,2-2c0-1.1-0.9-2-2-2c-1.1,0-2,0.9-2,2C173.3,150.8,174.2,151.7,175.3,151.7z"/>
		<path class="st2" d="M186.3,151.7c1.1,0,2-0.9,2-2c0-1.1-0.9-2-2-2c-1.1,0-2,0.9-2,2C184.3,150.8,185.2,151.7,186.3,151.7z"/>
		<path class="st2" d="M197.4,151.7c1.1,0,2-0.9,2-2c0-1.1-0.9-2-2-2c-1.1,0-2,0.9-2,2C195.4,150.8,196.3,151.7,197.4,151.7z"/>
		<path class="st2" d="M208.5,151.7c1.1,0,2-0.9,2-2c0-1.1-0.9-2-2-2c-1.1,0-2,0.9-2,2C206.5,150.8,207.4,151.7,208.5,151.7z"/>
		<path class="st2" d="M219.5,151.7c1.1,0,2-0.9,2-2c0-1.1-0.9-2-2-2c-1.1,0-2,0.9-2,2C217.5,150.8,218.4,151.7,219.5,151.7z"/>
		<path class="st2" d="M230.6,151.7c1.1,0,2-0.9,2-2c0-1.1-0.9-2-2-2c-1.1,0-2,0.9-2,2C228.6,150.8,229.5,151.7,230.6,151.7z"/>
		<path class="st2" d="M241.7,151.7c1.1,0,2-0.9,2-2c0-1.1-0.9-2-2-2c-1.1,0-2,0.9-2,2C239.7,150.8,240.6,151.7,241.7,151.7z"/>
		<path class="st2" d="M252.8,151.7c1.1,0,2-0.9,2-2c0-1.1-0.9-2-2-2c-1.1,0-2,0.9-2,2C250.8,150.8,251.7,151.7,252.8,151.7z"/>
		<path class="st2" d="M263.8,151.7c1.1,0,2-0.9,2-2c0-1.1-0.9-2-2-2c-1.1,0-2,0.9-2,2C261.8,150.8,262.7,151.7,263.8,151.7z"/>
		<path class="st2" d="M274.9,151.7c1.1,0,2-0.9,2-2c0-1.1-0.9-2-2-2c-1.1,0-2,0.9-2,2C272.9,150.8,273.8,151.7,274.9,151.7z"/>
		<path class="st2" d="M286,151.7c1.1,0,2-0.9,2-2c0-1.1-0.9-2-2-2s-2,0.9-2,2C284,150.8,284.9,151.7,286,151.7z"/>
		<path class="st2" d="M297,151.7c1.1,0,2-0.9,2-2c0-1.1-0.9-2-2-2c-1.1,0-2,0.9-2,2C295,150.8,295.9,151.7,297,151.7z"/>
		<path class="st2" d="M-7.4,162.7c1.1,0,2-0.9,2-2c0-1.1-0.9-2-2-2c-1.1,0-2,0.9-2,2C-9.4,161.8-8.5,162.7-7.4,162.7z"/>
		<path class="st2" d="M3.7,162.7c1.1,0,2-0.9,2-2c0-1.1-0.9-2-2-2c-1.1,0-2,0.9-2,2C1.7,161.8,2.6,162.7,3.7,162.7z"/>
		<path class="st2" d="M14.8,162.7c1.1,0,2-0.9,2-2c0-1.1-0.9-2-2-2c-1.1,0-2,0.9-2,2C12.8,161.8,13.6,162.7,14.8,162.7z"/>
		<path class="st2" d="M25.8,162.7c1.1,0,2-0.9,2-2c0-1.1-0.9-2-2-2c-1.1,0-2,0.9-2,2C23.8,161.8,24.7,162.7,25.8,162.7z"/>
		<path class="st2" d="M36.9,162.7c1.1,0,2-0.9,2-2c0-1.1-0.9-2-2-2c-1.1,0-2,0.9-2,2C34.9,161.8,35.8,162.7,36.9,162.7z"/>
		<path class="st2" d="M48,162.7c1.1,0,2-0.9,2-2c0-1.1-0.9-2-2-2c-1.1,0-2,0.9-2,2C46,161.8,46.9,162.7,48,162.7z"/>
		<path class="st2" d="M59,162.7c1.1,0,2-0.9,2-2c0-1.1-0.9-2-2-2c-1.1,0-2,0.9-2,2C57,161.8,57.9,162.7,59,162.7z"/>
		<path class="st2" d="M70.1,162.7c1.1,0,2-0.9,2-2c0-1.1-0.9-2-2-2c-1.1,0-2,0.9-2,2C68.1,161.8,69,162.7,70.1,162.7z"/>
		<path class="st2" d="M81.2,162.7c1.1,0,2-0.9,2-2c0-1.1-0.9-2-2-2c-1.1,0-2,0.9-2,2C79.2,161.8,80.1,162.7,81.2,162.7z"/>
		<path class="st2" d="M92.2,162.7c1.1,0,2-0.9,2-2c0-1.1-0.9-2-2-2c-1.1,0-2,0.9-2,2C90.2,161.8,91.1,162.7,92.2,162.7z"/>
		<path class="st2" d="M103.3,162.7c1.1,0,2-0.9,2-2c0-1.1-0.9-2-2-2c-1.1,0-2,0.9-2,2C101.3,161.8,102.2,162.7,103.3,162.7z"/>
		<path class="st2" d="M114.4,162.7c1.1,0,2-0.9,2-2c0-1.1-0.9-2-2-2c-1.1,0-2,0.9-2,2C112.4,161.8,113.3,162.7,114.4,162.7z"/>
		<path class="st2" d="M125.4,162.7c1.1,0,2-0.9,2-2c0-1.1-0.9-2-2-2c-1.1,0-2,0.9-2,2C123.5,161.8,124.3,162.7,125.4,162.7z"/>
		<path class="st2" d="M136.5,162.7c1.1,0,2-0.9,2-2c0-1.1-0.9-2-2-2c-1.1,0-2,0.9-2,2C134.5,161.8,135.4,162.7,136.5,162.7z"/>
		<path class="st2" d="M147.6,162.7c1.1,0,2-0.9,2-2c0-1.1-0.9-2-2-2c-1.1,0-2,0.9-2,2C145.6,161.8,146.5,162.7,147.6,162.7z"/>
		<path class="st2" d="M158.7,162.7c1.1,0,2-0.9,2-2c0-1.1-0.9-2-2-2c-1.1,0-2,0.9-2,2C156.7,161.8,157.6,162.7,158.7,162.7z"/>
		<path class="st2" d="M169.7,162.7c1.1,0,2-0.9,2-2c0-1.1-0.9-2-2-2c-1.1,0-2,0.9-2,2C167.7,161.8,168.6,162.7,169.7,162.7z"/>
		<path class="st2" d="M180.8,162.7c1.1,0,2-0.9,2-2c0-1.1-0.9-2-2-2c-1.1,0-2,0.9-2,2C178.8,161.8,179.7,162.7,180.8,162.7z"/>
		<path class="st2" d="M191.9,162.7c1.1,0,2-0.9,2-2c0-1.1-0.9-2-2-2c-1.1,0-2,0.9-2,2C189.9,161.8,190.8,162.7,191.9,162.7z"/>
		<path class="st2" d="M202.9,162.7c1.1,0,2-0.9,2-2c0-1.1-0.9-2-2-2c-1.1,0-2,0.9-2,2C200.9,161.8,201.8,162.7,202.9,162.7z"/>
		<path class="st2" d="M214,162.7c1.1,0,2-0.9,2-2c0-1.1-0.9-2-2-2c-1.1,0-2,0.9-2,2C212,161.8,212.9,162.7,214,162.7z"/>
		<path class="st2" d="M225.1,162.7c1.1,0,2-0.9,2-2c0-1.1-0.9-2-2-2c-1.1,0-2,0.9-2,2C223.1,161.8,224,162.7,225.1,162.7z"/>
		<path class="st2" d="M236.1,162.7c1.1,0,2-0.9,2-2c0-1.1-0.9-2-2-2c-1.1,0-2,0.9-2,2C234.2,161.8,235,162.7,236.1,162.7z"/>
		<path class="st2" d="M247.2,162.7c1.1,0,2-0.9,2-2c0-1.1-0.9-2-2-2c-1.1,0-2,0.9-2,2C245.2,161.8,246.1,162.7,247.2,162.7z"/>
		<path class="st2" d="M258.3,162.7c1.1,0,2-0.9,2-2c0-1.1-0.9-2-2-2c-1.1,0-2,0.9-2,2C256.3,161.8,257.2,162.7,258.3,162.7z"/>
		<path class="st2" d="M269.4,162.7c1.1,0,2-0.9,2-2c0-1.1-0.9-2-2-2c-1.1,0-2,0.9-2,2C267.4,161.8,268.3,162.7,269.4,162.7z"/>
		<path class="st2" d="M280.4,162.7c1.1,0,2-0.9,2-2c0-1.1-0.9-2-2-2c-1.1,0-2,0.9-2,2C278.4,161.8,279.3,162.7,280.4,162.7z"/>
		<path class="st2" d="M291.5,162.7c1.1,0,2-0.9,2-2c0-1.1-0.9-2-2-2c-1.1,0-2,0.9-2,2C289.5,161.8,290.4,162.7,291.5,162.7z"/>
		<path class="st2" d="M-1.9,173.8c1.1,0,2-0.9,2-2c0-1.1-0.9-2-2-2c-1.1,0-2,0.9-2,2C-3.8,172.9-3,173.8-1.9,173.8z"/>
		<path class="st2" d="M9.2,173.8c1.1,0,2-0.9,2-2c0-1.1-0.9-2-2-2c-1.1,0-2,0.9-2,2C7.2,172.9,8.1,173.8,9.2,173.8z"/>
		<path class="st2" d="M20.3,173.8c1.1,0,2-0.9,2-2c0-1.1-0.9-2-2-2c-1.1,0-2,0.9-2,2C18.3,172.9,19.2,173.8,20.3,173.8z"/>
		<circle class="st2" cx="31.4" cy="171.8" r="2"/>
		<path class="st2" d="M42.4,173.8c1.1,0,2-0.9,2-2c0-1.1-0.9-2-2-2c-1.1,0-2,0.9-2,2C40.4,172.9,41.3,173.8,42.4,173.8z"/>
		<path class="st2" d="M53.5,173.8c1.1,0,2-0.9,2-2c0-1.1-0.9-2-2-2c-1.1,0-2,0.9-2,2C51.5,172.9,52.4,173.8,53.5,173.8z"/>
		<path class="st2" d="M64.6,173.8c1.1,0,2-0.9,2-2c0-1.1-0.9-2-2-2s-2,0.9-2,2C62.6,172.9,63.5,173.8,64.6,173.8z"/>
		<path class="st2" d="M75.6,173.8c1.1,0,2-0.9,2-2c0-1.1-0.9-2-2-2c-1.1,0-2,0.9-2,2C73.6,172.9,74.5,173.8,75.6,173.8z"/>
		<circle class="st2" cx="86.7" cy="171.8" r="2"/>
		<path class="st2" d="M97.8,173.8c1.1,0,2-0.9,2-2c0-1.1-0.9-2-2-2c-1.1,0-2,0.9-2,2C95.8,172.9,96.7,173.8,97.8,173.8z"/>
		<circle class="st2" cx="108.8" cy="171.8" r="2"/>
		<circle class="st2" cx="119.9" cy="171.8" r="2"/>
		<path class="st2" d="M131,173.8c1.1,0,2-0.9,2-2c0-1.1-0.9-2-2-2c-1.1,0-2,0.9-2,2C129,172.9,129.9,173.8,131,173.8z"/>
		<path class="st2" d="M142.1,173.8c1.1,0,2-0.9,2-2c0-1.1-0.9-2-2-2c-1.1,0-2,0.9-2,2C140.1,172.9,141,173.8,142.1,173.8z"/>
		<path class="st2" d="M153.1,173.8c1.1,0,2-0.9,2-2c0-1.1-0.9-2-2-2c-1.1,0-2,0.9-2,2C151.1,172.9,152,173.8,153.1,173.8z"/>
		<circle class="st2" cx="164.2" cy="171.8" r="2"/>
		<path class="st2" d="M175.3,173.8c1.1,0,2-0.9,2-2c0-1.1-0.9-2-2-2c-1.1,0-2,0.9-2,2C173.3,172.9,174.2,173.8,175.3,173.8z"/>
		<path class="st2" d="M186.3,173.8c1.1,0,2-0.9,2-2c0-1.1-0.9-2-2-2c-1.1,0-2,0.9-2,2C184.3,172.9,185.2,173.8,186.3,173.8z"/>
		<path class="st2" d="M197.4,173.8c1.1,0,2-0.9,2-2c0-1.1-0.9-2-2-2c-1.1,0-2,0.9-2,2C195.4,172.9,196.3,173.8,197.4,173.8z"/>
		<path class="st2" d="M208.5,173.8c1.1,0,2-0.9,2-2c0-1.1-0.9-2-2-2c-1.1,0-2,0.9-2,2C206.5,172.9,207.4,173.8,208.5,173.8z"/>
		<path class="st2" d="M219.5,173.8c1.1,0,2-0.9,2-2c0-1.1-0.9-2-2-2c-1.1,0-2,0.9-2,2C217.5,172.9,218.4,173.8,219.5,173.8z"/>
		<path class="st2" d="M230.6,173.8c1.1,0,2-0.9,2-2c0-1.1-0.9-2-2-2c-1.1,0-2,0.9-2,2C228.6,172.9,229.5,173.8,230.6,173.8z"/>
		<path class="st2" d="M241.7,173.8c1.1,0,2-0.9,2-2c0-1.1-0.9-2-2-2c-1.1,0-2,0.9-2,2C239.7,172.9,240.6,173.8,241.7,173.8z"/>
		<circle class="st2" cx="252.8" cy="171.8" r="2"/>
		<path class="st2" d="M263.8,173.8c1.1,0,2-0.9,2-2c0-1.1-0.9-2-2-2c-1.1,0-2,0.9-2,2C261.8,172.9,262.7,173.8,263.8,173.8z"/>
		<path class="st2" d="M274.9,173.8c1.1,0,2-0.9,2-2c0-1.1-0.9-2-2-2c-1.1,0-2,0.9-2,2C272.9,172.9,273.8,173.8,274.9,173.8z"/>
		<path class="st2" d="M286,173.8c1.1,0,2-0.9,2-2c0-1.1-0.9-2-2-2s-2,0.9-2,2C284,172.9,284.9,173.8,286,173.8z"/>
		<path class="st2" d="M297,173.8c1.1,0,2-0.9,2-2c0-1.1-0.9-2-2-2c-1.1,0-2,0.9-2,2C295,172.9,295.9,173.8,297,173.8z"/>
		<path class="st2" d="M-7.4,184.9c1.1,0,2-0.9,2-2c0-1.1-0.9-2-2-2c-1.1,0-2,0.9-2,2C-9.4,184-8.5,184.9-7.4,184.9z"/>
		<path class="st2" d="M3.7,184.9c1.1,0,2-0.9,2-2c0-1.1-0.9-2-2-2c-1.1,0-2,0.9-2,2C1.7,184,2.6,184.9,3.7,184.9z"/>
		<path class="st2" d="M14.8,184.9c1.1,0,2-0.9,2-2c0-1.1-0.9-2-2-2c-1.1,0-2,0.9-2,2C12.8,184,13.6,184.9,14.8,184.9z"/>
		<path class="st2" d="M25.8,184.9c1.1,0,2-0.9,2-2c0-1.1-0.9-2-2-2c-1.1,0-2,0.9-2,2C23.8,184,24.7,184.9,25.8,184.9z"/>
		<path class="st2" d="M36.9,184.9c1.1,0,2-0.9,2-2c0-1.1-0.9-2-2-2c-1.1,0-2,0.9-2,2C34.9,184,35.8,184.9,36.9,184.9z"/>
		<path class="st2" d="M48,184.9c1.1,0,2-0.9,2-2c0-1.1-0.9-2-2-2c-1.1,0-2,0.9-2,2C46,184,46.9,184.9,48,184.9z"/>
		<path class="st2" d="M59,184.9c1.1,0,2-0.9,2-2c0-1.1-0.9-2-2-2c-1.1,0-2,0.9-2,2C57,184,57.9,184.9,59,184.9z"/>
		<path class="st2" d="M70.1,184.9c1.1,0,2-0.9,2-2c0-1.1-0.9-2-2-2c-1.1,0-2,0.9-2,2C68.1,184,69,184.9,70.1,184.9z"/>
		<path class="st2" d="M81.2,184.9c1.1,0,2-0.9,2-2c0-1.1-0.9-2-2-2c-1.1,0-2,0.9-2,2C79.2,184,80.1,184.9,81.2,184.9z"/>
		<path class="st2" d="M92.2,184.9c1.1,0,2-0.9,2-2c0-1.1-0.9-2-2-2c-1.1,0-2,0.9-2,2C90.2,184,91.1,184.9,92.2,184.9z"/>
		<path class="st2" d="M103.3,184.9c1.1,0,2-0.9,2-2c0-1.1-0.9-2-2-2c-1.1,0-2,0.9-2,2C101.3,184,102.2,184.9,103.3,184.9z"/>
		<path class="st2" d="M114.4,184.9c1.1,0,2-0.9,2-2c0-1.1-0.9-2-2-2c-1.1,0-2,0.9-2,2C112.4,184,113.3,184.9,114.4,184.9z"/>
		<path class="st2" d="M125.4,184.9c1.1,0,2-0.9,2-2c0-1.1-0.9-2-2-2c-1.1,0-2,0.9-2,2C123.5,184,124.3,184.9,125.4,184.9z"/>
		<path class="st2" d="M136.5,184.9c1.1,0,2-0.9,2-2c0-1.1-0.9-2-2-2c-1.1,0-2,0.9-2,2C134.5,184,135.4,184.9,136.5,184.9z"/>
		<path class="st2" d="M147.6,184.9c1.1,0,2-0.9,2-2c0-1.1-0.9-2-2-2c-1.1,0-2,0.9-2,2C145.6,184,146.5,184.9,147.6,184.9z"/>
		<path class="st2" d="M158.7,184.9c1.1,0,2-0.9,2-2c0-1.1-0.9-2-2-2c-1.1,0-2,0.9-2,2C156.7,184,157.6,184.9,158.7,184.9z"/>
		<path class="st2" d="M169.7,184.9c1.1,0,2-0.9,2-2c0-1.1-0.9-2-2-2c-1.1,0-2,0.9-2,2C167.7,184,168.6,184.9,169.7,184.9z"/>
		<path class="st2" d="M180.8,184.9c1.1,0,2-0.9,2-2c0-1.1-0.9-2-2-2c-1.1,0-2,0.9-2,2C178.8,184,179.7,184.9,180.8,184.9z"/>
		<path class="st2" d="M191.9,184.9c1.1,0,2-0.9,2-2c0-1.1-0.9-2-2-2c-1.1,0-2,0.9-2,2C189.9,184,190.8,184.9,191.9,184.9z"/>
		<path class="st2" d="M202.9,184.9c1.1,0,2-0.9,2-2c0-1.1-0.9-2-2-2c-1.1,0-2,0.9-2,2C200.9,184,201.8,184.9,202.9,184.9z"/>
		<path class="st2" d="M214,184.9c1.1,0,2-0.9,2-2c0-1.1-0.9-2-2-2c-1.1,0-2,0.9-2,2C212,184,212.9,184.9,214,184.9z"/>
		<path class="st2" d="M225.1,184.9c1.1,0,2-0.9,2-2c0-1.1-0.9-2-2-2c-1.1,0-2,0.9-2,2C223.1,184,224,184.9,225.1,184.9z"/>
		<path class="st2" d="M236.1,184.9c1.1,0,2-0.9,2-2c0-1.1-0.9-2-2-2c-1.1,0-2,0.9-2,2C234.2,184,235,184.9,236.1,184.9z"/>
		<path class="st2" d="M247.2,184.9c1.1,0,2-0.9,2-2c0-1.1-0.9-2-2-2c-1.1,0-2,0.9-2,2C245.2,184,246.1,184.9,247.2,184.9z"/>
		<path class="st2" d="M258.3,184.9c1.1,0,2-0.9,2-2c0-1.1-0.9-2-2-2c-1.1,0-2,0.9-2,2C256.3,184,257.2,184.9,258.3,184.9z"/>
		<path class="st2" d="M269.4,184.9c1.1,0,2-0.9,2-2c0-1.1-0.9-2-2-2c-1.1,0-2,0.9-2,2C267.4,184,268.3,184.9,269.4,184.9z"/>
		<path class="st2" d="M280.4,184.9c1.1,0,2-0.9,2-2c0-1.1-0.9-2-2-2c-1.1,0-2,0.9-2,2C278.4,184,279.3,184.9,280.4,184.9z"/>
		<path class="st2" d="M291.5,184.9c1.1,0,2-0.9,2-2c0-1.1-0.9-2-2-2c-1.1,0-2,0.9-2,2C289.5,184,290.4,184.9,291.5,184.9z"/>
		<path class="st2" d="M-1.9,195.9c1.1,0,2-0.9,2-2c0-1.1-0.9-2-2-2c-1.1,0-2,0.9-2,2C-3.8,195-3,195.9-1.9,195.9z"/>
		<path class="st2" d="M9.2,195.9c1.1,0,2-0.9,2-2c0-1.1-0.9-2-2-2c-1.1,0-2,0.9-2,2C7.2,195,8.1,195.9,9.2,195.9z"/>
		<path class="st2" d="M20.3,195.9c1.1,0,2-0.9,2-2c0-1.1-0.9-2-2-2c-1.1,0-2,0.9-2,2C18.3,195,19.2,195.9,20.3,195.9z"/>
		<path class="st2" d="M31.4,195.9c1.1,0,2-0.9,2-2c0-1.1-0.9-2-2-2c-1.1,0-2,0.9-2,2C29.4,195,30.3,195.9,31.4,195.9z"/>
		<path class="st2" d="M42.4,195.9c1.1,0,2-0.9,2-2c0-1.1-0.9-2-2-2c-1.1,0-2,0.9-2,2C40.4,195,41.3,195.9,42.4,195.9z"/>
		<path class="st2" d="M53.5,195.9c1.1,0,2-0.9,2-2c0-1.1-0.9-2-2-2c-1.1,0-2,0.9-2,2C51.5,195,52.4,195.9,53.5,195.9z"/>
		<path class="st2" d="M64.6,195.9c1.1,0,2-0.9,2-2c0-1.1-0.9-2-2-2s-2,0.9-2,2C62.6,195,63.5,195.9,64.6,195.9z"/>
		<path class="st2" d="M75.6,195.9c1.1,0,2-0.9,2-2c0-1.1-0.9-2-2-2c-1.1,0-2,0.9-2,2C73.6,195,74.5,195.9,75.6,195.9z"/>
		<path class="st2" d="M86.7,195.9c1.1,0,2-0.9,2-2c0-1.1-0.9-2-2-2c-1.1,0-2,0.9-2,2C84.7,195,85.6,195.9,86.7,195.9z"/>
		<path class="st2" d="M97.8,195.9c1.1,0,2-0.9,2-2c0-1.1-0.9-2-2-2c-1.1,0-2,0.9-2,2C95.8,195,96.7,195.9,97.8,195.9z"/>
		<path class="st2" d="M108.8,195.9c1.1,0,2-0.9,2-2c0-1.1-0.9-2-2-2c-1.1,0-2,0.9-2,2C106.8,195,107.7,195.9,108.8,195.9z"/>
		<path class="st2" d="M119.9,195.9c1.1,0,2-0.9,2-2c0-1.1-0.9-2-2-2c-1.1,0-2,0.9-2,2C117.9,195,118.8,195.9,119.9,195.9z"/>
		<path class="st2" d="M131,195.9c1.1,0,2-0.9,2-2c0-1.1-0.9-2-2-2c-1.1,0-2,0.9-2,2C129,195,129.9,195.9,131,195.9z"/>
		<path class="st2" d="M142.1,195.9c1.1,0,2-0.9,2-2c0-1.1-0.9-2-2-2c-1.1,0-2,0.9-2,2C140.1,195,141,195.9,142.1,195.9z"/>
		<path class="st2" d="M153.1,195.9c1.1,0,2-0.9,2-2c0-1.1-0.9-2-2-2c-1.1,0-2,0.9-2,2C151.1,195,152,195.9,153.1,195.9z"/>
		<path class="st2" d="M164.2,195.9c1.1,0,2-0.9,2-2c0-1.1-0.9-2-2-2c-1.1,0-2,0.9-2,2C162.2,195,163.1,195.9,164.2,195.9z"/>
		<path class="st2" d="M175.3,195.9c1.1,0,2-0.9,2-2c0-1.1-0.9-2-2-2c-1.1,0-2,0.9-2,2C173.3,195,174.2,195.9,175.3,195.9z"/>
		<path class="st2" d="M186.3,195.9c1.1,0,2-0.9,2-2c0-1.1-0.9-2-2-2c-1.1,0-2,0.9-2,2C184.3,195,185.2,195.9,186.3,195.9z"/>
		<path class="st2" d="M197.4,195.9c1.1,0,2-0.9,2-2c0-1.1-0.9-2-2-2c-1.1,0-2,0.9-2,2C195.4,195,196.3,195.9,197.4,195.9z"/>
		<path class="st2" d="M208.5,195.9c1.1,0,2-0.9,2-2c0-1.1-0.9-2-2-2c-1.1,0-2,0.9-2,2C206.5,195,207.4,195.9,208.5,195.9z"/>
		<path class="st2" d="M219.5,195.9c1.1,0,2-0.9,2-2c0-1.1-0.9-2-2-2c-1.1,0-2,0.9-2,2C217.5,195,218.4,195.9,219.5,195.9z"/>
		<path class="st2" d="M230.6,195.9c1.1,0,2-0.9,2-2c0-1.1-0.9-2-2-2c-1.1,0-2,0.9-2,2C228.6,195,229.5,195.9,230.6,195.9z"/>
		<path class="st2" d="M241.7,195.9c1.1,0,2-0.9,2-2c0-1.1-0.9-2-2-2c-1.1,0-2,0.9-2,2C239.7,195,240.6,195.9,241.7,195.9z"/>
		<path class="st2" d="M252.8,195.9c1.1,0,2-0.9,2-2c0-1.1-0.9-2-2-2c-1.1,0-2,0.9-2,2C250.8,195,251.7,195.9,252.8,195.9z"/>
		<path class="st2" d="M263.8,195.9c1.1,0,2-0.9,2-2c0-1.1-0.9-2-2-2c-1.1,0-2,0.9-2,2C261.8,195,262.7,195.9,263.8,195.9z"/>
		<path class="st2" d="M274.9,195.9c1.1,0,2-0.9,2-2c0-1.1-0.9-2-2-2c-1.1,0-2,0.9-2,2C272.9,195,273.8,195.9,274.9,195.9z"/>
		<path class="st2" d="M286,195.9c1.1,0,2-0.9,2-2c0-1.1-0.9-2-2-2s-2,0.9-2,2C284,195,284.9,195.9,286,195.9z"/>
		<path class="st2" d="M297,195.9c1.1,0,2-0.9,2-2c0-1.1-0.9-2-2-2c-1.1,0-2,0.9-2,2C295,195,295.9,195.9,297,195.9z"/>
		<path class="st2" d="M-7.4,207c1.1,0,2-0.9,2-2c0-1.1-0.9-2-2-2c-1.1,0-2,0.9-2,2C-9.4,206.1-8.5,207-7.4,207z"/>
		<path class="st2" d="M3.7,207c1.1,0,2-0.9,2-2c0-1.1-0.9-2-2-2c-1.1,0-2,0.9-2,2C1.7,206.1,2.6,207,3.7,207z"/>
		<path class="st2" d="M14.8,207c1.1,0,2-0.9,2-2c0-1.1-0.9-2-2-2c-1.1,0-2,0.9-2,2C12.8,206.1,13.6,207,14.8,207z"/>
		<path class="st2" d="M25.8,207c1.1,0,2-0.9,2-2c0-1.1-0.9-2-2-2c-1.1,0-2,0.9-2,2C23.8,206.1,24.7,207,25.8,207z"/>
		<path class="st2" d="M36.9,207c1.1,0,2-0.9,2-2c0-1.1-0.9-2-2-2c-1.1,0-2,0.9-2,2C34.9,206.1,35.8,207,36.9,207z"/>
		<path class="st2" d="M48,207c1.1,0,2-0.9,2-2c0-1.1-0.9-2-2-2c-1.1,0-2,0.9-2,2C46,206.1,46.9,207,48,207z"/>
		<path class="st2" d="M59,207c1.1,0,2-0.9,2-2c0-1.1-0.9-2-2-2c-1.1,0-2,0.9-2,2C57,206.1,57.9,207,59,207z"/>
		<path class="st2" d="M70.1,207c1.1,0,2-0.9,2-2c0-1.1-0.9-2-2-2c-1.1,0-2,0.9-2,2C68.1,206.1,69,207,70.1,207z"/>
		<path class="st2" d="M81.2,207c1.1,0,2-0.9,2-2c0-1.1-0.9-2-2-2c-1.1,0-2,0.9-2,2C79.2,206.1,80.1,207,81.2,207z"/>
		<path class="st2" d="M92.2,207c1.1,0,2-0.9,2-2c0-1.1-0.9-2-2-2c-1.1,0-2,0.9-2,2C90.2,206.1,91.1,207,92.2,207z"/>
		<path class="st2" d="M103.3,207c1.1,0,2-0.9,2-2c0-1.1-0.9-2-2-2c-1.1,0-2,0.9-2,2C101.3,206.1,102.2,207,103.3,207z"/>
		<path class="st2" d="M114.4,207c1.1,0,2-0.9,2-2c0-1.1-0.9-2-2-2c-1.1,0-2,0.9-2,2C112.4,206.1,113.3,207,114.4,207z"/>
		<path class="st2" d="M125.4,207c1.1,0,2-0.9,2-2c0-1.1-0.9-2-2-2c-1.1,0-2,0.9-2,2C123.5,206.1,124.3,207,125.4,207z"/>
		<path class="st2" d="M136.5,207c1.1,0,2-0.9,2-2c0-1.1-0.9-2-2-2c-1.1,0-2,0.9-2,2C134.5,206.1,135.4,207,136.5,207z"/>
		<path class="st2" d="M147.6,207c1.1,0,2-0.9,2-2c0-1.1-0.9-2-2-2c-1.1,0-2,0.9-2,2C145.6,206.1,146.5,207,147.6,207z"/>
		<path class="st2" d="M158.7,207c1.1,0,2-0.9,2-2c0-1.1-0.9-2-2-2c-1.1,0-2,0.9-2,2C156.7,206.1,157.6,207,158.7,207z"/>
		<path class="st2" d="M169.7,207c1.1,0,2-0.9,2-2c0-1.1-0.9-2-2-2c-1.1,0-2,0.9-2,2C167.7,206.1,168.6,207,169.7,207z"/>
		<path class="st2" d="M180.8,207c1.1,0,2-0.9,2-2c0-1.1-0.9-2-2-2c-1.1,0-2,0.9-2,2C178.8,206.1,179.7,207,180.8,207z"/>
		<path class="st2" d="M191.9,207c1.1,0,2-0.9,2-2c0-1.1-0.9-2-2-2c-1.1,0-2,0.9-2,2C189.9,206.1,190.8,207,191.9,207z"/>
		<path class="st2" d="M202.9,207c1.1,0,2-0.9,2-2c0-1.1-0.9-2-2-2c-1.1,0-2,0.9-2,2C200.9,206.1,201.8,207,202.9,207z"/>
		<path class="st2" d="M214,207c1.1,0,2-0.9,2-2c0-1.1-0.9-2-2-2c-1.1,0-2,0.9-2,2C212,206.1,212.9,207,214,207z"/>
		<path class="st2" d="M225.1,207c1.1,0,2-0.9,2-2c0-1.1-0.9-2-2-2c-1.1,0-2,0.9-2,2C223.1,206.1,224,207,225.1,207z"/>
		<path class="st2" d="M236.1,207c1.1,0,2-0.9,2-2c0-1.1-0.9-2-2-2c-1.1,0-2,0.9-2,2C234.2,206.1,235,207,236.1,207z"/>
		<path class="st2" d="M247.2,207c1.1,0,2-0.9,2-2c0-1.1-0.9-2-2-2c-1.1,0-2,0.9-2,2C245.2,206.1,246.1,207,247.2,207z"/>
		<path class="st2" d="M258.3,207c1.1,0,2-0.9,2-2c0-1.1-0.9-2-2-2c-1.1,0-2,0.9-2,2C256.3,206.1,257.2,207,258.3,207z"/>
		<path class="st2" d="M269.4,207c1.1,0,2-0.9,2-2c0-1.1-0.9-2-2-2c-1.1,0-2,0.9-2,2C267.4,206.1,268.3,207,269.4,207z"/>
		<path class="st2" d="M280.4,207c1.1,0,2-0.9,2-2c0-1.1-0.9-2-2-2c-1.1,0-2,0.9-2,2C278.4,206.1,279.3,207,280.4,207z"/>
		<path class="st2" d="M291.5,207c1.1,0,2-0.9,2-2c0-1.1-0.9-2-2-2c-1.1,0-2,0.9-2,2C289.5,206.1,290.4,207,291.5,207z"/>
		<path class="st2" d="M-1.9,218.1c1.1,0,2-0.9,2-2c0-1.1-0.9-2-2-2c-1.1,0-2,0.9-2,2C-3.8,217.2-3,218.1-1.9,218.1z"/>
		<path class="st2" d="M9.2,218.1c1.1,0,2-0.9,2-2c0-1.1-0.9-2-2-2c-1.1,0-2,0.9-2,2C7.2,217.2,8.1,218.1,9.2,218.1z"/>
		<path class="st2" d="M20.3,218.1c1.1,0,2-0.9,2-2c0-1.1-0.9-2-2-2c-1.1,0-2,0.9-2,2C18.3,217.2,19.2,218.1,20.3,218.1z"/>
		<path class="st2" d="M31.4,218.1c1.1,0,2-0.9,2-2c0-1.1-0.9-2-2-2c-1.1,0-2,0.9-2,2C29.4,217.2,30.3,218.1,31.4,218.1z"/>
		<path class="st2" d="M42.4,218.1c1.1,0,2-0.9,2-2c0-1.1-0.9-2-2-2c-1.1,0-2,0.9-2,2C40.4,217.2,41.3,218.1,42.4,218.1z"/>
		<path class="st2" d="M53.5,218.1c1.1,0,2-0.9,2-2c0-1.1-0.9-2-2-2c-1.1,0-2,0.9-2,2C51.5,217.2,52.4,218.1,53.5,218.1z"/>
		<path class="st2" d="M64.6,218.1c1.1,0,2-0.9,2-2c0-1.1-0.9-2-2-2s-2,0.9-2,2C62.6,217.2,63.5,218.1,64.6,218.1z"/>
		<path class="st2" d="M75.6,218.1c1.1,0,2-0.9,2-2c0-1.1-0.9-2-2-2c-1.1,0-2,0.9-2,2C73.6,217.2,74.5,218.1,75.6,218.1z"/>
		<path class="st2" d="M86.7,218.1c1.1,0,2-0.9,2-2c0-1.1-0.9-2-2-2c-1.1,0-2,0.9-2,2C84.7,217.2,85.6,218.1,86.7,218.1z"/>
		<path class="st2" d="M97.8,218.1c1.1,0,2-0.9,2-2c0-1.1-0.9-2-2-2c-1.1,0-2,0.9-2,2C95.8,217.2,96.7,218.1,97.8,218.1z"/>
		<path class="st2" d="M108.8,218.1c1.1,0,2-0.9,2-2c0-1.1-0.9-2-2-2c-1.1,0-2,0.9-2,2C106.8,217.2,107.7,218.1,108.8,218.1z"/>
		<path class="st2" d="M119.9,218.1c1.1,0,2-0.9,2-2c0-1.1-0.9-2-2-2c-1.1,0-2,0.9-2,2C117.9,217.2,118.8,218.1,119.9,218.1z"/>
		<path class="st2" d="M131,218.1c1.1,0,2-0.9,2-2c0-1.1-0.9-2-2-2c-1.1,0-2,0.9-2,2C129,217.2,129.9,218.1,131,218.1z"/>
		<path class="st2" d="M142.1,218.1c1.1,0,2-0.9,2-2c0-1.1-0.9-2-2-2c-1.1,0-2,0.9-2,2C140.1,217.2,141,218.1,142.1,218.1z"/>
		<path class="st2" d="M153.1,218.1c1.1,0,2-0.9,2-2c0-1.1-0.9-2-2-2c-1.1,0-2,0.9-2,2C151.1,217.2,152,218.1,153.1,218.1z"/>
		<path class="st2" d="M164.2,218.1c1.1,0,2-0.9,2-2c0-1.1-0.9-2-2-2c-1.1,0-2,0.9-2,2C162.2,217.2,163.1,218.1,164.2,218.1z"/>
		<path class="st2" d="M175.3,218.1c1.1,0,2-0.9,2-2c0-1.1-0.9-2-2-2c-1.1,0-2,0.9-2,2C173.3,217.2,174.2,218.1,175.3,218.1z"/>
		<path class="st2" d="M186.3,218.1c1.1,0,2-0.9,2-2c0-1.1-0.9-2-2-2c-1.1,0-2,0.9-2,2C184.3,217.2,185.2,218.1,186.3,218.1z"/>
		<path class="st2" d="M197.4,218.1c1.1,0,2-0.9,2-2c0-1.1-0.9-2-2-2c-1.1,0-2,0.9-2,2C195.4,217.2,196.3,218.1,197.4,218.1z"/>
		<path class="st2" d="M208.5,218.1c1.1,0,2-0.9,2-2c0-1.1-0.9-2-2-2c-1.1,0-2,0.9-2,2C206.5,217.2,207.4,218.1,208.5,218.1z"/>
		<path class="st2" d="M219.5,218.1c1.1,0,2-0.9,2-2c0-1.1-0.9-2-2-2c-1.1,0-2,0.9-2,2C217.5,217.2,218.4,218.1,219.5,218.1z"/>
		<path class="st2" d="M230.6,218.1c1.1,0,2-0.9,2-2c0-1.1-0.9-2-2-2c-1.1,0-2,0.9-2,2C228.6,217.2,229.5,218.1,230.6,218.1z"/>
		<path class="st2" d="M241.7,218.1c1.1,0,2-0.9,2-2c0-1.1-0.9-2-2-2c-1.1,0-2,0.9-2,2C239.7,217.2,240.6,218.1,241.7,218.1z"/>
		<path class="st2" d="M252.8,218.1c1.1,0,2-0.9,2-2c0-1.1-0.9-2-2-2c-1.1,0-2,0.9-2,2C250.8,217.2,251.7,218.1,252.8,218.1z"/>
		<path class="st2" d="M263.8,218.1c1.1,0,2-0.9,2-2c0-1.1-0.9-2-2-2c-1.1,0-2,0.9-2,2C261.8,217.2,262.7,218.1,263.8,218.1z"/>
		<path class="st2" d="M274.9,218.1c1.1,0,2-0.9,2-2c0-1.1-0.9-2-2-2c-1.1,0-2,0.9-2,2C272.9,217.2,273.8,218.1,274.9,218.1z"/>
		<path class="st2" d="M286,218.1c1.1,0,2-0.9,2-2c0-1.1-0.9-2-2-2s-2,0.9-2,2C284,217.2,284.9,218.1,286,218.1z"/>
		<path class="st2" d="M297,218.1c1.1,0,2-0.9,2-2c0-1.1-0.9-2-2-2c-1.1,0-2,0.9-2,2C295,217.2,295.9,218.1,297,218.1z"/>
		<path class="st2" d="M-7.4,229.2c1.1,0,2-0.9,2-2c0-1.1-0.9-2-2-2c-1.1,0-2,0.9-2,2C-9.4,228.3-8.5,229.2-7.4,229.2z"/>
		<path class="st2" d="M3.7,229.2c1.1,0,2-0.9,2-2c0-1.1-0.9-2-2-2c-1.1,0-2,0.9-2,2C1.7,228.3,2.6,229.2,3.7,229.2z"/>
		<path class="st2" d="M14.8,229.2c1.1,0,2-0.9,2-2c0-1.1-0.9-2-2-2c-1.1,0-2,0.9-2,2C12.8,228.3,13.6,229.2,14.8,229.2z"/>
		<circle class="st2" cx="25.8" cy="227.2" r="2"/>
		<path class="st2" d="M36.9,229.2c1.1,0,2-0.9,2-2c0-1.1-0.9-2-2-2c-1.1,0-2,0.9-2,2C34.9,228.3,35.8,229.2,36.9,229.2z"/>
		<path class="st2" d="M48,229.2c1.1,0,2-0.9,2-2c0-1.1-0.9-2-2-2c-1.1,0-2,0.9-2,2C46,228.3,46.9,229.2,48,229.2z"/>
		<path class="st2" d="M59,229.2c1.1,0,2-0.9,2-2c0-1.1-0.9-2-2-2c-1.1,0-2,0.9-2,2C57,228.3,57.9,229.2,59,229.2z"/>
		<path class="st2" d="M70.1,229.2c1.1,0,2-0.9,2-2c0-1.1-0.9-2-2-2c-1.1,0-2,0.9-2,2C68.1,228.3,69,229.2,70.1,229.2z"/>
		<path class="st2" d="M81.2,229.2c1.1,0,2-0.9,2-2c0-1.1-0.9-2-2-2c-1.1,0-2,0.9-2,2C79.2,228.3,80.1,229.2,81.2,229.2z"/>
		<path class="st2" d="M92.2,229.2c1.1,0,2-0.9,2-2c0-1.1-0.9-2-2-2c-1.1,0-2,0.9-2,2C90.2,228.3,91.1,229.2,92.2,229.2z"/>
		<path class="st2" d="M103.3,229.2c1.1,0,2-0.9,2-2c0-1.1-0.9-2-2-2c-1.1,0-2,0.9-2,2C101.3,228.3,102.2,229.2,103.3,229.2z"/>
		<path class="st2" d="M114.4,229.2c1.1,0,2-0.9,2-2c0-1.1-0.9-2-2-2c-1.1,0-2,0.9-2,2C112.4,228.3,113.3,229.2,114.4,229.2z"/>
		<path class="st2" d="M125.4,229.2c1.1,0,2-0.9,2-2c0-1.1-0.9-2-2-2c-1.1,0-2,0.9-2,2C123.5,228.3,124.3,229.2,125.4,229.2z"/>
		<path class="st2" d="M136.5,229.2c1.1,0,2-0.9,2-2c0-1.1-0.9-2-2-2c-1.1,0-2,0.9-2,2C134.5,228.3,135.4,229.2,136.5,229.2z"/>
		<path class="st2" d="M147.6,229.2c1.1,0,2-0.9,2-2c0-1.1-0.9-2-2-2c-1.1,0-2,0.9-2,2C145.6,228.3,146.5,229.2,147.6,229.2z"/>
		<circle class="st2" cx="158.7" cy="227.2" r="2"/>
		<path class="st2" d="M169.7,229.2c1.1,0,2-0.9,2-2c0-1.1-0.9-2-2-2c-1.1,0-2,0.9-2,2C167.7,228.3,168.6,229.2,169.7,229.2z"/>
		<path class="st2" d="M180.8,229.2c1.1,0,2-0.9,2-2c0-1.1-0.9-2-2-2c-1.1,0-2,0.9-2,2C178.8,228.3,179.7,229.2,180.8,229.2z"/>
		<path class="st2" d="M191.9,229.2c1.1,0,2-0.9,2-2c0-1.1-0.9-2-2-2c-1.1,0-2,0.9-2,2C189.9,228.3,190.8,229.2,191.9,229.2z"/>
		<path class="st2" d="M202.9,229.2c1.1,0,2-0.9,2-2c0-1.1-0.9-2-2-2c-1.1,0-2,0.9-2,2C200.9,228.3,201.8,229.2,202.9,229.2z"/>
		<circle class="st2" cx="214" cy="227.2" r="2"/>
		<path class="st2" d="M225.1,229.2c1.1,0,2-0.9,2-2c0-1.1-0.9-2-2-2c-1.1,0-2,0.9-2,2C223.1,228.3,224,229.2,225.1,229.2z"/>
		<path class="st2" d="M236.1,229.2c1.1,0,2-0.9,2-2c0-1.1-0.9-2-2-2c-1.1,0-2,0.9-2,2C234.2,228.3,235,229.2,236.1,229.2z"/>
		<path class="st2" d="M247.2,229.2c1.1,0,2-0.9,2-2c0-1.1-0.9-2-2-2c-1.1,0-2,0.9-2,2C245.2,228.3,246.1,229.2,247.2,229.2z"/>
		<path class="st2" d="M258.3,229.2c1.1,0,2-0.9,2-2c0-1.1-0.9-2-2-2c-1.1,0-2,0.9-2,2C256.3,228.3,257.2,229.2,258.3,229.2z"/>
		<path class="st2" d="M269.4,229.2c1.1,0,2-0.9,2-2c0-1.1-0.9-2-2-2c-1.1,0-2,0.9-2,2C267.4,228.3,268.3,229.2,269.4,229.2z"/>
		<path class="st2" d="M280.4,229.2c1.1,0,2-0.9,2-2c0-1.1-0.9-2-2-2c-1.1,0-2,0.9-2,2C278.4,228.3,279.3,229.2,280.4,229.2z"/>
		<path class="st2" d="M291.5,229.2c1.1,0,2-0.9,2-2c0-1.1-0.9-2-2-2c-1.1,0-2,0.9-2,2C289.5,228.3,290.4,229.2,291.5,229.2z"/>
		<path class="st2" d="M-1.9,240.2c1.1,0,2-0.9,2-2c0-1.1-0.9-2-2-2c-1.1,0-2,0.9-2,2C-3.8,239.3-3,240.2-1.9,240.2z"/>
		<path class="st2" d="M9.2,240.2c1.1,0,2-0.9,2-2c0-1.1-0.9-2-2-2c-1.1,0-2,0.9-2,2C7.2,239.3,8.1,240.2,9.2,240.2z"/>
		<path class="st2" d="M20.3,240.2c1.1,0,2-0.9,2-2c0-1.1-0.9-2-2-2c-1.1,0-2,0.9-2,2C18.3,239.3,19.2,240.2,20.3,240.2z"/>
		<path class="st2" d="M31.4,240.2c1.1,0,2-0.9,2-2c0-1.1-0.9-2-2-2c-1.1,0-2,0.9-2,2C29.4,239.3,30.3,240.2,31.4,240.2z"/>
		<path class="st2" d="M42.4,240.2c1.1,0,2-0.9,2-2c0-1.1-0.9-2-2-2c-1.1,0-2,0.9-2,2C40.4,239.3,41.3,240.2,42.4,240.2z"/>
		<path class="st2" d="M53.5,240.2c1.1,0,2-0.9,2-2c0-1.1-0.9-2-2-2c-1.1,0-2,0.9-2,2C51.5,239.3,52.4,240.2,53.5,240.2z"/>
		<path class="st2" d="M64.6,240.2c1.1,0,2-0.9,2-2c0-1.1-0.9-2-2-2s-2,0.9-2,2C62.6,239.3,63.5,240.2,64.6,240.2z"/>
		<path class="st2" d="M75.6,240.2c1.1,0,2-0.9,2-2c0-1.1-0.9-2-2-2c-1.1,0-2,0.9-2,2C73.6,239.3,74.5,240.2,75.6,240.2z"/>
		<path class="st2" d="M86.7,240.2c1.1,0,2-0.9,2-2c0-1.1-0.9-2-2-2c-1.1,0-2,0.9-2,2C84.7,239.3,85.6,240.2,86.7,240.2z"/>
		<path class="st2" d="M97.8,240.2c1.1,0,2-0.9,2-2c0-1.1-0.9-2-2-2c-1.1,0-2,0.9-2,2C95.8,239.3,96.7,240.2,97.8,240.2z"/>
		<path class="st2" d="M108.8,240.2c1.1,0,2-0.9,2-2c0-1.1-0.9-2-2-2c-1.1,0-2,0.9-2,2C106.8,239.3,107.7,240.2,108.8,240.2z"/>
		<path class="st2" d="M119.9,240.2c1.1,0,2-0.9,2-2c0-1.1-0.9-2-2-2c-1.1,0-2,0.9-2,2C117.9,239.3,118.8,240.2,119.9,240.2z"/>
		<path class="st2" d="M131,240.2c1.1,0,2-0.9,2-2c0-1.1-0.9-2-2-2c-1.1,0-2,0.9-2,2C129,239.3,129.9,240.2,131,240.2z"/>
		<path class="st2" d="M142.1,240.2c1.1,0,2-0.9,2-2c0-1.1-0.9-2-2-2c-1.1,0-2,0.9-2,2C140.1,239.3,141,240.2,142.1,240.2z"/>
		<path class="st2" d="M153.1,240.2c1.1,0,2-0.9,2-2c0-1.1-0.9-2-2-2c-1.1,0-2,0.9-2,2C151.1,239.3,152,240.2,153.1,240.2z"/>
		<path class="st2" d="M164.2,240.2c1.1,0,2-0.9,2-2c0-1.1-0.9-2-2-2c-1.1,0-2,0.9-2,2C162.2,239.3,163.1,240.2,164.2,240.2z"/>
		<path class="st2" d="M175.3,240.2c1.1,0,2-0.9,2-2c0-1.1-0.9-2-2-2c-1.1,0-2,0.9-2,2C173.3,239.3,174.2,240.2,175.3,240.2z"/>
		<path class="st2" d="M186.3,240.2c1.1,0,2-0.9,2-2c0-1.1-0.9-2-2-2c-1.1,0-2,0.9-2,2C184.3,239.3,185.2,240.2,186.3,240.2z"/>
		<path class="st2" d="M197.4,240.2c1.1,0,2-0.9,2-2c0-1.1-0.9-2-2-2c-1.1,0-2,0.9-2,2C195.4,239.3,196.3,240.2,197.4,240.2z"/>
		<path class="st2" d="M208.5,240.2c1.1,0,2-0.9,2-2c0-1.1-0.9-2-2-2c-1.1,0-2,0.9-2,2C206.5,239.3,207.4,240.2,208.5,240.2z"/>
		<path class="st2" d="M219.5,240.2c1.1,0,2-0.9,2-2c0-1.1-0.9-2-2-2c-1.1,0-2,0.9-2,2C217.5,239.3,218.4,240.2,219.5,240.2z"/>
		<path class="st2" d="M230.6,240.2c1.1,0,2-0.9,2-2c0-1.1-0.9-2-2-2c-1.1,0-2,0.9-2,2C228.6,239.3,229.5,240.2,230.6,240.2z"/>
		<path class="st2" d="M241.7,240.2c1.1,0,2-0.9,2-2c0-1.1-0.9-2-2-2c-1.1,0-2,0.9-2,2C239.7,239.3,240.6,240.2,241.7,240.2z"/>
		<path class="st2" d="M252.8,240.2c1.1,0,2-0.9,2-2c0-1.1-0.9-2-2-2c-1.1,0-2,0.9-2,2C250.8,239.3,251.7,240.2,252.8,240.2z"/>
		<path class="st2" d="M263.8,240.2c1.1,0,2-0.9,2-2c0-1.1-0.9-2-2-2c-1.1,0-2,0.9-2,2C261.8,239.3,262.7,240.2,263.8,240.2z"/>
		<path class="st2" d="M274.9,240.2c1.1,0,2-0.9,2-2c0-1.1-0.9-2-2-2c-1.1,0-2,0.9-2,2C272.9,239.3,273.8,240.2,274.9,240.2z"/>
		<path class="st2" d="M286,240.2c1.1,0,2-0.9,2-2c0-1.1-0.9-2-2-2s-2,0.9-2,2C284,239.3,284.9,240.2,286,240.2z"/>
		<path class="st2" d="M297,240.2c1.1,0,2-0.9,2-2c0-1.1-0.9-2-2-2c-1.1,0-2,0.9-2,2C295,239.3,295.9,240.2,297,240.2z"/>
		<path class="st2" d="M-7.4,251.3c1.1,0,2-0.9,2-2c0-1.1-0.9-2-2-2c-1.1,0-2,0.9-2,2C-9.4,250.4-8.5,251.3-7.4,251.3z"/>
		<path class="st2" d="M3.7,251.3c1.1,0,2-0.9,2-2c0-1.1-0.9-2-2-2c-1.1,0-2,0.9-2,2C1.7,250.4,2.6,251.3,3.7,251.3z"/>
		<path class="st2" d="M14.8,251.3c1.1,0,2-0.9,2-2c0-1.1-0.9-2-2-2c-1.1,0-2,0.9-2,2C12.8,250.4,13.6,251.3,14.8,251.3z"/>
		<path class="st2" d="M25.8,251.3c1.1,0,2-0.9,2-2c0-1.1-0.9-2-2-2c-1.1,0-2,0.9-2,2C23.8,250.4,24.7,251.3,25.8,251.3z"/>
		<path class="st2" d="M36.9,251.3c1.1,0,2-0.9,2-2c0-1.1-0.9-2-2-2c-1.1,0-2,0.9-2,2C34.9,250.4,35.8,251.3,36.9,251.3z"/>
		<path class="st2" d="M48,251.3c1.1,0,2-0.9,2-2c0-1.1-0.9-2-2-2c-1.1,0-2,0.9-2,2C46,250.4,46.9,251.3,48,251.3z"/>
		<path class="st2" d="M59,251.3c1.1,0,2-0.9,2-2c0-1.1-0.9-2-2-2c-1.1,0-2,0.9-2,2C57,250.4,57.9,251.3,59,251.3z"/>
		<path class="st2" d="M70.1,251.3c1.1,0,2-0.9,2-2c0-1.1-0.9-2-2-2c-1.1,0-2,0.9-2,2C68.1,250.4,69,251.3,70.1,251.3z"/>
		<path class="st2" d="M81.2,251.3c1.1,0,2-0.9,2-2c0-1.1-0.9-2-2-2c-1.1,0-2,0.9-2,2C79.2,250.4,80.1,251.3,81.2,251.3z"/>
		<path class="st2" d="M92.2,251.3c1.1,0,2-0.9,2-2c0-1.1-0.9-2-2-2c-1.1,0-2,0.9-2,2C90.2,250.4,91.1,251.3,92.2,251.3z"/>
		<path class="st2" d="M103.3,251.3c1.1,0,2-0.9,2-2c0-1.1-0.9-2-2-2c-1.1,0-2,0.9-2,2C101.3,250.4,102.2,251.3,103.3,251.3z"/>
		<path class="st2" d="M114.4,251.3c1.1,0,2-0.9,2-2c0-1.1-0.9-2-2-2c-1.1,0-2,0.9-2,2C112.4,250.4,113.3,251.3,114.4,251.3z"/>
		<path class="st2" d="M125.4,251.3c1.1,0,2-0.9,2-2c0-1.1-0.9-2-2-2c-1.1,0-2,0.9-2,2C123.5,250.4,124.3,251.3,125.4,251.3z"/>
		<path class="st2" d="M136.5,251.3c1.1,0,2-0.9,2-2c0-1.1-0.9-2-2-2c-1.1,0-2,0.9-2,2C134.5,250.4,135.4,251.3,136.5,251.3z"/>
		<path class="st2" d="M147.6,251.3c1.1,0,2-0.9,2-2c0-1.1-0.9-2-2-2c-1.1,0-2,0.9-2,2C145.6,250.4,146.5,251.3,147.6,251.3z"/>
		<path class="st2" d="M158.7,251.3c1.1,0,2-0.9,2-2c0-1.1-0.9-2-2-2c-1.1,0-2,0.9-2,2C156.7,250.4,157.6,251.3,158.7,251.3z"/>
		<path class="st2" d="M169.7,251.3c1.1,0,2-0.9,2-2c0-1.1-0.9-2-2-2c-1.1,0-2,0.9-2,2C167.7,250.4,168.6,251.3,169.7,251.3z"/>
		<path class="st2" d="M180.8,251.3c1.1,0,2-0.9,2-2c0-1.1-0.9-2-2-2c-1.1,0-2,0.9-2,2C178.8,250.4,179.7,251.3,180.8,251.3z"/>
		<path class="st2" d="M191.9,251.3c1.1,0,2-0.9,2-2c0-1.1-0.9-2-2-2c-1.1,0-2,0.9-2,2C189.9,250.4,190.8,251.3,191.9,251.3z"/>
		<path class="st2" d="M202.9,251.3c1.1,0,2-0.9,2-2c0-1.1-0.9-2-2-2c-1.1,0-2,0.9-2,2C200.9,250.4,201.8,251.3,202.9,251.3z"/>
		<path class="st2" d="M214,251.3c1.1,0,2-0.9,2-2c0-1.1-0.9-2-2-2c-1.1,0-2,0.9-2,2C212,250.4,212.9,251.3,214,251.3z"/>
		<path class="st2" d="M225.1,251.3c1.1,0,2-0.9,2-2c0-1.1-0.9-2-2-2c-1.1,0-2,0.9-2,2C223.1,250.4,224,251.3,225.1,251.3z"/>
		<path class="st2" d="M236.1,251.3c1.1,0,2-0.9,2-2c0-1.1-0.9-2-2-2c-1.1,0-2,0.9-2,2C234.2,250.4,235,251.3,236.1,251.3z"/>
		<path class="st2" d="M247.2,251.3c1.1,0,2-0.9,2-2c0-1.1-0.9-2-2-2c-1.1,0-2,0.9-2,2C245.2,250.4,246.1,251.3,247.2,251.3z"/>
		<path class="st2" d="M258.3,251.3c1.1,0,2-0.9,2-2c0-1.1-0.9-2-2-2c-1.1,0-2,0.9-2,2C256.3,250.4,257.2,251.3,258.3,251.3z"/>
		<path class="st2" d="M269.4,251.3c1.1,0,2-0.9,2-2c0-1.1-0.9-2-2-2c-1.1,0-2,0.9-2,2C267.4,250.4,268.3,251.3,269.4,251.3z"/>
		<path class="st2" d="M280.4,251.3c1.1,0,2-0.9,2-2c0-1.1-0.9-2-2-2c-1.1,0-2,0.9-2,2C278.4,250.4,279.3,251.3,280.4,251.3z"/>
		<path class="st2" d="M291.5,251.3c1.1,0,2-0.9,2-2c0-1.1-0.9-2-2-2c-1.1,0-2,0.9-2,2C289.5,250.4,290.4,251.3,291.5,251.3z"/>
		<path class="st2" d="M-1.9,262.4c1.1,0,2-0.9,2-2c0-1.1-0.9-2-2-2c-1.1,0-2,0.9-2,2C-3.8,261.5-3,262.4-1.9,262.4z"/>
		<path class="st2" d="M9.2,262.4c1.1,0,2-0.9,2-2c0-1.1-0.9-2-2-2c-1.1,0-2,0.9-2,2C7.2,261.5,8.1,262.4,9.2,262.4z"/>
		<path class="st2" d="M20.3,262.4c1.1,0,2-0.9,2-2c0-1.1-0.9-2-2-2c-1.1,0-2,0.9-2,2C18.3,261.5,19.2,262.4,20.3,262.4z"/>
		<circle class="st2" cx="31.4" cy="260.4" r="2"/>
		<path class="st2" d="M42.4,262.4c1.1,0,2-0.9,2-2c0-1.1-0.9-2-2-2c-1.1,0-2,0.9-2,2C40.4,261.5,41.3,262.4,42.4,262.4z"/>
		<path class="st2" d="M53.5,262.4c1.1,0,2-0.9,2-2c0-1.1-0.9-2-2-2c-1.1,0-2,0.9-2,2C51.5,261.5,52.4,262.4,53.5,262.4z"/>
		<path class="st2" d="M64.6,262.4c1.1,0,2-0.9,2-2c0-1.1-0.9-2-2-2s-2,0.9-2,2C62.6,261.5,63.5,262.4,64.6,262.4z"/>
		<path class="st2" d="M75.6,262.4c1.1,0,2-0.9,2-2c0-1.1-0.9-2-2-2c-1.1,0-2,0.9-2,2C73.6,261.5,74.5,262.4,75.6,262.4z"/>
		<circle class="st2" cx="86.7" cy="260.4" r="2"/>
		<path class="st2" d="M97.8,262.4c1.1,0,2-0.9,2-2c0-1.1-0.9-2-2-2c-1.1,0-2,0.9-2,2C95.8,261.5,96.7,262.4,97.8,262.4z"/>
		<circle class="st2" cx="108.8" cy="260.4" r="2"/>
		<circle class="st2" cx="119.9" cy="260.4" r="2"/>
		<path class="st2" d="M131,262.4c1.1,0,2-0.9,2-2c0-1.1-0.9-2-2-2c-1.1,0-2,0.9-2,2C129,261.5,129.9,262.4,131,262.4z"/>
		<path class="st2" d="M142.1,262.4c1.1,0,2-0.9,2-2c0-1.1-0.9-2-2-2c-1.1,0-2,0.9-2,2C140.1,261.5,141,262.4,142.1,262.4z"/>
		<path class="st2" d="M153.1,262.4c1.1,0,2-0.9,2-2c0-1.1-0.9-2-2-2c-1.1,0-2,0.9-2,2C151.1,261.5,152,262.4,153.1,262.4z"/>
		<circle class="st2" cx="164.2" cy="260.4" r="2"/>
		<path class="st2" d="M175.3,262.4c1.1,0,2-0.9,2-2c0-1.1-0.9-2-2-2c-1.1,0-2,0.9-2,2C173.3,261.5,174.2,262.4,175.3,262.4z"/>
		<path class="st2" d="M186.3,262.4c1.1,0,2-0.9,2-2c0-1.1-0.9-2-2-2c-1.1,0-2,0.9-2,2C184.3,261.5,185.2,262.4,186.3,262.4z"/>
		<path class="st2" d="M197.4,262.4c1.1,0,2-0.9,2-2c0-1.1-0.9-2-2-2c-1.1,0-2,0.9-2,2C195.4,261.5,196.3,262.4,197.4,262.4z"/>
		<path class="st2" d="M208.5,262.4c1.1,0,2-0.9,2-2c0-1.1-0.9-2-2-2c-1.1,0-2,0.9-2,2C206.5,261.5,207.4,262.4,208.5,262.4z"/>
		<path class="st2" d="M219.5,262.4c1.1,0,2-0.9,2-2c0-1.1-0.9-2-2-2c-1.1,0-2,0.9-2,2C217.5,261.5,218.4,262.4,219.5,262.4z"/>
		<path class="st2" d="M230.6,262.4c1.1,0,2-0.9,2-2c0-1.1-0.9-2-2-2c-1.1,0-2,0.9-2,2C228.6,261.5,229.5,262.4,230.6,262.4z"/>
		<path class="st2" d="M241.7,262.4c1.1,0,2-0.9,2-2c0-1.1-0.9-2-2-2c-1.1,0-2,0.9-2,2C239.7,261.5,240.6,262.4,241.7,262.4z"/>
		<circle class="st2" cx="252.8" cy="260.4" r="2"/>
		<path class="st2" d="M263.8,262.4c1.1,0,2-0.9,2-2c0-1.1-0.9-2-2-2c-1.1,0-2,0.9-2,2C261.8,261.5,262.7,262.4,263.8,262.4z"/>
		<path class="st2" d="M274.9,262.4c1.1,0,2-0.9,2-2c0-1.1-0.9-2-2-2c-1.1,0-2,0.9-2,2C272.9,261.5,273.8,262.4,274.9,262.4z"/>
		<path class="st2" d="M286,262.4c1.1,0,2-0.9,2-2c0-1.1-0.9-2-2-2s-2,0.9-2,2C284,261.5,284.9,262.4,286,262.4z"/>
		<path class="st2" d="M297,262.4c1.1,0,2-0.9,2-2c0-1.1-0.9-2-2-2c-1.1,0-2,0.9-2,2C295,261.5,295.9,262.4,297,262.4z"/>
		<path class="st2" d="M-7.4,273.4c1.1,0,2-0.9,2-2c0-1.1-0.9-2-2-2c-1.1,0-2,0.9-2,2C-9.4,272.5-8.5,273.4-7.4,273.4z"/>
		<path class="st2" d="M3.7,273.4c1.1,0,2-0.9,2-2c0-1.1-0.9-2-2-2c-1.1,0-2,0.9-2,2C1.7,272.5,2.6,273.4,3.7,273.4z"/>
		<path class="st2" d="M14.8,273.4c1.1,0,2-0.9,2-2c0-1.1-0.9-2-2-2c-1.1,0-2,0.9-2,2C12.8,272.5,13.6,273.4,14.8,273.4z"/>
		<path class="st2" d="M25.8,273.4c1.1,0,2-0.9,2-2c0-1.1-0.9-2-2-2c-1.1,0-2,0.9-2,2C23.8,272.5,24.7,273.4,25.8,273.4z"/>
		<path class="st2" d="M36.9,273.4c1.1,0,2-0.9,2-2c0-1.1-0.9-2-2-2c-1.1,0-2,0.9-2,2C34.9,272.5,35.8,273.4,36.9,273.4z"/>
		<path class="st2" d="M48,273.4c1.1,0,2-0.9,2-2c0-1.1-0.9-2-2-2c-1.1,0-2,0.9-2,2C46,272.5,46.9,273.4,48,273.4z"/>
		<path class="st2" d="M59,273.4c1.1,0,2-0.9,2-2c0-1.1-0.9-2-2-2c-1.1,0-2,0.9-2,2C57,272.5,57.9,273.4,59,273.4z"/>
		<path class="st2" d="M70.1,273.4c1.1,0,2-0.9,2-2c0-1.1-0.9-2-2-2c-1.1,0-2,0.9-2,2C68.1,272.5,69,273.4,70.1,273.4z"/>
		<path class="st2" d="M81.2,273.4c1.1,0,2-0.9,2-2c0-1.1-0.9-2-2-2c-1.1,0-2,0.9-2,2C79.2,272.5,80.1,273.4,81.2,273.4z"/>
		<path class="st2" d="M92.2,273.4c1.1,0,2-0.9,2-2c0-1.1-0.9-2-2-2c-1.1,0-2,0.9-2,2C90.2,272.5,91.1,273.4,92.2,273.4z"/>
		<path class="st2" d="M103.3,273.4c1.1,0,2-0.9,2-2c0-1.1-0.9-2-2-2c-1.1,0-2,0.9-2,2C101.3,272.5,102.2,273.4,103.3,273.4z"/>
		<path class="st2" d="M114.4,273.4c1.1,0,2-0.9,2-2c0-1.1-0.9-2-2-2c-1.1,0-2,0.9-2,2C112.4,272.5,113.3,273.4,114.4,273.4z"/>
		<path class="st2" d="M125.4,273.4c1.1,0,2-0.9,2-2c0-1.1-0.9-2-2-2c-1.1,0-2,0.9-2,2C123.5,272.5,124.3,273.4,125.4,273.4z"/>
		<path class="st2" d="M136.5,273.4c1.1,0,2-0.9,2-2c0-1.1-0.9-2-2-2c-1.1,0-2,0.9-2,2C134.5,272.5,135.4,273.4,136.5,273.4z"/>
		<path class="st2" d="M147.6,273.4c1.1,0,2-0.9,2-2c0-1.1-0.9-2-2-2c-1.1,0-2,0.9-2,2C145.6,272.5,146.5,273.4,147.6,273.4z"/>
		<path class="st2" d="M158.7,273.4c1.1,0,2-0.9,2-2c0-1.1-0.9-2-2-2c-1.1,0-2,0.9-2,2C156.7,272.5,157.6,273.4,158.7,273.4z"/>
		<path class="st2" d="M169.7,273.4c1.1,0,2-0.9,2-2c0-1.1-0.9-2-2-2c-1.1,0-2,0.9-2,2C167.7,272.5,168.6,273.4,169.7,273.4z"/>
		<path class="st2" d="M180.8,273.4c1.1,0,2-0.9,2-2c0-1.1-0.9-2-2-2c-1.1,0-2,0.9-2,2C178.8,272.5,179.7,273.4,180.8,273.4z"/>
		<path class="st2" d="M191.9,273.4c1.1,0,2-0.9,2-2c0-1.1-0.9-2-2-2c-1.1,0-2,0.9-2,2C189.9,272.5,190.8,273.4,191.9,273.4z"/>
		<path class="st2" d="M202.9,273.4c1.1,0,2-0.9,2-2c0-1.1-0.9-2-2-2c-1.1,0-2,0.9-2,2C200.9,272.5,201.8,273.4,202.9,273.4z"/>
		<path class="st2" d="M214,273.4c1.1,0,2-0.9,2-2c0-1.1-0.9-2-2-2c-1.1,0-2,0.9-2,2C212,272.5,212.9,273.4,214,273.4z"/>
		<path class="st2" d="M225.1,273.4c1.1,0,2-0.9,2-2c0-1.1-0.9-2-2-2c-1.1,0-2,0.9-2,2C223.1,272.5,224,273.4,225.1,273.4z"/>
		<path class="st2" d="M236.1,273.4c1.1,0,2-0.9,2-2c0-1.1-0.9-2-2-2c-1.1,0-2,0.9-2,2C234.2,272.5,235,273.4,236.1,273.4z"/>
		<path class="st2" d="M247.2,273.4c1.1,0,2-0.9,2-2c0-1.1-0.9-2-2-2c-1.1,0-2,0.9-2,2C245.2,272.5,246.1,273.4,247.2,273.4z"/>
		<path class="st2" d="M258.3,273.4c1.1,0,2-0.9,2-2c0-1.1-0.9-2-2-2c-1.1,0-2,0.9-2,2C256.3,272.5,257.2,273.4,258.3,273.4z"/>
		<path class="st2" d="M269.4,273.4c1.1,0,2-0.9,2-2c0-1.1-0.9-2-2-2c-1.1,0-2,0.9-2,2C267.4,272.5,268.3,273.4,269.4,273.4z"/>
		<path class="st2" d="M280.4,273.4c1.1,0,2-0.9,2-2c0-1.1-0.9-2-2-2c-1.1,0-2,0.9-2,2C278.4,272.5,279.3,273.4,280.4,273.4z"/>
		<path class="st2" d="M291.5,273.4c1.1,0,2-0.9,2-2c0-1.1-0.9-2-2-2c-1.1,0-2,0.9-2,2C289.5,272.5,290.4,273.4,291.5,273.4z"/>
		<path class="st2" d="M-1.9,284.5c1.1,0,2-0.9,2-2c0-1.1-0.9-2-2-2c-1.1,0-2,0.9-2,2C-3.8,283.6-3,284.5-1.9,284.5z"/>
		<path class="st2" d="M9.2,284.5c1.1,0,2-0.9,2-2c0-1.1-0.9-2-2-2c-1.1,0-2,0.9-2,2C7.2,283.6,8.1,284.5,9.2,284.5z"/>
		<path class="st2" d="M20.3,284.5c1.1,0,2-0.9,2-2c0-1.1-0.9-2-2-2c-1.1,0-2,0.9-2,2C18.3,283.6,19.2,284.5,20.3,284.5z"/>
		<path class="st2" d="M31.4,284.5c1.1,0,2-0.9,2-2c0-1.1-0.9-2-2-2c-1.1,0-2,0.9-2,2C29.4,283.6,30.3,284.5,31.4,284.5z"/>
		<path class="st2" d="M42.4,284.5c1.1,0,2-0.9,2-2c0-1.1-0.9-2-2-2c-1.1,0-2,0.9-2,2C40.4,283.6,41.3,284.5,42.4,284.5z"/>
		<path class="st2" d="M53.5,284.5c1.1,0,2-0.9,2-2c0-1.1-0.9-2-2-2c-1.1,0-2,0.9-2,2C51.5,283.6,52.4,284.5,53.5,284.5z"/>
		<path class="st2" d="M64.6,284.5c1.1,0,2-0.9,2-2c0-1.1-0.9-2-2-2s-2,0.9-2,2C62.6,283.6,63.5,284.5,64.6,284.5z"/>
		<path class="st2" d="M75.6,284.5c1.1,0,2-0.9,2-2c0-1.1-0.9-2-2-2c-1.1,0-2,0.9-2,2C73.6,283.6,74.5,284.5,75.6,284.5z"/>
		<path class="st2" d="M86.7,284.5c1.1,0,2-0.9,2-2c0-1.1-0.9-2-2-2c-1.1,0-2,0.9-2,2C84.7,283.6,85.6,284.5,86.7,284.5z"/>
		<path class="st2" d="M97.8,284.5c1.1,0,2-0.9,2-2c0-1.1-0.9-2-2-2c-1.1,0-2,0.9-2,2C95.8,283.6,96.7,284.5,97.8,284.5z"/>
		<path class="st2" d="M108.8,284.5c1.1,0,2-0.9,2-2c0-1.1-0.9-2-2-2c-1.1,0-2,0.9-2,2C106.8,283.6,107.7,284.5,108.8,284.5z"/>
		<path class="st2" d="M119.9,284.5c1.1,0,2-0.9,2-2c0-1.1-0.9-2-2-2c-1.1,0-2,0.9-2,2C117.9,283.6,118.8,284.5,119.9,284.5z"/>
		<path class="st2" d="M131,284.5c1.1,0,2-0.9,2-2c0-1.1-0.9-2-2-2c-1.1,0-2,0.9-2,2C129,283.6,129.9,284.5,131,284.5z"/>
		<path class="st2" d="M142.1,284.5c1.1,0,2-0.9,2-2c0-1.1-0.9-2-2-2c-1.1,0-2,0.9-2,2C140.1,283.6,141,284.5,142.1,284.5z"/>
		<path class="st2" d="M153.1,284.5c1.1,0,2-0.9,2-2c0-1.1-0.9-2-2-2c-1.1,0-2,0.9-2,2C151.1,283.6,152,284.5,153.1,284.5z"/>
		<path class="st2" d="M164.2,284.5c1.1,0,2-0.9,2-2c0-1.1-0.9-2-2-2c-1.1,0-2,0.9-2,2C162.2,283.6,163.1,284.5,164.2,284.5z"/>
		<path class="st2" d="M175.3,284.5c1.1,0,2-0.9,2-2c0-1.1-0.9-2-2-2c-1.1,0-2,0.9-2,2C173.3,283.6,174.2,284.5,175.3,284.5z"/>
		<path class="st2" d="M186.3,284.5c1.1,0,2-0.9,2-2c0-1.1-0.9-2-2-2c-1.1,0-2,0.9-2,2C184.3,283.6,185.2,284.5,186.3,284.5z"/>
		<path class="st2" d="M197.4,284.5c1.1,0,2-0.9,2-2c0-1.1-0.9-2-2-2c-1.1,0-2,0.9-2,2C195.4,283.6,196.3,284.5,197.4,284.5z"/>
		<path class="st2" d="M208.5,284.5c1.1,0,2-0.9,2-2c0-1.1-0.9-2-2-2c-1.1,0-2,0.9-2,2C206.5,283.6,207.4,284.5,208.5,284.5z"/>
		<path class="st2" d="M219.5,284.5c1.1,0,2-0.9,2-2c0-1.1-0.9-2-2-2c-1.1,0-2,0.9-2,2C217.5,283.6,218.4,284.5,219.5,284.5z"/>
		<path class="st2" d="M230.6,284.5c1.1,0,2-0.9,2-2c0-1.1-0.9-2-2-2c-1.1,0-2,0.9-2,2C228.6,283.6,229.5,284.5,230.6,284.5z"/>
		<path class="st2" d="M241.7,284.5c1.1,0,2-0.9,2-2c0-1.1-0.9-2-2-2c-1.1,0-2,0.9-2,2C239.7,283.6,240.6,284.5,241.7,284.5z"/>
		<path class="st2" d="M252.8,284.5c1.1,0,2-0.9,2-2c0-1.1-0.9-2-2-2c-1.1,0-2,0.9-2,2C250.8,283.6,251.7,284.5,252.8,284.5z"/>
		<path class="st2" d="M263.8,284.5c1.1,0,2-0.9,2-2c0-1.1-0.9-2-2-2c-1.1,0-2,0.9-2,2C261.8,283.6,262.7,284.5,263.8,284.5z"/>
		<path class="st2" d="M274.9,284.5c1.1,0,2-0.9,2-2c0-1.1-0.9-2-2-2c-1.1,0-2,0.9-2,2C272.9,283.6,273.8,284.5,274.9,284.5z"/>
		<path class="st2" d="M286,284.5c1.1,0,2-0.9,2-2c0-1.1-0.9-2-2-2s-2,0.9-2,2C284,283.6,284.9,284.5,286,284.5z"/>
		<path class="st2" d="M297,284.5c1.1,0,2-0.9,2-2c0-1.1-0.9-2-2-2c-1.1,0-2,0.9-2,2C295,283.6,295.9,284.5,297,284.5z"/>
		<path class="st2" d="M-7.4,295.6c1.1,0,2-0.9,2-2c0-1.1-0.9-2-2-2c-1.1,0-2,0.9-2,2C-9.4,294.7-8.5,295.6-7.4,295.6z"/>
		<path class="st2" d="M3.7,295.6c1.1,0,2-0.9,2-2c0-1.1-0.9-2-2-2c-1.1,0-2,0.9-2,2C1.7,294.7,2.6,295.6,3.7,295.6z"/>
		<path class="st2" d="M14.8,295.6c1.1,0,2-0.9,2-2c0-1.1-0.9-2-2-2c-1.1,0-2,0.9-2,2C12.8,294.7,13.6,295.6,14.8,295.6z"/>
		<path class="st2" d="M25.8,295.6c1.1,0,2-0.9,2-2c0-1.1-0.9-2-2-2c-1.1,0-2,0.9-2,2C23.8,294.7,24.7,295.6,25.8,295.6z"/>
		<path class="st2" d="M36.9,295.6c1.1,0,2-0.9,2-2c0-1.1-0.9-2-2-2c-1.1,0-2,0.9-2,2C34.9,294.7,35.8,295.6,36.9,295.6z"/>
		<path class="st2" d="M48,295.6c1.1,0,2-0.9,2-2c0-1.1-0.9-2-2-2c-1.1,0-2,0.9-2,2C46,294.7,46.9,295.6,48,295.6z"/>
		<path class="st2" d="M59,295.6c1.1,0,2-0.9,2-2c0-1.1-0.9-2-2-2c-1.1,0-2,0.9-2,2C57,294.7,57.9,295.6,59,295.6z"/>
		<path class="st2" d="M70.1,295.6c1.1,0,2-0.9,2-2c0-1.1-0.9-2-2-2c-1.1,0-2,0.9-2,2C68.1,294.7,69,295.6,70.1,295.6z"/>
		<path class="st2" d="M81.2,295.6c1.1,0,2-0.9,2-2c0-1.1-0.9-2-2-2c-1.1,0-2,0.9-2,2C79.2,294.7,80.1,295.6,81.2,295.6z"/>
		<path class="st2" d="M92.2,295.6c1.1,0,2-0.9,2-2c0-1.1-0.9-2-2-2c-1.1,0-2,0.9-2,2C90.2,294.7,91.1,295.6,92.2,295.6z"/>
		<path class="st2" d="M103.3,295.6c1.1,0,2-0.9,2-2c0-1.1-0.9-2-2-2c-1.1,0-2,0.9-2,2C101.3,294.7,102.2,295.6,103.3,295.6z"/>
		<path class="st2" d="M114.4,295.6c1.1,0,2-0.9,2-2c0-1.1-0.9-2-2-2c-1.1,0-2,0.9-2,2C112.4,294.7,113.3,295.6,114.4,295.6z"/>
		<path class="st2" d="M125.4,295.6c1.1,0,2-0.9,2-2c0-1.1-0.9-2-2-2c-1.1,0-2,0.9-2,2C123.5,294.7,124.3,295.6,125.4,295.6z"/>
		<path class="st2" d="M136.5,295.6c1.1,0,2-0.9,2-2c0-1.1-0.9-2-2-2c-1.1,0-2,0.9-2,2C134.5,294.7,135.4,295.6,136.5,295.6z"/>
		<path class="st2" d="M147.6,295.6c1.1,0,2-0.9,2-2c0-1.1-0.9-2-2-2c-1.1,0-2,0.9-2,2C145.6,294.7,146.5,295.6,147.6,295.6z"/>
		<path class="st2" d="M158.7,295.6c1.1,0,2-0.9,2-2c0-1.1-0.9-2-2-2c-1.1,0-2,0.9-2,2C156.7,294.7,157.6,295.6,158.7,295.6z"/>
		<path class="st2" d="M169.7,295.6c1.1,0,2-0.9,2-2c0-1.1-0.9-2-2-2c-1.1,0-2,0.9-2,2C167.7,294.7,168.6,295.6,169.7,295.6z"/>
		<path class="st2" d="M180.8,295.6c1.1,0,2-0.9,2-2c0-1.1-0.9-2-2-2c-1.1,0-2,0.9-2,2C178.8,294.7,179.7,295.6,180.8,295.6z"/>
		<path class="st2" d="M191.9,295.6c1.1,0,2-0.9,2-2c0-1.1-0.9-2-2-2c-1.1,0-2,0.9-2,2C189.9,294.7,190.8,295.6,191.9,295.6z"/>
		<path class="st2" d="M202.9,295.6c1.1,0,2-0.9,2-2c0-1.1-0.9-2-2-2c-1.1,0-2,0.9-2,2C200.9,294.7,201.8,295.6,202.9,295.6z"/>
		<path class="st2" d="M214,295.6c1.1,0,2-0.9,2-2c0-1.1-0.9-2-2-2c-1.1,0-2,0.9-2,2C212,294.7,212.9,295.6,214,295.6z"/>
		<path class="st2" d="M225.1,295.6c1.1,0,2-0.9,2-2c0-1.1-0.9-2-2-2c-1.1,0-2,0.9-2,2C223.1,294.7,224,295.6,225.1,295.6z"/>
		<path class="st2" d="M236.1,295.6c1.1,0,2-0.9,2-2c0-1.1-0.9-2-2-2c-1.1,0-2,0.9-2,2C234.2,294.7,235,295.6,236.1,295.6z"/>
		<path class="st2" d="M247.2,295.6c1.1,0,2-0.9,2-2c0-1.1-0.9-2-2-2c-1.1,0-2,0.9-2,2C245.2,294.7,246.1,295.6,247.2,295.6z"/>
		<path class="st2" d="M258.3,295.6c1.1,0,2-0.9,2-2c0-1.1-0.9-2-2-2c-1.1,0-2,0.9-2,2C256.3,294.7,257.2,295.6,258.3,295.6z"/>
		<path class="st2" d="M269.4,295.6c1.1,0,2-0.9,2-2c0-1.1-0.9-2-2-2c-1.1,0-2,0.9-2,2C267.4,294.7,268.3,295.6,269.4,295.6z"/>
		<path class="st2" d="M280.4,295.6c1.1,0,2-0.9,2-2c0-1.1-0.9-2-2-2c-1.1,0-2,0.9-2,2C278.4,294.7,279.3,295.6,280.4,295.6z"/>
		<path class="st2" d="M291.5,295.6c1.1,0,2-0.9,2-2c0-1.1-0.9-2-2-2c-1.1,0-2,0.9-2,2C289.5,294.7,290.4,295.6,291.5,295.6z"/>
		<path class="st2" d="M-1.9,306.6c1.1,0,2-0.9,2-2c0-1.1-0.9-2-2-2c-1.1,0-2,0.9-2,2C-3.8,305.7-3,306.6-1.9,306.6z"/>
		<path class="st2" d="M9.2,306.6c1.1,0,2-0.9,2-2c0-1.1-0.9-2-2-2c-1.1,0-2,0.9-2,2C7.2,305.7,8.1,306.6,9.2,306.6z"/>
		<path class="st2" d="M20.3,306.6c1.1,0,2-0.9,2-2c0-1.1-0.9-2-2-2c-1.1,0-2,0.9-2,2C18.3,305.7,19.2,306.6,20.3,306.6z"/>
		<circle class="st2" cx="31.4" cy="304.6" r="2"/>
		<path class="st2" d="M42.4,306.6c1.1,0,2-0.9,2-2c0-1.1-0.9-2-2-2c-1.1,0-2,0.9-2,2C40.4,305.7,41.3,306.6,42.4,306.6z"/>
		<path class="st2" d="M53.5,306.6c1.1,0,2-0.9,2-2c0-1.1-0.9-2-2-2c-1.1,0-2,0.9-2,2C51.5,305.7,52.4,306.6,53.5,306.6z"/>
		<path class="st2" d="M64.6,306.6c1.1,0,2-0.9,2-2c0-1.1-0.9-2-2-2s-2,0.9-2,2C62.6,305.7,63.5,306.6,64.6,306.6z"/>
		<path class="st2" d="M75.6,306.6c1.1,0,2-0.9,2-2c0-1.1-0.9-2-2-2c-1.1,0-2,0.9-2,2C73.6,305.7,74.5,306.6,75.6,306.6z"/>
		<circle class="st2" cx="86.7" cy="304.6" r="2"/>
		<path class="st2" d="M97.8,306.6c1.1,0,2-0.9,2-2c0-1.1-0.9-2-2-2c-1.1,0-2,0.9-2,2C95.8,305.7,96.7,306.6,97.8,306.6z"/>
		<circle class="st2" cx="108.8" cy="304.6" r="2"/>
		<circle class="st2" cx="119.9" cy="304.6" r="2"/>
		<path class="st2" d="M131,306.6c1.1,0,2-0.9,2-2c0-1.1-0.9-2-2-2c-1.1,0-2,0.9-2,2C129,305.7,129.9,306.6,131,306.6z"/>
		<path class="st2" d="M142.1,306.6c1.1,0,2-0.9,2-2c0-1.1-0.9-2-2-2c-1.1,0-2,0.9-2,2C140.1,305.7,141,306.6,142.1,306.6z"/>
		<path class="st2" d="M153.1,306.6c1.1,0,2-0.9,2-2c0-1.1-0.9-2-2-2c-1.1,0-2,0.9-2,2C151.1,305.7,152,306.6,153.1,306.6z"/>
		<circle class="st2" cx="164.2" cy="304.6" r="2"/>
		<path class="st2" d="M175.3,306.6c1.1,0,2-0.9,2-2c0-1.1-0.9-2-2-2c-1.1,0-2,0.9-2,2C173.3,305.7,174.2,306.6,175.3,306.6z"/>
		<path class="st2" d="M186.3,306.6c1.1,0,2-0.9,2-2c0-1.1-0.9-2-2-2c-1.1,0-2,0.9-2,2C184.3,305.7,185.2,306.6,186.3,306.6z"/>
		<path class="st2" d="M197.4,306.6c1.1,0,2-0.9,2-2c0-1.1-0.9-2-2-2c-1.1,0-2,0.9-2,2C195.4,305.7,196.3,306.6,197.4,306.6z"/>
		<path class="st2" d="M208.5,306.6c1.1,0,2-0.9,2-2c0-1.1-0.9-2-2-2c-1.1,0-2,0.9-2,2C206.5,305.7,207.4,306.6,208.5,306.6z"/>
		<path class="st2" d="M219.5,306.6c1.1,0,2-0.9,2-2c0-1.1-0.9-2-2-2c-1.1,0-2,0.9-2,2C217.5,305.7,218.4,306.6,219.5,306.6z"/>
		<path class="st2" d="M230.6,306.6c1.1,0,2-0.9,2-2c0-1.1-0.9-2-2-2c-1.1,0-2,0.9-2,2C228.6,305.7,229.5,306.6,230.6,306.6z"/>
		<path class="st2" d="M241.7,306.6c1.1,0,2-0.9,2-2c0-1.1-0.9-2-2-2c-1.1,0-2,0.9-2,2C239.7,305.7,240.6,306.6,241.7,306.6z"/>
		<circle class="st2" cx="252.8" cy="304.6" r="2"/>
		<path class="st2" d="M263.8,306.6c1.1,0,2-0.9,2-2c0-1.1-0.9-2-2-2c-1.1,0-2,0.9-2,2C261.8,305.7,262.7,306.6,263.8,306.6z"/>
		<path class="st2" d="M274.9,306.6c1.1,0,2-0.9,2-2c0-1.1-0.9-2-2-2c-1.1,0-2,0.9-2,2C272.9,305.7,273.8,306.6,274.9,306.6z"/>
		<path class="st2" d="M286,306.6c1.1,0,2-0.9,2-2c0-1.1-0.9-2-2-2s-2,0.9-2,2C284,305.7,284.9,306.6,286,306.6z"/>
		<path class="st2" d="M297,306.6c1.1,0,2-0.9,2-2c0-1.1-0.9-2-2-2c-1.1,0-2,0.9-2,2C295,305.7,295.9,306.6,297,306.6z"/>
	</g>
</g>
</svg>
