<?xml version="1.0" encoding="utf-8"?>
<!-- Generator: Adobe Illustrator 22.0.0, SVG Export Plug-In . SVG Version: 6.00 Build 0)  -->
<svg version="1.1" id="Layer_1" xmlns="http://www.w3.org/2000/svg" xmlns:xlink="http://www.w3.org/1999/xlink" x="0px" y="0px"
	 viewBox="0 0 170.4 92.7" style="enable-background:new 0 0 170.4 92.7;" xml:space="preserve">
<style type="text/css">
	.st0{enable-background:new    ;}
	.st1{fill:#A7CEBC;}
	.st2{fill:none;}
</style>
<symbol  id="contact" viewBox="-83.8 -8.5 169.9 31.6">
	<g class="st0">
		<path class="st1" d="M-77.2-6.9c-2.1,1-3.7,2.5-4.9,4.4c-1.1,1.9-1.7,4.2-1.7,6.7c0,3.5,0.7,6.7,2,9.4c1.3,2.7,3.1,4.9,5.4,6.4
			c2.3,1.5,4.8,2.2,7.6,2.2c2.6,0,4.6-0.7,5.9-2c1.3-1.3,2-3.1,2-5.3c0-1.5-0.3-2.6-0.8-3.5s-1.3-1.3-2.2-1.3
			c-0.7,0-1.2,0.2-1.6,0.5c-0.4,0.3-0.6,0.8-0.6,1.4c0,0.2,0,0.6,0.1,1.2c0.1,0.7,0.2,1.3,0.2,1.7c0,2.2-1.2,3.3-3.5,3.3
			c-1.6,0-3.1-0.5-4.5-1.5c-1.4-1-2.6-2.6-3.5-4.6c-0.9-2-1.3-4.4-1.3-7.1c0-2.9,0.8-5.1,2.4-6.7c1.6-1.6,4-2.4,7.1-2.4
			c1.6,0,3.1,0.2,4.7,0.6c1.6,0.4,3.4,1,5.3,1.8c0.4,0.1,0.7,0.2,0.9,0.2c0.4,0,0.7-0.1,0.9-0.4c0.2-0.3,0.3-0.7,0.3-1.1
			c0-1.5-0.8-2.5-2.4-3.2c-1.7-0.7-3.5-1.3-5.3-1.6s-3.6-0.5-5.2-0.5C-72.6-8.5-75.1-8-77.2-6.9z"/>
		<path class="st1" d="M-40.9,2.3c0.2-0.3,0.3-0.7,0.3-1.2c0-1.2-0.3-1.8-1-2.1c-1.4-0.5-3-0.8-4.8-0.9c-0.5-2-1.4-3.6-2.7-4.8
			c-1.3-1.2-2.9-1.8-4.6-1.8c-1.4,0-2.7,0.3-3.7,1c-1,0.7-1.8,1.6-2.3,2.8c-0.5,1.2-0.8,2.4-0.8,3.7c0,1.8,0.3,3.5,1,4.9
			c0.7,1.4,1.7,2.5,2.9,3.3c1.2,0.8,2.6,1.2,4.1,1.2c1.8,0,3.3-0.6,4.4-1.9c1.1-1.3,1.8-2.8,2-4.7c1.1,0.1,2.5,0.3,4,0.7
			c0.2,0,0.4,0.1,0.5,0.1C-41.4,2.7-41.1,2.6-40.9,2.3z M-51.5-3.8c0.6,0.6,0.9,1.5,1.1,2.7c-0.7,0.5-1.3,1.2-1.7,2
			c-0.4,0.8-0.6,1.7-0.6,2.6c0,0.4,0,0.8,0.1,1.2h-0.2c-1,0-1.8-0.5-2.4-1.4c-0.6-0.9-1-2.2-1-3.9c0-1.3,0.3-2.3,0.8-3s1.1-1,1.8-1
			C-52.7-4.7-52-4.4-51.5-3.8z"/>
		<path class="st1" d="M-43.2-7.1c-0.4,1-0.6,2.5-0.6,4.6c0,3.1,0.4,6.1,1.3,8.9c0.2,0.7,0.6,1.2,1.1,1.5c0.5,0.3,1.2,0.5,2.1,0.5
			c0.5,0,0.8-0.1,1-0.2c0.2-0.1,0.3-0.3,0.3-0.7c0-0.4-0.2-1.2-0.5-2.6c-0.2-1-0.4-1.8-0.6-2.5s-0.3-1.6-0.4-2.7
			c0.8,2.1,1.7,3.7,2.7,5c1,1.3,1.9,2.2,2.9,2.8c0.9,0.6,1.8,0.8,2.6,0.8c1.6,0,2.3-0.8,2.3-2.3c0-0.9-0.3-2.6-0.8-5.1
			c-0.5-2.1-0.7-3.5-0.7-4.1c0-1,0.3-1.4,1-1.4c0.5,0,1,0.3,1.7,0.9c0.7,0.6,1.5,1.5,2.6,2.9c0.3,0.3,0.6,0.5,1,0.5
			c0.3,0,0.6-0.1,0.7-0.4S-23-1.4-23-1.9c0-1-0.2-1.7-0.7-2.2c-1-1.3-2.1-2.3-3.3-3.1c-1.2-0.8-2.5-1.2-4-1.2
			c-1.2,0-2.1,0.4-2.8,1.1c-0.6,0.7-0.9,1.7-0.9,3.1c0,0.7,0.2,1.9,0.5,3.6c0.3,1.5,0.5,2.6,0.5,3.1c0,0.4-0.1,0.6-0.4,0.6
			c-0.3,0-0.8-0.4-1.3-1.2c-0.6-0.8-1.1-1.9-1.7-3.2c-0.6-1.3-1.1-2.7-1.4-4.2c-0.3-1.1-0.6-1.9-0.9-2.3c-0.3-0.4-0.9-0.6-1.6-0.6
			C-42.1-8.5-42.8-8-43.2-7.1z"/>
		<path class="st1" d="M-9.1-0.7C-9-1-8.9-1.4-8.9-1.9c0-1-0.2-1.7-0.7-2.2c-1-1.3-2.2-2.3-3.4-3.1c-1.2-0.8-2.6-1.2-4.2-1.2
			c-4.9,0-7.3,3.4-7.3,10.3c0,1.1,0,2.1,0.1,3.2h-1.4c-0.7,0-1.2,0.1-1.5,0.4c-0.3,0.3-0.4,0.7-0.4,1.3c0,1.3,0.5,2,1.6,2h2.1
			c0.4,2.6,1,5.1,1.9,7.2c0.8,2.2,1.9,3.9,3,5.2s2.5,1.9,3.8,1.9c1,0,1.8-0.4,2.4-1.3s0.9-2,0.9-3.3c0-3.7-1.6-7-4.7-9.7h4
			c0.4,0,0.7-0.1,0.8-0.3c0.2-0.2,0.3-0.5,0.3-0.9c0-1.7-1.4-2.5-4.1-2.5H-20c0-1.2-0.1-2.1-0.1-2.8c0-2.5,0.3-4.2,0.9-5.3
			c0.6-1,1.5-1.5,2.8-1.5c1,0,1.9,0.3,2.7,0.9s1.7,1.6,2.8,2.8c0.3,0.3,0.6,0.5,1,0.5C-9.6-0.3-9.3-0.5-9.1-0.7z M-17.4,18.3
			c-0.4-0.9-0.9-2.1-1.3-3.7c-0.4-1.6-0.7-3.4-1-5.3c1.4,1.2,2.5,2.6,3.2,4.1c0.7,1.5,1.1,2.9,1.1,4.2c0,1.4-0.3,2.1-0.8,2.1
			C-16.5,19.6-16.9,19.2-17.4,18.3z"/>
		<path class="st1" d="M-10.9-6.9c-0.9,1.1-1.3,2.5-1.3,4.2c0,1.9,0.4,3.7,1.3,5.5c0.9,1.7,2.1,3.1,3.5,4.1c1.5,1,3,1.6,4.7,1.6
			c0.5,0,0.9-0.1,1.1-0.3s0.3-0.6,0.5-1.1c0.5,0.1,1,0.1,1.6,0.1c1.2,0,1.8-0.4,1.8-1.3c0-0.5-0.2-1.7-0.5-3.6
			C1.1-0.4,0.8-2.3,0.8-3.4c0-0.4,0.1-0.6,0.3-0.9c0.2-0.2,0.4-0.3,0.7-0.3c0.5,0,1,0.3,1.7,0.9C4.1-3.1,5-2.1,6.1-0.8
			c0.3,0.3,0.6,0.5,1,0.5c0.3,0,0.6-0.1,0.7-0.4C8-1,8-1.4,8-1.9c0-1-0.2-1.7-0.7-2.2c-1-1.2-2-2.3-3.1-3.1C3.1-8.1,2.1-8.5,1-8.5
			c-0.8,0-1.5,0.3-2.2,0.8c-0.7,0.5-1.2,1.3-1.5,2.2c-1.2-2-2.8-3-4.7-3C-8.9-8.5-10-8-10.9-6.9z M-4.6-3.9c0.5,0.6,0.8,1.5,1,2.5
			l1.3,6.6c-1,0-1.9-0.4-2.8-1.1c-0.9-0.7-1.5-1.7-2-2.9s-0.8-2.5-0.8-3.8c0-0.7,0.1-1.3,0.5-1.7C-7-4.7-6.6-4.9-6.1-4.9
			C-5.5-4.9-5-4.6-4.6-3.9z"/>
		<path class="st1" d="M6.5-6.5c-1.3,1.3-2,3.1-2,5.3c0,1.9,0.4,3.6,1.2,5.1c0.8,1.5,1.8,2.6,3,3.4c1.2,0.8,2.5,1.2,3.9,1.2
			c1.3,0,2.3-0.4,3.1-1.2c0.7-0.8,1.1-1.8,1.1-3c0-1-0.2-1.9-0.7-2.6c-0.4-0.7-1-1-1.7-1c-0.5,0-0.8,0.1-1.1,0.3
			c-0.3,0.2-0.4,0.5-0.4,0.9c0,0.2,0,0.4,0.1,0.6S13,2.8,13,2.9c0.1,0.4,0.2,0.7,0.2,1c0,0.3-0.1,0.6-0.2,0.7
			c-0.2,0.2-0.4,0.3-0.7,0.3c-0.6,0-1.1-0.2-1.5-0.7c-0.5-0.5-0.9-1.2-1.2-2S9.1,0.4,9.1-0.6c0-2.8,1.2-4.2,3.6-4.2c1,0,2,0.3,3.2,1
			s2.3,1.7,3.4,3c0.3,0.3,0.6,0.5,1,0.5c0.3,0,0.6-0.1,0.7-0.4s0.3-0.7,0.3-1.2c0-0.9-0.2-1.7-0.7-2.2c-1.1-1.4-2.5-2.5-4-3.2
			C15-8.1,13.5-8.5,12-8.5C9.7-8.5,7.8-7.8,6.5-6.5z"/>
		<path class="st1" d="M35.4-0.7c0.2-0.3,0.3-0.7,0.3-1.2c0-1-0.2-1.7-0.7-2.2c-1-1.3-2.2-2.3-3.4-3.1c-1.2-0.8-2.6-1.2-4.2-1.2
			C22.4-8.5,20-5.1,20,1.8c0,1.1,0,2.1,0.1,3.2h-1.4c-0.7,0-1.2,0.1-1.5,0.4c-0.3,0.3-0.4,0.7-0.4,1.3c0,1.3,0.5,2,1.6,2h2.1
			c0.4,2.6,1,5.1,1.9,7.2c0.8,2.2,1.9,3.9,3,5.2c1.2,1.3,2.5,1.9,3.8,1.9c1,0,1.8-0.4,2.4-1.3s0.9-2,0.9-3.3c0-3.7-1.6-7-4.7-9.7h4
			c0.4,0,0.7-0.1,0.8-0.3C32.9,8.3,33,8,33,7.5C33,5.8,31.6,5,28.9,5h-4.4c0-1.2-0.1-2.1-0.1-2.8c0-2.5,0.3-4.2,0.9-5.3
			s1.5-1.5,2.8-1.5c1,0,1.9,0.3,2.7,0.9s1.7,1.6,2.8,2.8c0.3,0.3,0.6,0.5,1,0.5C34.9-0.3,35.2-0.5,35.4-0.7z M27.1,18.3
			c-0.4-0.9-0.9-2.1-1.3-3.7c-0.4-1.6-0.7-3.4-1-5.3c1.4,1.2,2.5,2.6,3.2,4.1c0.7,1.5,1.1,2.9,1.1,4.2c0,1.4-0.3,2.1-0.8,2.1
			C28,19.6,27.6,19.2,27.1,18.3z"/>
		<path class="st1" d="M42.9-7.1c-0.4,1-0.6,2.5-0.6,4.6c0,3.1,0.4,6.1,1.3,8.9c0.2,0.7,0.6,1.2,1.1,1.5c0.5,0.3,1.2,0.5,2.1,0.5
			c0.5,0,0.8-0.1,1-0.2c0.2-0.1,0.3-0.3,0.3-0.7c0-0.4-0.2-1.2-0.5-2.6c-0.2-1-0.4-1.8-0.6-2.5c-0.1-0.7-0.3-1.6-0.4-2.6
			c0.6,1.9,1.4,3.5,2.3,4.8c0.9,1.3,1.8,2.3,2.8,2.9c0.9,0.6,1.8,1,2.7,1c0.8,0,1.4-0.2,1.8-0.6c0.3-0.4,0.5-1,0.5-1.8
			c0-0.8-0.2-2.2-0.7-4.2c-0.2-0.9-0.3-1.5-0.4-1.9c1.2,3,2.5,5.1,4,6.4s2.8,2,4.1,2c1.6,0,2.3-0.8,2.3-2.3c0-0.9-0.3-2.6-0.8-5.1
			c-0.5-2.1-0.7-3.5-0.7-4.1c0-1,0.3-1.4,1-1.4c0.5,0,1,0.3,1.7,0.9C68-3.1,68.9-2.1,70-0.8c0.3,0.3,0.6,0.5,1,0.5
			c0.3,0,0.6-0.1,0.7-0.4c0.2-0.3,0.3-0.7,0.3-1.2c0-1-0.2-1.7-0.7-2.2c-1-1.3-2.1-2.3-3.3-3.1c-1.2-0.8-2.5-1.2-4-1.2
			c-1.2,0-2.1,0.4-2.8,1.1s-0.9,1.7-0.9,3.1c0,0.7,0.2,1.9,0.5,3.6c0.3,1.5,0.5,2.6,0.5,3.1c0,0.4-0.1,0.6-0.4,0.6
			c-0.3,0-0.8-0.4-1.3-1.2c-0.6-0.8-1.2-1.9-1.7-3.2c-0.6-1.3-1-2.7-1.4-4.2c-0.3-1.2-0.6-1.9-0.9-2.3c-0.3-0.4-0.9-0.6-1.7-0.6
			c-0.8,0-1.4,0.4-1.8,1.1c-0.4,0.8-0.6,1.7-0.6,2.8c0,0.9,0.1,2.2,0.4,4c0.2,1.5,0.3,2.5,0.3,3c0,0.4-0.1,0.6-0.4,0.6
			c-0.4,0-0.8-0.4-1.4-1.3c-0.6-0.9-1.1-2-1.6-3.3c-0.5-1.3-0.9-2.7-1.2-4c-0.3-1.1-0.6-1.9-0.9-2.3c-0.3-0.4-0.9-0.6-1.6-0.6
			C43.9-8.5,43.2-8,42.9-7.1z"/>
		<path class="st1" d="M85.8-0.7C86-1,86.1-1.4,86.1-1.9c0-1-0.2-1.7-0.7-2.2c-0.9-1.1-2.1-2.1-3.8-3c-1.6-0.9-3.4-1.4-5.2-1.4
			c-2.5,0-4.5,0.7-5.9,2.1c-1.4,1.4-2.1,3.2-2.1,5.6c0,1.7,0.3,3.2,1,4.6c0.7,1.4,1.7,2.6,2.9,3.4s2.6,1.3,4.2,1.3
			C78,8.4,79.1,8,80,7.2s1.3-2,1.3-3.4c0-1.7-0.6-3.1-1.8-4.3c-1.2-1.2-3.2-2.1-6-2.8c0.6-1.1,1.7-1.7,3.4-1.7
			c1.1,0,2.3,0.4,3.7,1.1c1.4,0.8,2.6,1.7,3.6,3c0.3,0.3,0.6,0.5,1,0.5C85.4-0.3,85.6-0.5,85.8-0.7z M73.8,3.4
			c-0.6-1-0.9-2.3-0.9-3.7v-0.1c1.4,0.3,2.5,0.8,3.3,1.5c0.8,0.7,1.2,1.5,1.2,2.3c0,0.5-0.1,0.8-0.4,1.1c-0.3,0.3-0.6,0.4-1,0.4
			C75.1,4.9,74.4,4.4,73.8,3.4z"/>
	</g>
</symbol>
<rect x="-0.8" y="36.8" class="st2" width="180.3" height="60"/>
<use xlink:href="#contact"  width="169.9" height="31.6" id="XMLID_1_" x="-83.8" y="-8.5" transform="matrix(1.0001 0 0 -1.0001 85.2001 61.586)" style="overflow:visible;"/>
</svg>
