<?xml version="1.0" encoding="utf-8"?>
<!-- Generator: Adobe Illustrator 22.0.0, SVG Export Plug-In . SVG Version: 6.00 Build 0)  -->
<svg version="1.1" id="Layer_1" xmlns="http://www.w3.org/2000/svg" xmlns:xlink="http://www.w3.org/1999/xlink" x="0px" y="0px"
	 viewBox="0 0 292.9 109.4" style="enable-background:new 0 0 292.9 109.4;" xml:space="preserve">
<style type="text/css">
	.st0{stroke:#000000;stroke-miterlimit:10;}
</style>
<g>
	<g>
		<path class="st0" d="M116.4,80.2c-1.5,2.4-3.6,4.3-6.4,5.8s-6.1,2.4-10,2.7l-2.1,12c-0.8,4.6-3.1,7-6.8,7c-2,0-3.9-0.6-5.6-1.8
			c-1.7-1.2-3.1-3-4.1-5.5c-1-2.5-1.5-5.5-1.5-9.1c0-6.8,1.1-12.5,3.3-17.2c2.2-4.7,5.1-8.2,8.8-10.6c3.7-2.4,7.7-3.5,12.2-3.5
			c3.1,0,5.8,0.5,8,1.7c2.2,1.1,3.8,2.6,4.9,4.5c1.1,1.9,1.7,4,1.7,6.4C118.6,75.3,117.8,77.9,116.4,80.2z M111.1,72.9
			c0-2.2-0.7-4-2.2-5.4c-1.5-1.4-3.7-2.1-6.7-2.1c-3.4,0-6.4,1.1-9,3.2s-4.5,5.2-5.9,9c-1.4,3.9-2.1,8.2-2.1,13.2
			c0,2.1,0.2,3.9,0.6,5.5c0.4,1.6,1,2.8,1.6,3.7c0.6,0.9,1.3,1.3,1.9,1.3c0.8,0,1.5-1.2,1.9-3.5l1.7-9.5c-1.3-0.2-1.9-0.3-1.7-0.2
			c-1-0.2-1.6-0.5-2-0.9c-0.3-0.5-0.4-1-0.4-1.7c0-0.7,0.2-1.3,0.6-1.8c0.4-0.4,1-0.7,1.7-0.7c0.3,0,0.6,0,0.8,0
			c0.8,0.1,1.4,0.2,1.8,0.2c0.4-2.6,1.1-6.1,1.9-10.5c0.2-1.1,0.7-1.9,1.4-2.4c0.7-0.5,1.6-0.7,2.5-0.7c1.1,0,1.9,0.2,2.4,0.6
			s0.7,1.1,0.7,2c0,0.5,0,1-0.1,1.3l-1.6,9.7C107.7,82.7,111.1,79.1,111.1,72.9z"/>
		<path d="M154.1,100c-1.1-1.7-1.7-3.7-1.7-6.2c0-3,0.2-5.7,0.6-8.2c0.4-2.5,1.1-5.1,2-7.9c0.4-1.2,1-2.1,1.7-2.6
			c0.7-0.5,1.9-0.8,3.4-0.8c0.9,0,1.5,0.1,1.8,0.4c0.3,0.3,0.5,0.7,0.5,1.3c0,0.3-0.2,1.4-0.7,3.2c-0.4,1.5-0.7,2.8-1,4
			c-0.8,4.2-1.2,7-1.2,8.4c0,0.8,0.1,1.4,0.3,1.8s0.5,0.5,1,0.5c0.6,0,1.4-0.6,2.2-1.8c0.9-1.2,1.9-3,2.9-5.5c1-2.4,2-5.4,3-9
			c0.3-1.2,0.8-2.1,1.5-2.6s1.6-0.8,3-0.8c0.9,0,1.6,0.1,1.9,0.3c0.4,0.2,0.5,0.6,0.5,1.2c0,1-0.5,3.7-1.5,8.2
			c-1.1,5.1-1.7,8.3-1.7,9.5c0,0.8,0.2,1.4,0.5,1.8s0.7,0.6,1.3,0.6c0.8,0,1.7-0.5,2.8-1.5c1.1-1,2.6-2.6,4.4-4.8
			c0.5-0.6,1-0.8,1.6-0.8c0.5,0,0.9,0.2,1.2,0.7c0.3,0.5,0.5,1.1,0.5,2c0,1.6-0.4,2.8-1.1,3.7c-1.7,2.1-3.6,3.9-5.6,5.2
			c-2,1.4-4.2,2-6.8,2c-1.9,0-3.3-0.7-4.2-2.2c-0.9-1.5-1.3-3.6-1.3-6.2c-0.7,2.7-1.7,4.8-3.1,6.3c-1.4,1.5-2.8,2.2-4.4,2.2
			C156.7,102.5,155.2,101.7,154.1,100z"/>
		<path d="M213,85.4c0.4,0.6,0.6,1.5,0.6,2.6c0,2.1-0.5,3.8-1.5,5c-2.3,2.8-4.8,5.1-7.5,7c-2.7,1.8-5.7,2.7-9.2,2.7
			c-4.7,0-8.2-2.1-10.4-6.4c-2.3-4.3-3.4-9.8-3.4-16.6c0-6.5,0.8-13.9,2.5-22.2c1.7-8.3,4.2-15.5,7.4-21.4c3.3-6,7.2-9,11.7-9
			c2.6,0,4.6,1.2,6,3.6c1.5,2.4,2.2,5.8,2.2,10.2c0,6.3-1.8,13.7-5.3,22.1c-3.5,8.4-8.3,16.7-14.3,24.9c0.4,2.2,1,3.7,1.8,4.7
			c0.9,0.9,2,1.4,3.4,1.4c2.2,0,4.1-0.6,5.8-1.9c1.7-1.3,3.8-3.4,6.3-6.4c0.6-0.7,1.4-1.1,2.2-1.1C212.1,84.4,212.6,84.7,213,85.4z
			 M197.4,41.6c-1.5,4.4-2.9,9.9-4.1,16.5c-1.2,6.6-1.8,12.9-1.9,18.9c3.8-6.2,6.8-12.5,9-18.8c2.2-6.3,3.4-12,3.4-17.2
			c0-4.1-0.7-6.1-2.2-6.1C200.3,35,198.9,37.2,197.4,41.6z"/>
		<path d="M212.5,102.4c-1.1-1-1.6-2-1.6-3.2c0-1,0.4-1.9,1.1-2.7s1.9-1.1,3.4-1.1c0.5,0,1.1,0.1,1.8,0.2c0.7,0.1,1.2,0.2,1.6,0.2
			c0-1-0.3-2-0.7-2.9c-0.4-0.9-1-1.8-1.6-2.7c-0.6-0.9-1.2-1.6-1.8-2.2c-1.2,2.4-2.5,4.3-3.7,5.9c-1.2,1.6-2.5,3-4,4.4
			c-0.7,0.7-1.5,1.1-2.3,1.1c-0.6,0-1.2-0.2-1.6-0.7c-0.4-0.5-0.6-1-0.6-1.7c0-0.8,0.3-1.5,0.8-2.2l0.8-1c2.2-2.7,3.9-5,5-6.7
			c0.7-1.2,1.5-2.7,2.4-4.7c0.9-1.9,1.8-3.9,2.7-6c0.8-1.8,2.3-2.6,4.7-2.6c1.1,0,1.9,0.1,2.3,0.3c0.4,0.2,0.7,0.5,0.7,1
			c0,0.2-0.1,0.6-0.2,1.1c-0.2,0.5-0.4,1-0.7,1.6c-0.7,1.4-1.1,2.7-1.1,3.7c0,0.6,0.2,1.3,0.6,2c0.4,0.7,1.1,1.6,2,2.7
			c1.3,1.7,2.2,3.1,2.9,4.3c0.7,1.2,1,2.5,1,3.9c0,0.4,0,1-0.1,1.7c2-0.8,4.3-2.8,6.9-6.1c0.5-0.6,1-0.8,1.6-0.8
			c0.5,0,0.9,0.2,1.2,0.7c0.3,0.5,0.5,1.1,0.5,2c0,1.5-0.4,2.8-1.1,3.7c-2,2.5-3.9,4.2-5.7,5.1c-1.8,0.9-4.1,1.4-6.8,1.5
			c-1.6,1.4-3.5,2-5.7,2C215.2,103.9,213.6,103.4,212.5,102.4z"/>
		<path d="M259.8,89.6c0.3,0.5,0.5,1.1,0.5,2c0,1.6-0.4,2.8-1.1,3.7c-1.5,1.8-3.6,3.5-6.3,5c-2.7,1.5-5.6,2.3-8.7,2.3
			c-4.2,0-7.5-1.1-9.8-3.4c-2.3-2.3-3.5-5.4-3.5-9.4c0-2.8,0.6-5.3,1.7-7.7c1.2-2.4,2.8-4.3,4.8-5.7c2.1-1.4,4.4-2.1,7-2.1
			c2.3,0,4.2,0.7,5.6,2.1c1.4,1.4,2.1,3.2,2.1,5.6c0,2.8-1,5.1-3,7.1c-2,2-5.3,3.5-10,4.7c1,1.8,2.9,2.8,5.7,2.8
			c1.8,0,3.8-0.6,6.1-1.9c2.3-1.3,4.3-2.9,6-5c0.5-0.6,1-0.8,1.6-0.8C259.1,88.9,259.5,89.1,259.8,89.6z M239.7,82.7
			c-1,1.7-1.5,3.8-1.5,6.2v0.1c2.4-0.6,4.2-1.4,5.6-2.5c1.4-1.1,2-2.4,2-3.9c0-0.8-0.2-1.4-0.6-1.8c-0.4-0.5-1-0.7-1.7-0.7
			C241.9,80.1,240.7,81,239.7,82.7z"/>
		<path d="M256.4,100.1c-0.6-1.6-0.9-4.2-0.9-7.7c0-5.2,0.7-10.1,2.2-14.8c0.4-1.2,1-2,1.8-2.6c0.8-0.5,2-0.8,3.5-0.8
			c0.8,0,1.4,0.1,1.7,0.3c0.3,0.2,0.5,0.6,0.5,1.1c0,0.6-0.3,2.1-0.9,4.3c-0.4,1.6-0.7,3-1,4.2s-0.4,2.7-0.6,4.4
			c1.3-3.4,2.8-6.2,4.4-8.4c1.6-2.2,3.2-3.7,4.8-4.6c1.6-0.9,3-1.4,4.3-1.4c2.6,0,3.9,1.3,3.9,3.9c0,1.6-0.4,4.4-1.3,8.5
			c-0.8,3.5-1.1,5.8-1.1,6.9c0,1.6,0.6,2.4,1.7,2.4c0.8,0,1.7-0.5,2.8-1.5c1.1-1,2.6-2.6,4.4-4.8c0.5-0.6,1-0.8,1.6-0.8
			c0.5,0,0.9,0.2,1.2,0.7c0.3,0.5,0.5,1.1,0.5,2c0,1.6-0.4,2.8-1.1,3.7c-1.7,2.1-3.6,3.9-5.6,5.2c-2,1.4-4.2,2-6.8,2
			c-2,0-3.6-0.6-4.6-1.8c-1-1.2-1.6-2.9-1.6-5.1c0-1.1,0.3-3.1,0.8-6c0.5-2.5,0.8-4.3,0.8-5.2c0-0.6-0.2-1-0.7-1
			c-0.5,0-1.2,0.7-2.2,2c-0.9,1.3-1.9,3.1-2.9,5.3c-1,2.2-1.8,4.5-2.4,7c-0.4,1.9-1,3.2-1.5,3.8c-0.6,0.7-1.5,1-2.7,1
			C258.1,102.5,257,101.7,256.4,100.1z"/>
	</g>
	<g>
		<path d="M135.1,104.2l-5.7-3.3c-1.5-1-14.4-10.5-12-20.4c1.3-5.3,4.6-6.8,6.5-7.3c4-1,8.4,1.1,10.7,3.7c0.5,0.6,1,1.2,1.4,1.7
			c0.8-0.9,1.6-1.6,2.5-2.1c4.2-2.3,7.7-2.6,10.3-0.9c3.1,2,4,6.1,3.8,9.3c-0.3,6.6-5.8,12.9-16.1,18.5L135.1,104.2z M132.8,95.9
			l2.4,1.4c5.4-3.1,11.3-7.7,11.5-12.8c0.1-1.7-0.4-3.5-1-3.9c-0.5-0.3-1.9-0.2-4.3,1.1c-0.8,0.4-1.7,1.6-2.7,3.6l-2.9,5.6l-2.5-5.8
			l0,0c0,0-0.8-1.7-3.1-4.3c-1.1-1.2-3.2-2.2-4.8-1.8c-1,0.2-1.7,1.2-2.1,2.9C122,86.9,129.8,93.8,132.8,95.9z"/>
	</g>
</g>
<g>
	<g>
		<path d="M118.3,57.5l-5.7-3.3c-1.5-1-14.4-10.5-12-20.4c1.3-5.3,4.6-6.8,6.5-7.3c4-1,8.4,1.1,10.7,3.7c0.5,0.6,1,1.2,1.4,1.7
			c0.8-0.9,1.6-1.6,2.5-2.1c4.2-2.3,7.7-2.6,10.3-0.9c3.1,2,4,6.1,3.8,9.3c-0.3,6.6-5.8,12.9-16.1,18.5L118.3,57.5z M116,49.2
			l2.4,1.4c5.4-3.1,11.3-7.7,11.5-12.8c0.1-1.7-0.4-3.5-1-3.9c-0.5-0.3-1.9-0.2-4.3,1.1c-0.8,0.4-1.7,1.6-2.7,3.6l-2.9,5.6l-2.5-5.8
			l0,0c0,0-0.8-1.7-3.1-4.3c-1.1-1.2-3.2-2.2-4.8-1.8c-1,0.2-1.7,1.2-2.1,2.9C105.2,40.2,113,47.1,116,49.2z"/>
	</g>
	<g>
		<path d="M6.4,53.2c-3.2-2-4.8-5.1-4.8-9.3c0-2.2,0.4-3.9,1.1-5c0.8-1.2,1.9-1.7,3.4-1.7c1.1,0,2,0.3,2.6,0.8c0.7,0.6,1,1.3,1,2.2
			c0,0.8-0.1,1.5-0.2,2.1c0,0.2,0,0.4-0.1,0.8c-0.1,0.4-0.1,0.8-0.1,1.3c0,1.8,0.9,3.1,2.7,4c1.8,0.9,4.4,1.3,7.7,1.3
			c3.4,0,6.1-0.6,8-1.8c1.9-1.2,2.9-2.9,2.9-5.1c0-1.4-0.4-2.5-1.3-3.5c-0.9-1-2-1.8-3.3-2.5c-1.3-0.7-3.2-1.5-5.6-2.4
			c-3.1-1.2-5.6-2.3-7.5-3.4c-1.9-1.1-3.6-2.5-5-4.4c-1.4-1.9-2.1-4.2-2.1-6.9c0-2.9,0.8-5.4,2.3-7.7c1.5-2.2,3.8-4,6.7-5.2
			c2.9-1.2,6.3-1.9,10.2-1.9c2.9,0,5.6,0.4,8,1.3C35.5,7,37.5,8.3,39,10c1.5,1.8,2.2,3.9,2.2,6.5c0,2.5-0.4,4.4-1.1,5.7
			c-0.8,1.3-1.9,1.9-3.4,1.9c-1,0-1.9-0.3-2.6-1c-0.7-0.6-1-1.4-1-2.3c0-0.8,0.1-1.5,0.2-2.1c0.1-1.2,0.2-2,0.2-2.3
			c0-1.7-0.8-3-2.5-3.8c-1.6-0.9-3.7-1.3-6.1-1.3c-3.4,0-6.1,0.6-7.9,1.9c-1.8,1.3-2.7,3-2.7,5.3c0,1.5,0.5,2.8,1.4,3.9
			c0.9,1.1,2.1,2,3.5,2.7s3.4,1.6,5.9,2.6c3,1.2,5.5,2.4,7.3,3.4c1.8,1,3.4,2.4,4.7,4.1c1.3,1.7,2,3.8,2,6.4c0,4.7-1.8,8.3-5.4,10.9
			c-3.6,2.5-8.4,3.8-14.4,3.8C13.9,56.2,9.6,55.2,6.4,53.2z"/>
		<path d="M45.4,53.3c-1.2-1.8-1.8-4.3-1.8-7.3c0-1.8,0.2-4.1,0.7-6.9s1-5.5,1.8-7.9c0.4-1.3,0.8-2.2,1.4-2.6
			c0.6-0.5,1.6-0.7,2.9-0.7c2,0,3.1,0.7,3.1,2c0,1-0.4,3.3-1.1,7c-1,4.4-1.4,7.4-1.4,8.9c0,1.2,0.2,2.1,0.5,2.8s0.9,1,1.6,1
			c0.7,0,1.6-0.5,2.7-1.5s2.5-2.6,4.3-4.7c0.5-0.6,1-0.8,1.6-0.8c0.5,0,0.9,0.2,1.2,0.7c0.3,0.5,0.5,1.1,0.5,2
			c0,1.6-0.4,2.8-1.1,3.7c-4,4.8-7.7,7.3-11.1,7.3C48.5,56,46.6,55.1,45.4,53.3z M47.8,22.7c-0.8-0.8-1.3-1.9-1.3-3.3
			s0.5-2.6,1.6-3.5c1.1-0.9,2.5-1.4,4.1-1.4c1.5,0,2.7,0.4,3.6,1.1c0.9,0.7,1.4,1.7,1.4,3.1c0,1.6-0.5,2.9-1.6,3.8
			c-1,0.9-2.4,1.4-4.1,1.4C49.9,23.8,48.6,23.4,47.8,22.7z"/>
		<path d="M59.5,53.6c-0.6-1.6-0.9-4.2-0.9-7.7c0-5.2,0.7-10.1,2.2-14.8c0.4-1.2,1-2,1.8-2.5c0.8-0.5,2-0.8,3.5-0.8
			c0.8,0,1.4,0.1,1.7,0.3c0.3,0.2,0.5,0.6,0.5,1.1c0,0.6-0.3,2.1-0.9,4.3c-0.4,1.6-0.7,3-1,4.2c-0.2,1.2-0.4,2.7-0.6,4.4
			c1.1-3.1,2.4-5.8,3.9-7.9s3-3.8,4.6-4.8c1.6-1.1,3.1-1.6,4.5-1.6s2.4,0.3,3,1c0.6,0.6,0.9,1.6,0.9,2.9c0,1.3-0.4,3.6-1.1,7
			c-0.3,1.4-0.5,2.5-0.7,3.2c2-4.9,4.2-8.5,6.7-10.7c2.4-2.2,4.7-3.4,6.8-3.4c2.6,0,3.9,1.3,3.9,3.9c0,1.6-0.4,4.4-1.3,8.5
			c-0.8,3.5-1.1,5.8-1.1,6.9c0,1.6,0.6,2.4,1.7,2.4c0.8,0,1.7-0.5,2.8-1.5c1.1-1,2.6-2.6,4.4-4.8c0.5-0.6,1-0.8,1.6-0.8
			c0.5,0,0.9,0.2,1.2,0.7c0.3,0.5,0.5,1.1,0.5,2c0,1.6-0.4,2.8-1.1,3.7c-1.7,2.1-3.6,3.9-5.5,5.2c-2,1.4-4.2,2-6.8,2
			c-2,0-3.6-0.6-4.6-1.8c-1-1.2-1.6-2.9-1.6-5.1c0-1.1,0.3-3.1,0.8-6c0.5-2.5,0.8-4.3,0.8-5.2c0-0.6-0.2-1-0.7-1
			c-0.5,0-1.3,0.7-2.2,2s-1.9,3.1-2.9,5.3c-1,2.2-1.7,4.5-2.3,7c-0.4,1.9-1,3.2-1.5,3.8c-0.6,0.6-1.5,1-2.8,1c-1.3,0-2.3-0.6-3-1.9
			s-1-2.8-1-4.6c0-1.5,0.2-3.7,0.6-6.6c0.3-2.6,0.5-4.2,0.5-5c0-0.6-0.2-1-0.7-1c-0.6,0-1.4,0.7-2.3,2.2c-0.9,1.4-1.8,3.3-2.7,5.5
			s-1.6,4.4-2.1,6.6c-0.4,1.9-1,3.2-1.5,3.8c-0.6,0.7-1.5,1-2.7,1C61.2,56,60.1,55.2,59.5,53.6z"/>
		<path d="M136,53.6c-0.6-1.6-0.9-4.2-0.9-7.7c0-5.2,0.7-10.1,2.2-14.8c0.4-1.2,1-2,1.8-2.5c0.8-0.5,2-0.8,3.5-0.8
			c0.8,0,1.4,0.1,1.7,0.3c0.3,0.2,0.5,0.6,0.5,1.1c0,0.6-0.3,2.1-0.9,4.3c-0.4,1.6-0.7,3-1,4.2s-0.4,2.7-0.6,4.4
			c1.3-3.4,2.8-6.2,4.4-8.4c1.6-2.2,3.2-3.7,4.8-4.6c1.6-0.9,3-1.4,4.3-1.4c2.6,0,3.9,1.3,3.9,3.9c0,1.6-0.4,4.4-1.3,8.5
			c-0.8,3.5-1.1,5.8-1.1,6.9c0,1.6,0.6,2.4,1.7,2.4c0.8,0,1.7-0.5,2.8-1.5c1.1-1,2.6-2.6,4.4-4.8c0.5-0.6,1-0.8,1.6-0.8
			c0.5,0,0.9,0.2,1.2,0.7c0.3,0.5,0.5,1.1,0.5,2c0,1.6-0.4,2.8-1.1,3.7c-1.7,2.1-3.6,3.9-5.6,5.2c-2,1.4-4.2,2-6.8,2
			c-2,0-3.6-0.6-4.6-1.8c-1-1.2-1.6-2.9-1.6-5.1c0-1.1,0.3-3.1,0.8-6c0.5-2.5,0.8-4.3,0.8-5.2c0-0.6-0.2-1-0.7-1
			c-0.5,0-1.2,0.7-2.2,2c-0.9,1.3-1.9,3.1-2.9,5.3c-1,2.2-1.8,4.5-2.4,7c-0.4,1.9-1,3.2-1.5,3.8c-0.6,0.7-1.5,1-2.7,1
			C137.7,56,136.6,55.2,136,53.6z"/>
		<path d="M192.7,43.1c0.3,0.5,0.5,1.1,0.5,2c0,1.6-0.4,2.8-1.1,3.7c-1.5,1.8-3.6,3.5-6.3,5c-2.7,1.5-5.6,2.3-8.7,2.3
			c-4.2,0-7.5-1.1-9.8-3.4c-2.3-2.3-3.5-5.4-3.5-9.4c0-2.8,0.6-5.3,1.7-7.7c1.2-2.4,2.8-4.3,4.8-5.7c2.1-1.4,4.4-2.1,7-2.1
			c2.3,0,4.2,0.7,5.6,2.1c1.4,1.4,2.1,3.3,2.1,5.6c0,2.8-1,5.1-3,7.1c-2,2-5.3,3.5-10,4.7c1,1.8,2.9,2.8,5.7,2.8
			c1.8,0,3.8-0.6,6.1-1.9c2.3-1.3,4.3-2.9,6-5c0.5-0.6,1-0.8,1.6-0.8C192,42.4,192.4,42.6,192.7,43.1z M172.6,36.2
			c-1,1.7-1.5,3.8-1.5,6.2v0.1c2.4-0.6,4.2-1.4,5.6-2.5c1.4-1.1,2-2.4,2-3.9c0-0.8-0.2-1.4-0.6-1.8c-0.4-0.5-1-0.7-1.7-0.7
			C174.8,33.7,173.6,34.5,172.6,36.2z"/>
	</g>
</g>
</svg>
