<?xml version="1.0" encoding="utf-8"?>
<!-- Generator: Adobe Illustrator 22.0.0, SVG Export Plug-In . SVG Version: 6.00 Build 0)  -->
<svg version="1.1" id="Ui_Element" xmlns="http://www.w3.org/2000/svg" xmlns:xlink="http://www.w3.org/1999/xlink" x="0px" y="0px"
	 viewBox="0 0 1692.4 886.3" style="enable-background:new 0 0 1692.4 886.3;" xml:space="preserve">
<style type="text/css">
	.st0{opacity:0.41;fill:#A7CEBC;enable-background:new    ;}
	.st1{fill:#D1D2D3;}
	.st2{fill:#0F142B;}
	.st3{fill:#99CC99;}
	.st4{opacity:0.1;enable-background:new    ;}
	.st5{fill:#10152B;}
	.st6{fill:#081D3A;}
	.st7{fill:#FFD11B;}
	.st8{fill:#08192D;}
	.st9{fill:#FFFFFF;}
	.st10{fill:#ED5D5D;}
	.st11{fill:#FDFCF4;}
	.st12{fill:#01667C;}
	.st13{fill:#007193;}
	.st14{fill:#FBB826;}
	.st15{fill:#1C6693;}
	.st16{fill:#06B8DD;}
	.st17{fill:#0F3653;}
	.st18{fill:#1A5370;}
	.st19{fill:#FDC545;}
	.st20{fill:#BBBDBF;}
	.st21{fill:#F1F1F2;}
	.st22{fill:#E6E6E6;}
	.st23{fill:#3B3F4F;}
	.st24{fill:none;}
	.st25{enable-background:new    ;}
	.st26{fill:none;stroke:#000000;stroke-width:3;stroke-miterlimit:10;}
	.st27{fill:none;stroke:#000000;stroke-width:3;stroke-miterlimit:10;stroke-dasharray:8.6392,8.6392;}
	.st28{fill:none;stroke:#000000;stroke-width:3;stroke-miterlimit:10;stroke-dasharray:11.7532,11.7532;}
	.st29{fill:none;stroke:#000000;stroke-width:3;stroke-miterlimit:10;stroke-dasharray:11.6362,11.6362;}
	.st30{fill:none;stroke:#000000;stroke-width:3;stroke-miterlimit:10;stroke-dasharray:12.4383,12.4383;}
	.st31{fill:none;stroke:#000000;stroke-width:3;stroke-miterlimit:10;stroke-dasharray:12;}
</style>
<symbol  id="skills" viewBox="-677.5 -407.2 1355 814.4">
	<g id="Background_20_">
		<ellipse id="Background_2_20_" class="st0" cx="-492.5" cy="-232.8" rx="185" ry="174.4"/>
	</g>
	<g id="Background_19_">
		<ellipse id="Background_2_19_" class="st0" cx="452.5" cy="-216.4" rx="135.4" ry="122.4"/>
	</g>
	<g id="Background_18_">
		<ellipse id="Background_2_18_" class="st0" cx="350.1" cy="279.7" rx="133.7" ry="126"/>
	</g>
	<g id="Background_17_">
		<ellipse id="Background_2_17_" class="st0" cx="-472.4" cy="219.5" rx="130.8" ry="123"/>
	</g>
	<g id="Background_16_">
		<circle id="Background_2_16_" class="st0" cx="26.7" cy="6.9" r="239.8"/>
	</g>
	<g id="Ui_Element_4_">
		<g>
			<rect x="-1.6" y="-158.4" class="st1" width="58.8" height="38"/>
			<path class="st1" d="M173.1-120.1c0-4.2-3.4-7.6-7.6-7.6h-275.4c-4.2,0-7.6,3.4-7.6,7.6V81.5c0,4.2,3.4,7.6,7.6,7.6h275.4
				c4.2,0,7.6-3.4,7.6-7.6V-120.1z"/>
			<path class="st2" d="M165.5,89.1h-275.4c-4.2,0-7.6-3.4-7.6-7.6V-90.3h290.7V81.5C173.1,85.7,169.7,89.1,165.5,89.1z"/>
			<rect x="-108" y="-79.1" class="st3" width="271.5" height="158.2"/>
			<rect x="-13.4" y="-168.9" class="st1" width="82.3" height="14.1"/>
			<rect x="-1.6" y="-137.7" class="st4" width="58.8" height="9.2"/>
			<path class="st5" d="M34.9-107.4c0-3.9-3.2-7.1-7.1-7.1c-3.9,0-7.1,3.2-7.1,7.1c0,3.9,3.2,7.1,7.1,7.1
				C31.7-100.4,34.9-103.5,34.9-107.4z"/>
		</g>
		<g>
			<g>
				<rect x="210.3" y="3" class="st6" width="20" height="20"/>
				<path class="st7" d="M220.3,70.7c-11.9,0-21.5-9.6-21.5-21.5c0-3.4,0.8-6.7,2.3-9.6c2.5-5.2,9.2-16.6,9.2-16.6h10h10
					c0,0,6.7,11.4,9.2,16.6c1.4,2.9,2.3,6.1,2.3,9.6C241.8,61.1,232.2,70.7,220.3,70.7z"/>
				<rect x="215.3" y="0.4" class="st8" width="10" height="2.6"/>
				<rect x="216.4" y="-2.2" class="st8" width="7.8" height="2.6"/>
				<rect x="219.8" y="23" class="st9" width="1" height="20.9"/>
				<rect x="218" y="42.7" class="st9" width="4.6" height="1.2"/>
				<rect x="218" y="40.7" class="st9" width="4.6" height="1.2"/>
				<rect x="218" y="38.7" class="st9" width="4.6" height="1.2"/>
			</g>
			<path class="st7" d="M260.4,48.4c0-0.9-0.7-1.6-1.6-1.6h-8.9c-0.9,0-1.6,0.7-1.6,1.6v0.3c0,0.9,0.7,1.6,1.6,1.6h8.9
				c0.9,0,1.6-0.7,1.6-1.6V48.4z"/>
			<path class="st7" d="M254,76.2c0.6-0.6,0.6-1.6,0-2.2l-6.3-6.3c-0.6-0.6-1.6-0.6-2.2,0l-0.2,0.2c-0.6,0.6-0.6,1.6,0,2.2l6.3,6.3
				c0.6,0.6,1.6,0.6,2.2,0L254,76.2z"/>
			<path class="st7" d="M253.8,21.4c-0.6-0.6-1.6-0.6-2.2,0l-6.3,6.3c-0.6,0.6-0.6,1.6,0,2.2l0.2,0.2c0.6,0.6,1.6,0.6,2.2,0l6.3-6.3
				c0.6-0.6,0.6-1.6,0-2.2L253.8,21.4z"/>
			<path class="st7" d="M185.5,77.8c0.6,0.6,1.6,0.6,2.2,0l6.3-6.3c0.6-0.6,0.6-1.6,0-2.2l-0.2-0.2c-0.6-0.6-1.6-0.6-2.2,0l-6.3,6.3
				c-0.6,0.6-0.6,1.6,0,2.2L185.5,77.8z"/>
			<path class="st7" d="M185.3,21.6c-0.6,0.6-0.6,1.6,0,2.2l6.3,6.3c0.6,0.6,1.6,0.6,2.2,0l0.2-0.2c0.6-0.6,0.6-1.6,0-2.2l-6.3-6.3
				c-0.6-0.6-1.6-0.6-2.2,0L185.3,21.6z"/>
			<path class="st7" d="M220.2,80.3c-0.9,0-1.6,0.7-1.6,1.6v8.9c0,0.9,0.7,1.6,1.6,1.6h0.3c0.9,0,1.6-0.7,1.6-1.6v-8.9
				c0-0.9-0.7-1.6-1.6-1.6H220.2z"/>
			<path class="st7" d="M190.9,48.4c0-0.9-0.7-1.6-1.6-1.6h-8.9c-0.9,0-1.6,0.7-1.6,1.6v0.3c0,0.9,0.7,1.6,1.6,1.6h8.9
				c0.9,0,1.6-0.7,1.6-1.6V48.4z"/>
		</g>
		<g>
			<rect x="-42" y="109.3" class="st10" width="230.4" height="44.3"/>
			<rect x="-42" y="109.3" class="st11" width="49.8" height="44.3"/>
			<g>
				<g>
					<g>
						
							<rect x="-14.7" y="125.2" transform="matrix(0.7072 -0.707 0.707 0.7072 -94.2376 27.8957)" class="st12" width="2.6" height="5"/>
						<path class="st13" d="M-1.8,118.9c0.4-0.4,0.4-1,0-1.3l-1.3-1.3c-0.4-0.4-1-0.4-1.3,0l-8.2,8.2c-0.4,0.4-0.4,1,0,1.3l1.3,1.3
							c0.4,0.4,1,0.4,1.3,0L-1.8,118.9z"/>
						<g>
							<path class="st13" d="M-29.6,144c-4.1-4.1-4.1-10.6,0-14.7s10.6-4.1,14.7,0c4.1,4.1,4.1,10.6,0,14.7
								C-18.9,148-25.5,148-29.6,144z M-16.4,130.8c-3.2-3.2-8.4-3.2-11.6,0c-3.2,3.2-3.2,8.4,0,11.6s8.4,3.2,11.6,0
								S-13.2,134-16.4,130.8z"/>
						</g>
						
							<rect x="-13.3" y="125" transform="matrix(0.707 -0.7072 0.7072 0.707 -92.3788 28.7685)" class="st14" width="3.7" height="1.7"/>
					</g>
					<path class="st4" d="M-10.1,127.1l-0.7,0.7l-0.7-0.7l-0.7-0.7l1.2-1.2l8.4-8.4l0.7,0.7c0.4,0.4,0.4,1,0,1.3L-10.1,127.1
						L-10.1,127.1z"/>
				</g>
			</g>
		</g>
		<g>
			<rect x="-197.2" y="101.5" class="st11" width="113.8" height="23.8"/>
			<rect x="-197.2" y="101.5" class="st15" width="9.4" height="23.8"/>
			<rect x="-109.7" y="101.5" class="st15" width="26.3" height="23.8"/>
			<polygon class="st16" points="-101.4,117.6 -96.5,109.2 -91.7,117.6 			"/>
		</g>
		<g>
			<rect x="-237.1" y="-45.9" class="st17" width="153.2" height="99.7"/>
			<rect x="-237.1" y="40.4" class="st18" width="153.2" height="13.4"/>
			<rect x="-226.4" y="19.9" class="st9" width="131.8" height="9.3"/>
			<rect x="-226.4" y="6.7" class="st9" width="131.8" height="9.3"/>
			<rect x="-148.6" y="-13.6" class="st19" width="22.8" height="12"/>
			<rect x="-117.9" y="-13.6" class="st19" width="22.8" height="12"/>
		</g>
		<g>
			<rect x="-41.2" y="-52.9" class="st18" width="143.3" height="108.7"/>
			<rect x="-36.2" y="-26.4" class="st17" width="133.3" height="77.4"/>
			<rect x="-32" y="-39.6" class="st20" width="80.9" height="5.3"/>
			<rect x="55.1" y="-39.6" class="st21" width="36.2" height="5.3"/>
			<rect x="48.9" y="-39.6" class="st16" width="6.2" height="5.3"/>
			<path class="st10" d="M50.8,30.6H10.2c-2,0-3.6-1.6-3.6-3.6V-2.3c0-2,1.6-3.6,3.6-3.6h20.9h19.7c2,0,3.6,1.6,3.6,3.6v8.5V27
				C54.3,29,52.7,30.6,50.8,30.6z"/>
			<g>
				<polygon class="st11" points="25.7,20.7 40.2,12.3 25.7,4 				"/>
			</g>
		</g>
		<path class="st10" d="M250.3-100.4c0-18.8-15.3-34.1-34.1-34.1s-34.1,15.3-34.1,34.1s15.3,34.1,34.1,34.1S250.3-81.5,250.3-100.4z
			"/>
		<g>
			<g>
				<rect x="199.8" y="-107.7" class="st9" width="2.9" height="14.7"/>
				<polygon class="st9" points="217.3,-115.7 203.8,-107.7 203.8,-93 217.3,-85 				"/>
			</g>
			<g>
				<path class="st9" d="M221.5-106.9c1,0.7,1.9,1.7,2.5,2.8s0.9,2.4,0.9,3.7s-0.3,2.6-0.9,3.7c-0.6,1.1-1.4,2.1-2.5,2.8
					c-0.5,0.3-1.1,0.2-1.4-0.2c-0.3-0.5-0.2-1.1,0.2-1.4c0.8-0.5,1.4-1.2,1.8-2.1c0.4-0.8,0.7-1.8,0.7-2.8s-0.2-2-0.7-2.8
					c-0.4-0.8-1.1-1.5-1.8-2.1c-0.5-0.3-0.6-0.9-0.2-1.4C220.5-107.1,221.1-107.2,221.5-106.9L221.5-106.9z"/>
				<path class="st9" d="M225.9-113.3c2,1.4,3.7,3.3,4.9,5.5c1.2,2.2,1.8,4.7,1.8,7.4s-0.7,5.2-1.8,7.4c-1.2,2.2-2.9,4.1-4.9,5.5
					c-0.5,0.3-1.1,0.2-1.4-0.2c-0.3-0.5-0.2-1.1,0.2-1.4c1.8-1.2,3.3-2.9,4.3-4.8c1-1.9,1.6-4.1,1.6-6.5c0-2.3-0.6-4.5-1.6-6.5
					c-1-1.9-2.5-3.6-4.3-4.8c-0.5-0.3-0.6-0.9-0.2-1.4C224.8-113.5,225.4-113.6,225.9-113.3L225.9-113.3z"/>
			</g>
		</g>
		<g>
			<path class="st22" d="M-192.5-120.3c0-1.4,1.2-2.6,2.6-2.6h58.8c1.4,0,2.6,1.2,2.6,2.6v46.6h-64L-192.5-120.3L-192.5-120.3z"/>
			<g>
				<path class="st23" d="M-162.6-92.1c0-0.8-0.1-1.4-0.4-1.8c-0.3-0.4-0.7-0.9-1.4-1.4l-5.7-4.5c-0.2-0.1-0.3-0.4-0.3-0.7v-4.7h7.3
					l-1.1-5.6h-12.2v10.8c0,1,0.1,1.8,0.4,2.4c0.3,0.7,0.8,1.2,1.5,1.7l5.7,4.4c0.2,0.1,0.3,0.2,0.4,0.3c0,0.1,0.1,0.2,0.1,0.3v3.9
					c0,0.4-0.2,0.5-0.6,0.5h-7.4l1,5.6h9.1c1,0,1.8-0.3,2.5-1c0.7-0.6,1-1.5,1-2.7v-7.5H-162.6z"/>
				<path class="st23" d="M-160.1-84.9c0,1.2,0.3,2.2,1,3s1.7,1.2,3.1,1.2h7.4c1.4,0,2.4-0.4,3.1-1.2c0.7-0.8,1-1.8,1-3v-21.8
					c0-1.2-0.3-2.2-1-3s-1.7-1.2-3.1-1.2h-7.4c-1.4,0-2.4,0.4-3.1,1.2c-0.7,0.8-1,1.8-1,3V-84.9z M-153.5-86c-0.4,0-0.5-0.2-0.5-0.6
					v-18.3c0-0.2,0-0.4,0.1-0.5s0.2-0.1,0.5-0.1h2.2c0.2,0,0.4,0,0.5,0.1s0.1,0.3,0.1,0.5v18.3c0,0.4-0.2,0.6-0.5,0.6H-153.5z"/>
			</g>
			<path class="st10" d="M-131.1-58.9h-2.2v-3.3c0.7-0.3,1.3-1,1.3-1.8c0-1.1-0.9-1.9-1.9-1.9c-1.1,0-1.9,0.9-1.9,1.9
				c0,0.8,0.5,1.5,1.3,1.8v3.3h-11.9v-3.3c0.7-0.3,1.3-1,1.3-1.8c0-1.1-0.9-1.9-1.9-1.9c-1.1,0-1.9,0.9-1.9,1.9
				c0,0.8,0.5,1.5,1.3,1.8v3.3h-11.9v-3.3c0.7-0.3,1.3-1,1.3-1.8c0-1.1-0.9-1.9-1.9-1.9c-1.1,0-1.9,0.9-1.9,1.9
				c0,0.8,0.5,1.5,1.3,1.8v3.3h-11.9v-3.3c0.7-0.3,1.3-1,1.3-1.8c0-1.1-0.9-1.9-1.9-1.9s-1.9,0.9-1.9,1.9c0,0.8,0.5,1.5,1.3,1.8v3.3
				h-12.5v-3.3c0.7-0.3,1.3-1,1.3-1.8c0-1.1-0.9-1.9-1.9-1.9s-1.9,0.9-1.9,1.9c0,0.8,0.5,1.5,1.3,1.8v3.3h-2.3
				c-1.4,0-2.6-1.2-2.6-2.6v-7.6v-4.6h64v4.6v7.6C-128.5-60.1-129.7-58.9-131.1-58.9z"/>
		</g>
	</g>
	<rect x="366.3" y="-310.1" class="st24" width="311.2" height="132.7"/>
	<g class="st25">
		<path d="M430.9-214.7c0.5-0.5,0.8-1.1,0.8-1.9c0-1.2-0.4-2.4-1.1-3.3c-0.7-1-1.9-1.5-3.5-1.5c-3.8-0.1-7.2,0.2-10.2,0.9
			c-3.4-7.2-7.5-13.1-12.3-17.8c-4.8-4.7-9.7-7.1-14.5-7.1c-5,0-8.7,2.9-11.2,8.7s-3.7,13.7-3.7,23.5c0,8.4,0.6,16,1.8,22.8
			c0.4,2.5,1,4.2,1.8,5.1c0.8,0.9,2.1,1.3,4.1,1.3c3.2,0,4.8-1.4,4.8-4.1c0-0.3,0-0.8-0.1-1.6c-1.4-8.6-2.2-16.5-2.2-23.5
			c0-7.3,0.6-12.9,1.8-16.7c1.2-3.8,3.1-5.7,5.5-5.7c2.5,0,5.2,1.7,8.1,5.2c2.9,3.5,5.6,7.8,8.1,13c-2.9,1.8-5.1,4.2-6.6,7.1
			c-1.5,2.9-2.2,6.3-2.2,10c0,3.8,0.6,7,1.8,9.6c1.2,2.6,2.8,4.6,4.8,5.9c2,1.3,4.3,1.9,6.8,1.9c3.1,0,5.5-1.1,7.3-3.3
			c1.8-2.2,2.7-5.2,2.7-9.1c0-5.5-1.2-11.5-3.6-18.1c2.5-0.4,5.4-0.6,8.7-0.6C429.6-214,430.4-214.2,430.9-214.7z M411.8-210.3
			c1.9,5.4,2.8,9.8,2.8,13.3c0,2-0.3,3.5-0.8,4.4c-0.5,0.9-1.2,1.4-2.2,1.4c-1.3,0-2.4-0.8-3.2-2.3c-0.8-1.5-1.2-3.7-1.2-6.4
			C407.2-204.5,408.8-208,411.8-210.3z"/>
		<path d="M426.7-242.2c-1.4,2.2-2.1,5.1-2.1,8.8c0,2.2,0.3,4.9,0.8,8.3c0.6,3.4,1.3,6.5,2.1,9.5c0.4,1.5,1,2.6,1.7,3.2
			c0.7,0.6,1.9,0.9,3.5,0.9c2.4,0,3.7-0.8,3.7-2.4c0-1.2-0.5-4-1.4-8.4c-1.2-5.3-1.7-8.9-1.7-10.7c0-1.4,0.2-2.5,0.6-3.3
			c0.4-0.8,1-1.2,1.9-1.2c0.9,0,1.9,0.6,3.2,1.8c1.3,1.2,3,3.1,5.2,5.7c0.6,0.7,1.2,1,1.9,1c0.6,0,1.1-0.3,1.5-0.9
			c0.4-0.6,0.5-1.4,0.5-2.4c0-1.9-0.5-3.4-1.4-4.5c-4.8-5.8-9.2-8.7-13.3-8.7C430.4-245.5,428.1-244.4,426.7-242.2z M429.6-205.4
			c-1,0.9-1.5,2.2-1.5,3.9c0,1.7,0.7,3.1,2,4.2s3,1.7,4.9,1.7c1.8,0,3.2-0.4,4.3-1.3c1.1-0.9,1.7-2.1,1.7-3.7c0-1.9-0.6-3.4-1.9-4.6
			c-1.2-1.1-2.9-1.7-5-1.7C432.1-206.8,430.6-206.3,429.6-205.4z"/>
		<path d="M484.8-229.9c0.4-0.6,0.5-1.4,0.5-2.4c0-1.9-0.5-3.4-1.4-4.5c-2-2.4-4.1-4.5-6.5-6.2c-2.4-1.7-4.7-2.6-7-2.6
			c-3.6,0-6.4,2.1-8.4,6.4c-2-2.5-3.8-4.2-5.3-5.1c-1.5-0.9-3.3-1.3-5.3-1.3c-2.9,0-5.3,1.1-7.2,3.3c-1.9,2.2-2.8,5-2.8,8.5
			c0,3.8,0.8,7.4,2.4,10.7c1.6,3.3,3.9,6,6.7,8.1c2.9,2.1,6.1,3.3,9.6,3.7c0.9,9.3,2.7,17.3,5.2,23.9c2.6,6.6,5.9,9.9,10.1,9.9
			c2.1,0,3.8-0.9,5.1-2.8c1.4-1.9,2.1-4.7,2.1-8.5c0-5.4-1.3-11.7-4-18.9c-2.6-7.2-6.2-14.6-10.6-22.2c0.2-2.8,0.6-4.8,1.3-6
			c0.6-1.2,1.5-1.8,2.5-1.8c1.3,0,2.6,0.6,4,1.7s3.1,3.1,5.4,5.8c0.6,0.7,1.2,1,1.9,1C483.9-229,484.4-229.3,484.8-229.9z
			 M456.8-237.1c0.9,0.7,2.1,2.1,3.5,4.1c-0.5,2.6-0.7,5.5-0.7,8.7c0,1.2,0,3,0.1,5.6c-2.6-0.8-4.8-2.6-6.6-5.3
			c-1.8-2.7-2.6-5.7-2.6-9c0-3.5,1.2-5.3,3.6-5.3C455-238.2,455.9-237.8,456.8-237.1z M472-189.3c-0.9-3.2-1.7-7.5-2.3-12.7
			c-0.6-5.2-1.1-10.7-1.4-16.4c5.4,11.7,8.1,21.1,8.1,28.2c0,1.8-0.2,3.2-0.5,4.2c-0.3,1-0.7,1.5-1.1,1.5
			C473.9-184.5,473-186.1,472-189.3z"/>
		<path d="M513-229.9c0.4-0.6,0.5-1.4,0.5-2.4c0-1.9-0.5-3.4-1.4-4.5c-1.8-2.2-4.3-4.2-7.5-6c-3.2-1.8-6.7-2.7-10.4-2.7
			c-5,0-9,1.4-11.7,4.1c-2.8,2.7-4.2,6.5-4.2,11.2c0,3.3,0.7,6.4,2.1,9.3c1.4,2.9,3.3,5.1,5.8,6.8c2.5,1.7,5.3,2.5,8.4,2.5
			c2.8,0,5-0.8,6.7-2.5c1.7-1.7,2.5-3.9,2.5-6.7c0-3.3-1.2-6.2-3.6-8.5s-6.4-4.3-12.1-5.7c1.2-2.2,3.5-3.3,6.8-3.3
			c2.2,0,4.6,0.8,7.4,2.3c2.8,1.5,5.1,3.5,7.2,5.9c0.6,0.7,1.2,1,1.9,1C512.2-229,512.7-229.3,513-229.9z M488.9-221.7
			c-1.2-2.1-1.8-4.6-1.8-7.5v-0.1c2.8,0.7,5.1,1.7,6.7,3c1.6,1.3,2.4,2.9,2.4,4.7c0,0.9-0.3,1.6-0.8,2.2c-0.5,0.6-1.2,0.8-2.1,0.8
			C491.7-218.6,490.2-219.6,488.9-221.7z"/>
		<path d="M545.9-223.9c0.3-0.6,0.5-1.4,0.5-2.4c0-2.3-0.7-3.7-2.1-4.1c-2.9-1-6-1.6-9.5-1.7c-0.9-4-2.7-7.3-5.4-9.7
			c-2.7-2.4-5.7-3.6-9.1-3.6c-2.9,0-5.3,0.7-7.4,2.1c-2,1.4-3.6,3.2-4.6,5.5c-1.1,2.3-1.6,4.8-1.6,7.5c0,3.6,0.7,6.9,2.1,9.8
			c1.4,2.9,3.3,5.1,5.8,6.7c2.4,1.6,5.2,2.4,8.1,2.4c3.6,0,6.6-1.3,8.8-3.8c2.2-2.5,3.5-5.6,3.9-9.3c2.3,0.1,4.9,0.6,8.1,1.4
			c0.4,0.1,0.7,0.1,1,0.1C545.1-223,545.6-223.3,545.9-223.9z M524.9-236c1.1,1.2,1.9,3,2.3,5.4c-1.5,1-2.6,2.3-3.4,4
			c-0.8,1.6-1.2,3.4-1.2,5.2c0,0.8,0.1,1.5,0.2,2.3h-0.4c-1.9,0-3.5-0.9-4.8-2.8c-1.3-1.8-1.9-4.5-1.9-7.8c0-2.6,0.5-4.7,1.5-6
			c1-1.4,2.2-2.1,3.6-2.1C522.4-237.8,523.7-237.2,524.9-236z"/>
	</g>
	<rect x="297.5" y="184.9" class="st24" width="372.5" height="128.2"/>
	<g class="st25">
		<path d="M358.4,328.6c0.5-0.5,0.7-1,0.7-1.8c0-1.2-0.4-2.2-1.1-3.1c-0.7-0.9-1.8-1.4-3.3-1.4c-3.6,0-6.8,0.2-9.7,0.8
			c-3.2-6.8-7-12.4-11.5-16.8c-4.5-4.5-8.9-6.7-13.2-6.7c-4,0-7,2.1-9,6.4c-2,4.2-3.1,9.9-3.4,17c-2.7-7.9-5.8-13.8-9.2-17.6
			c-3.4-3.9-7.1-5.8-10.9-5.8c-4.4,0-7.6,2.7-9.9,8.1c-2.2,5.4-3.3,12.7-3.3,21.9c0,6.7,0.6,14,1.8,22c0.3,2.3,0.9,3.8,1.7,4.7
			s2.2,1.3,4,1.3c1.4,0,2.4-0.3,3.2-0.9c0.7-0.6,1.1-1.7,1.1-3.3c0-0.3,0-0.9-0.1-1.8c-1.4-9.3-2-17.2-2-23.7
			c0-6.1,0.5-10.8,1.6-14.1c1-3.3,2.4-5,4.2-5c1.6,0,3.5,1.7,5.7,5s4.5,8.3,6.7,14.8c2.2,6.5,4.1,14.4,5.6,23.4c0.4,2.1,1,3.5,2,4.3
			s2.3,1.2,4,1.2c1.4,0,2.4-0.3,3.1-0.9c0.7-0.6,1-1.5,1-2.8c0-0.7,0-1.3-0.1-1.7c-1.3-7.4-1.9-14.8-1.9-22.2c0-5,0.2-9,0.5-12
			s1-5.3,2-6.8c1-1.6,2.4-2.3,4.2-2.3c2.2,0,4.6,1.6,7.3,4.9c2.7,3.3,5.1,7.4,7.3,12.3c-2.8,1.7-4.9,4-6.3,6.7
			c-1.4,2.7-2.1,5.9-2.1,9.5c0,3.6,0.6,6.6,1.7,9.1c1.1,2.5,2.6,4.3,4.6,5.5c1.9,1.2,4.1,1.8,6.4,1.8c2.9,0,5.2-1,6.9-3.1
			c1.7-2.1,2.5-4.9,2.5-8.6c0-5.1-1.1-10.8-3.3-17.1c2.3-0.4,5-0.6,8.2-0.6C357.2,329.3,357.9,329.1,358.4,328.6z M340.3,332.9
			c1.8,5.1,2.7,9.3,2.7,12.6c0,1.9-0.2,3.3-0.7,4.2c-0.5,0.9-1.2,1.3-2,1.3c-1.2,0-2.2-0.7-3-2.1c-0.8-1.4-1.2-3.5-1.2-6.1
			C336.1,338.3,337.5,335,340.3,332.9z"/>
		<path d="M384.2,314.3c0.3-0.5,0.5-1.3,0.5-2.2c0-1.8-0.4-3.2-1.3-4.2c-1.7-2-4-3.9-7.1-5.6c-3.1-1.7-6.3-2.6-9.8-2.6
			c-4.8,0-8.5,1.3-11.1,3.9c-2.6,2.6-3.9,6.1-3.9,10.6c0,3.1,0.7,6,2,8.7c1.3,2.7,3.1,4.8,5.5,6.4s5,2.4,7.9,2.4
			c2.6,0,4.7-0.8,6.3-2.3c1.6-1.6,2.4-3.7,2.4-6.4c0-3.1-1.1-5.8-3.4-8.1s-6-4-11.4-5.3c1.1-2.1,3.3-3.1,6.5-3.1c2,0,4.4,0.7,7,2.1
			c2.6,1.4,4.9,3.3,6.8,5.6c0.5,0.6,1.2,1,1.8,1C383.4,315.1,383.9,314.8,384.2,314.3z M361.5,322c-1.2-1.9-1.7-4.3-1.7-7.1v-0.1
			c2.7,0.6,4.8,1.6,6.3,2.9c1.5,1.3,2.3,2.7,2.3,4.4c0,0.9-0.2,1.6-0.7,2.1c-0.5,0.5-1.1,0.8-1.9,0.8C364,325,362.6,324,361.5,322z"
			/>
		<path d="M416.8,319.9c0.3-0.6,0.5-1.3,0.5-2.2c0-1.1-0.2-2-0.5-2.6c-0.3-0.6-0.8-1-1.5-1.3c-2.7-1-5.7-1.5-9-1.6
			c-0.9-3.8-2.6-6.8-5.1-9.1c-2.5-2.3-5.3-3.5-8.3-3.5c-4.6,0-7.9,1.7-10,5.2c-2.1,3.5-3.1,8.5-3.1,15.2c0,5.8,0.7,12.2,2.2,19.1
			c1.5,6.9,3.6,12.7,6.4,17.5c2.8,4.8,6.1,7.2,10,7.2c2.1,0,3.8-0.9,5-2.7c1.3-1.8,1.9-4.1,1.9-7c0-3.7-0.7-7.4-2.1-11.1
			c-1.4-3.7-3.7-7.5-7-11.6c3-0.2,5.5-1.5,7.4-3.8c1.9-2.3,3-5.1,3.4-8.5c2.1,0.1,4.7,0.6,7.6,1.4c0.3,0.1,0.6,0.1,1,0.1
			C416,320.8,416.5,320.5,416.8,319.9z M396.9,308.6c1.1,1.2,1.8,2.9,2.2,5.1c-1.4,1-2.5,2.2-3.2,3.7s-1.1,3.2-1.1,4.9
			c0,0.6,0.1,1.5,0.3,2.6h-0.2c-1.9,0-3.4-0.9-4.7-2.8c-1.2-1.8-1.9-4.3-1.9-7.4c0-2.6,0.5-4.6,1.5-5.9c1-1.4,2.1-2,3.4-2
			C394.5,306.8,395.8,307.4,396.9,308.6z M393.7,353.1c-1.1-2.7-2.1-6.4-3-11c-0.9-4.6-1.6-9.7-2-15.2c3,5.5,5.4,10.3,7.2,14.5
			s2.7,7.9,2.7,11.2c0,1.5-0.2,2.6-0.5,3.3c-0.3,0.8-0.8,1.2-1.4,1.2C395.7,357.1,394.8,355.8,393.7,353.1z"/>
		<path d="M309.8,232.7c0.3-0.5,0.5-1.3,0.5-2.2c0-1.8-0.4-3.2-1.3-4.2c-1.9-2.3-3.9-4.2-6.1-5.8c-2.2-1.6-4.4-2.4-6.6-2.4
			c-3.4,0-6.1,2-7.9,6.1c-1.9-2.4-3.6-4-5-4.8c-1.4-0.8-3.1-1.2-5-1.2c-2.8,0-5,1-6.8,3.1c-1.8,2.1-2.7,4.7-2.7,8.1
			c0,3.6,0.8,7,2.3,10.1c1.5,3.1,3.7,5.6,6.4,7.6c2.7,2,5.7,3.1,9.1,3.5c0.9,8.8,2.5,16.3,4.9,22.5c2.4,6.2,5.6,9.3,9.6,9.3
			c1.9,0,3.6-0.9,4.9-2.7c1.3-1.8,1.9-4.4,1.9-8c0-5.1-1.2-11-3.7-17.8c-2.5-6.8-5.8-13.8-10-20.9c0.2-2.6,0.6-4.5,1.2-5.6
			c0.6-1.1,1.4-1.7,2.3-1.7c1.2,0,2.5,0.5,3.7,1.6c1.3,1.1,3,2.9,5.1,5.4c0.5,0.6,1.2,1,1.8,1C309,233.5,309.4,233.2,309.8,232.7z
			 M283.4,225.9c0.9,0.7,1.9,2,3.3,3.9c-0.5,2.4-0.7,5.2-0.7,8.2c0,1.1,0,2.9,0.1,5.3c-2.5-0.8-4.6-2.4-6.2-5
			c-1.7-2.6-2.5-5.4-2.5-8.5c0-3.3,1.1-5,3.4-5C281.6,224.9,282.5,225.2,283.4,225.9z M297.8,271c-0.9-3.1-1.6-7.1-2.2-12
			c-0.6-4.9-1.1-10.1-1.3-15.5c5.1,11.1,7.6,19.9,7.6,26.7c0,1.7-0.1,3.1-0.4,4c-0.3,1-0.6,1.4-1.1,1.4
			C299.5,275.6,298.6,274.1,297.8,271z"/>
		<path d="M336.5,232.7c0.3-0.5,0.5-1.3,0.5-2.2c0-1.8-0.4-3.2-1.3-4.2c-1.7-2-4-3.9-7.1-5.6c-3.1-1.7-6.3-2.6-9.8-2.6
			c-4.8,0-8.5,1.3-11.1,3.9c-2.6,2.6-3.9,6.1-3.9,10.6c0,3.1,0.7,6,2,8.7c1.3,2.7,3.1,4.8,5.5,6.4c2.3,1.6,5,2.4,7.9,2.4
			c2.6,0,4.7-0.8,6.3-2.3c1.6-1.6,2.4-3.7,2.4-6.4c0-3.1-1.1-5.8-3.4-8.1s-6-4-11.4-5.3c1.1-2.1,3.3-3.1,6.5-3.1c2,0,4.4,0.7,7,2.1
			c2.6,1.4,4.9,3.3,6.8,5.6c0.5,0.6,1.2,1,1.8,1C335.7,233.5,336.2,233.2,336.5,232.7z M313.7,240.4c-1.2-1.9-1.7-4.3-1.7-7.1v-0.1
			c2.7,0.6,4.8,1.6,6.3,2.9c1.5,1.3,2.3,2.7,2.3,4.4c0,0.9-0.2,1.6-0.7,2.1c-0.5,0.5-1.1,0.8-1.9,0.8
			C316.3,243.4,314.9,242.4,313.7,240.4z"/>
		<path d="M338.7,218.1c-1.2,1.1-1.9,2.3-1.9,3.7c0,1.2,0.4,2.2,1.3,3.1c0.9,0.9,2.1,1.3,3.8,1.3c0.6,0,1.3-0.1,2.1-0.2
			c0.8-0.1,1.4-0.2,1.8-0.2c0,1.2-0.3,2.3-0.8,3.3c-0.5,1-1.1,2.1-1.8,3c-0.7,1-1.4,1.8-2,2.6c-1.4-2.7-2.8-4.9-4.2-6.7
			c-1.4-1.8-2.9-3.4-4.5-5c-0.8-0.8-1.7-1.2-2.6-1.2c-0.7,0-1.3,0.3-1.8,0.8c-0.5,0.5-0.7,1.2-0.7,1.9c0,0.9,0.3,1.7,1,2.5l0.9,1.1
			c2.5,3.1,4.4,5.6,5.6,7.6c0.8,1.3,1.7,3.1,2.7,5.3c1,2.2,2.1,4.5,3.1,6.8c0.9,2,2.7,3,5.4,3c1.3,0,2.2-0.1,2.7-0.3
			c0.5-0.2,0.7-0.6,0.7-1.1c0-0.3-0.1-0.7-0.3-1.3c-0.2-0.6-0.4-1.2-0.7-1.8c-0.8-1.6-1.2-3-1.2-4.1c0-0.7,0.2-1.4,0.7-2.2
			c0.5-0.8,1.2-1.8,2.2-3.1c1.5-1.9,2.5-3.5,3.3-4.9c0.7-1.3,1.1-2.8,1.1-4.4c0-0.5,0-1.1-0.1-1.9c2.2,0.9,4.8,3.2,7.8,6.9
			c0.5,0.6,1.2,1,1.8,1c0.6,0,1.1-0.3,1.4-0.8s0.5-1.3,0.5-2.2c0-1.7-0.4-3.1-1.3-4.2c-2.3-2.8-4.4-4.7-6.5-5.7
			c-2.1-1-4.6-1.6-7.6-1.7c-1.8-1.5-4-2.3-6.5-2.3C341.8,216.5,340,217.1,338.7,218.1z"/>
		<path d="M362.5,221.1c-1.3,2.1-2,4.9-2,8.3c0,2,0.3,4.7,0.8,7.9c0.5,3.2,1.2,6.2,2,8.9c0.4,1.5,1,2.4,1.6,3
			c0.7,0.5,1.8,0.8,3.3,0.8c2.3,0,3.5-0.8,3.5-2.3c0-1.1-0.4-3.8-1.3-7.9c-1.1-5-1.6-8.4-1.6-10.1c0-1.4,0.2-2.4,0.5-3.1
			c0.4-0.7,1-1.1,1.8-1.1c0.8,0,1.8,0.6,3.1,1.7c1.2,1.1,2.9,2.9,4.9,5.4c0.5,0.6,1.2,1,1.8,1c0.6,0,1.1-0.3,1.4-0.8
			s0.5-1.3,0.5-2.2c0-1.8-0.4-3.2-1.3-4.2c-4.5-5.5-8.7-8.2-12.6-8.2C366,218,363.8,219,362.5,221.1z M365.2,255.8
			c-1,0.9-1.4,2.1-1.4,3.7c0,1.6,0.6,2.9,1.9,4c1.2,1.1,2.8,1.6,4.7,1.6c1.7,0,3-0.4,4.1-1.2c1-0.8,1.6-2,1.6-3.5
			c0-1.8-0.6-3.3-1.8-4.3c-1.2-1.1-2.7-1.6-4.7-1.6C367.5,254.5,366.1,255,365.2,255.8z"/>
		<path d="M413.5,232.5c0.3-0.6,0.5-1.3,0.5-2.1c0-1-0.2-1.9-0.5-2.4c-0.3-0.6-0.8-1.1-1.5-1.6c-3.9-2.6-6.8-4.6-8.6-5.8l-4.4-2.9
			c-1.7-9.4-4-16.8-6.8-22.1s-6.3-8.1-10.6-8.1c-2.3,0-4.2,0.7-5.6,2.1c-1.5,1.4-2.2,3.3-2.2,5.6c0,3.2,1.3,6.7,3.8,10.4
			c2.5,3.7,7.3,8.2,14.3,13.6l0.4,2.7c-0.8-1.2-1.8-2.2-3-2.8c-1.2-0.7-2.5-1-3.7-1c-2.8,0-5.1,1-6.7,3.1c-1.7,2-2.5,4.7-2.5,8
			c0,3.6,0.8,7.1,2.5,10.3c1.7,3.2,3.9,5.8,6.7,7.8c2.8,2,5.7,3,8.9,3c1,0,1.7-0.2,2-0.6c0.3-0.4,0.6-1.1,0.9-2.1
			c0.9,0.2,1.9,0.3,3,0.3c1.1,0,1.9-0.2,2.4-0.5c0.5-0.3,0.7-1,0.7-2c0-0.5,0-1-0.1-1.3c-0.2-1.4-0.7-5-1.7-10.7
			c-0.2-1.1-0.4-2.3-0.6-3.6s-0.4-2.7-0.6-4.1c3.5,2.7,6.8,5.1,10.1,7.2c0.6,0.4,1.1,0.5,1.6,0.5
			C412.7,233.4,413.1,233.1,413.5,232.5z M386.3,198.1c1.4,2.7,2.8,7,4.1,13c-3.5-3-6-5.7-7.5-8.1c-1.5-2.4-2.3-4.5-2.3-6.3
			c0-0.8,0.1-1.4,0.4-1.9s0.8-0.7,1.5-0.7C383.6,194,384.9,195.4,386.3,198.1z M391.1,226.8c1,1.3,1.6,3.1,2,5.4l2.2,11.6
			c-1.9,0-3.6-0.8-5.2-2.1c-1.6-1.4-2.9-3.2-3.8-5.5c-1-2.3-1.4-4.7-1.4-7.2c0-1.4,0.3-2.4,0.9-3.1c0.6-0.7,1.3-1,2.3-1
			C389.1,224.9,390.1,225.5,391.1,226.8z"/>
		<path d="M410.3,220.7c-0.7,1.8-1.1,4.7-1.1,8.7c0,5.9,0.8,11.5,2.5,16.8c0.4,1.3,1.1,2.3,2,2.9c0.9,0.6,2.2,0.9,3.9,0.9
			c0.9,0,1.5-0.1,1.9-0.3c0.4-0.2,0.5-0.7,0.5-1.3c0-0.7-0.3-2.4-1-4.9c-0.5-1.8-0.8-3.4-1.1-4.8c-0.3-1.4-0.5-3-0.7-5
			c1.5,3.9,3.2,7.1,5,9.5c1.9,2.4,3.7,4.2,5.5,5.2c1.8,1,3.4,1.6,4.9,1.6c2.9,0,4.4-1.5,4.4-4.4c0-1.8-0.5-5-1.5-9.6
			c-0.9-3.9-1.3-6.6-1.3-7.8c0-1.8,0.7-2.7,2-2.7c0.9,0,2,0.6,3.2,1.7c1.2,1.1,2.9,2.9,5,5.4c0.5,0.6,1.2,1,1.8,1
			c0.6,0,1.1-0.3,1.4-0.8s0.5-1.3,0.5-2.2c0-1.8-0.4-3.2-1.3-4.2c-1.9-2.4-4-4.4-6.3-5.9s-4.8-2.3-7.7-2.3c-2.3,0-4.1,0.7-5.2,2
			c-1.2,1.3-1.8,3.3-1.8,5.8c0,1.3,0.3,3.5,1,6.8c0.6,2.9,0.9,4.8,0.9,5.9c0,0.7-0.2,1.1-0.7,1.1c-0.6,0-1.4-0.8-2.5-2.3
			c-1.1-1.5-2.2-3.5-3.3-6c-1.1-2.5-2-5.1-2.7-7.9c-0.5-2.1-1.1-3.6-1.7-4.3s-1.7-1.1-3.1-1.1C412.2,218,411,218.9,410.3,220.7z"/>
	</g>
	<rect x="-538.1" y="86.3" class="st24" width="218.7" height="172.6"/>
	<g class="st25">
		<path d="M-523.4,194.3c-2.1,2.2-3.1,5.2-3.1,9c0,2.1,0.3,4.7,0.9,7.7l4.5,20.6c0.1,0.4,0.3,1.4,0.7,3.2s0.5,3.6,0.5,5.6
			c0,1.2-0.2,2-0.7,2.6c-0.5,0.6-1.1,0.9-1.8,0.9c-1.4,0-3.1-0.7-5-2.1c-1.9-1.4-3.9-3.5-6-6.3c-0.7-0.9-1.4-1.4-2.2-1.4
			c-0.7,0-1.3,0.3-1.8,1c-0.5,0.6-0.8,1.4-0.8,2.2c0,1.5,0.7,3.2,2,5c4.9,6.7,10.6,10.1,17.2,10.1c2.9,0,5.2-0.9,6.9-2.7
			c1.7-1.8,2.5-4.4,2.5-7.8c0-2.4-0.2-4.7-0.5-6.8c-0.3-2.1-0.9-4.9-1.7-8.4l-3-13.2c-0.1-0.4-0.3-1.2-0.5-2.3
			c-0.2-1.1-0.4-2.1-0.6-3.1c-0.1-1-0.2-2-0.2-2.9c0-1.5,0.4-2.8,1.3-3.7c0.9-0.9,2.1-1.4,3.7-1.4c2.9,0,5.8,1.5,8.7,4.6
			c3,3.1,5.7,8,8.2,14.9s4.5,15.6,5.9,26.2c0.3,2.4,0.8,4.2,1.5,5.1c0.6,1,1.9,1.4,3.8,1.4c1.7,0,2.9-0.5,3.7-1.5
			c0.8-1,1.2-2.6,1.2-4.9c0-1.3-0.2-3-0.5-5.1c-0.3-2.1-0.8-5.1-1.4-8.9c-1.3-7.3-2.3-14.1-3.1-20.2c-0.4-2.8-0.6-4.8-0.6-6.2
			c0-2,0.4-3.5,1.3-4.5c0.9-1,2.1-1.5,3.6-1.5c1.6,0,3.1,0.5,4.6,1.6c1.5,1.1,3.3,2.8,5.4,5.3c0.6,0.7,1.2,1,1.9,1
			c0.6,0,1.1-0.3,1.5-0.9c0.4-0.6,0.5-1.4,0.5-2.4c0-1.9-0.5-3.4-1.4-4.5c-2.5-3-5-5.2-7.4-6.6c-2.4-1.4-5-2.1-7.7-2.1
			c-4,0-7,1-9.1,3.1c-2.1,2-3.2,4.7-3.2,8c0,1.8,0.4,5.4,1.2,10.7c-2.4-7.1-5.4-12.4-9.1-16.1c-3.7-3.7-7.9-5.5-12.7-5.5
			C-518.3,190.9-521.3,192-523.4,194.3z"/>
		<path d="M-414,206.5c0.4-0.6,0.5-1.4,0.5-2.4c0-1.9-0.5-3.4-1.4-4.5c-2.4-2.8-4.7-4.9-7-6.4s-4.9-2.3-7.7-2.3
			c-4.3,0-7.5,1.3-9.7,3.8c-2.2,2.5-3.9,6.3-5.3,11.2l-2.4,8.9l-17-21c-1-1.2-1.9-2-3-2.3c-1-0.4-2.2-0.5-3.5-0.5
			c-1.3,0-2.5,0.3-3.3,0.8c-0.9,0.5-1.3,1.2-1.3,2.1c0,1.2,0.7,2.6,2.1,4.1l23.3,26.6l-2.3,8.4c-1.1,3.9-2.3,6.7-3.7,8.3
			c-1.3,1.6-2.9,2.4-4.6,2.4c-2.5,0-5.5-1.8-8.9-5.5c-0.6-0.6-1.2-0.9-1.9-0.9c-0.7,0-1.3,0.3-1.8,0.8c-0.5,0.6-0.8,1.3-0.8,2.1
			c0,1.4,0.7,3,2.1,4.7c2,2.3,4.1,4.2,6.4,5.5c2.3,1.4,5,2.1,8.2,2.1c3.4,0,6.2-1.1,8.4-3.2c2.2-2.1,4-5.6,5.3-10.3l1.4-5l12.6,15.3
			c1,1.2,1.9,2,3,2.4c1,0.5,2.2,0.7,3.7,0.7c1.3,0,2.3-0.2,3.1-0.7c0.7-0.5,1.1-1.2,1.1-2c0-1.2-0.6-2.5-1.9-4l-18.7-21.6l4.1-14.7
			c0.7-2.5,1.4-4.5,1.9-5.8c0.6-1.3,1.3-2.3,2.1-3c0.8-0.6,2-1,3.3-1c1.5,0,3,0.5,4.6,1.6c1.6,1.1,3.5,2.8,5.6,5.3
			c0.6,0.7,1.2,1,1.9,1C-414.9,207.3-414.4,207-414,206.5z"/>
	</g>
	<rect x="-653.5" y="-357.9" class="st24" width="362.3" height="165.8"/>
	<g class="st25">
		<path d="M-640.9-257.7c-2.7,1.6-4.8,4-6.3,7.1c-1.5,3.1-2.3,6.8-2.3,11c0,7.3,1.6,14.1,4.7,20.3c3.1,6.2,7.7,11.2,13.8,15
			c6.1,3.8,13.4,5.7,22,5.7c2.2,0,4.6-0.2,7.1-0.5s4.8-0.8,6.9-1.5c1.3-0.4,2-1.3,2-2.9c0-1.2-0.5-2.4-1.4-3.5
			c-0.9-1.1-2-1.7-3.3-1.7c-0.4,0-0.7,0-0.9,0.1c-2.5,0.6-4.6,1-6.4,1.3c-1.8,0.3-3.6,0.4-5.6,0.4c-6.1,0-11.3-1.5-15.6-4.4
			c-4.3-3-7.5-6.9-9.6-11.7c-2.1-4.8-3.2-10.1-3.2-15.7c0-4.1,0.8-7.2,2.4-9.5c1.6-2.2,3.7-3.3,6.3-3.3c2.9,0,5.5,1.2,7.7,3.6
			c2.2,2.4,4.2,6.3,6,11.7c1.8,5.4,3.6,12.7,5.4,21.9c0.3,1.3,0.9,2.3,1.7,2.7c0.9,0.5,2,0.7,3.5,0.7c3.4,0,5.1-1.1,5.1-3.3
			c0-0.4-0.1-0.9-0.2-1.4c-1.2-4.7-2.4-9.8-3.4-15.4c-1-5.6-1.5-9.9-1.5-12.9c0-2.6,0.4-4.5,1.2-5.7c0.8-1.2,1.9-1.8,3.5-1.8
			c1.5,0,3,0.5,4.4,1.5c1.4,1,3.1,2.8,5.3,5.3c0.6,0.7,1.2,1,1.9,1c0.6,0,1.1-0.3,1.5-0.9c0.4-0.6,0.5-1.4,0.5-2.4
			c0-1.9-0.5-3.4-1.4-4.5c-2.4-2.8-4.7-5-6.9-6.5c-2.3-1.5-5-2.2-8.3-2.2c-3.4,0-6.1,1-8.1,2.9c-2.1,1.9-3.4,4.7-3.9,8.2
			c-3.6-7.4-8.8-11.2-15.7-11.2C-635.3-260.2-638.2-259.4-640.9-257.7z"/>
		<path d="M-592.2-257.3c-0.7,1.9-1.1,5-1.1,9.2c0,6.2,0.9,12.2,2.7,17.8c0.4,1.4,1.1,2.4,2.1,3.1c1,0.6,2.4,1,4.1,1
			c1,0,1.6-0.1,2-0.4c0.4-0.2,0.6-0.7,0.6-1.4c0-0.8-0.4-2.5-1.1-5.2c-0.5-1.9-0.9-3.6-1.2-5c-0.3-1.4-0.5-3.2-0.7-5.3
			c1.6,4.1,3.4,7.5,5.3,10.1c2,2.6,3.9,4.4,5.8,5.5c1.9,1.1,3.6,1.7,5.2,1.7c3.1,0,4.7-1.6,4.7-4.7c0-1.9-0.5-5.3-1.6-10.2
			c-0.9-4.2-1.4-6.9-1.4-8.3c0-1.9,0.7-2.9,2.1-2.9c1,0,2.1,0.6,3.4,1.8c1.3,1.2,3.1,3.1,5.3,5.7c0.6,0.7,1.2,1,1.9,1
			c0.6,0,1.1-0.3,1.5-0.9c0.4-0.6,0.5-1.4,0.5-2.4c0-1.9-0.5-3.4-1.4-4.5c-2.1-2.5-4.3-4.6-6.7-6.3s-5.1-2.4-8.1-2.4
			c-2.4,0-4.3,0.7-5.5,2.1c-1.2,1.4-1.9,3.5-1.9,6.2c0,1.3,0.3,3.7,1,7.2c0.6,3,0.9,5.1,0.9,6.3c0,0.8-0.3,1.2-0.8,1.2
			c-0.6,0-1.5-0.8-2.6-2.4c-1.1-1.6-2.3-3.7-3.5-6.4c-1.2-2.6-2.1-5.4-2.8-8.4c-0.5-2.3-1.1-3.8-1.8-4.6c-0.7-0.8-1.8-1.2-3.3-1.2
			C-590.2-260.2-591.5-259.2-592.2-257.3z"/>
		<path d="M-555.7-256.9c-1.4,2.2-2.1,5.1-2.1,8.8c0,2.2,0.3,4.9,0.8,8.3c0.6,3.4,1.3,6.5,2.1,9.5c0.4,1.5,1,2.6,1.7,3.2
			c0.7,0.6,1.9,0.9,3.5,0.9c2.4,0,3.7-0.8,3.7-2.4c0-1.2-0.5-4-1.4-8.4c-1.2-5.3-1.7-8.9-1.7-10.7c0-1.4,0.2-2.5,0.6-3.3
			c0.4-0.8,1-1.2,1.9-1.2c0.9,0,1.9,0.6,3.2,1.8c1.3,1.2,3,3.1,5.2,5.7c0.6,0.7,1.2,1,1.9,1c0.6,0,1.1-0.3,1.5-0.9
			c0.4-0.6,0.5-1.4,0.5-2.4c0-1.9-0.5-3.4-1.4-4.5c-4.8-5.8-9.2-8.7-13.3-8.7C-552.1-260.2-554.3-259.1-555.7-256.9z M-552.9-220.1
			c-1,0.9-1.5,2.2-1.5,3.9c0,1.7,0.7,3.1,2,4.2c1.3,1.1,3,1.7,4.9,1.7c1.8,0,3.2-0.4,4.3-1.3c1.1-0.9,1.7-2.1,1.7-3.7
			c0-1.9-0.6-3.4-1.9-4.6c-1.2-1.1-2.9-1.7-5-1.7C-550.4-221.5-551.9-221-552.9-220.1z"/>
		<path d="M-538.8-257.3c-0.7,1.9-1.1,5-1.1,9.2c0,6.2,0.9,12.2,2.7,17.8c0.4,1.4,1.1,2.4,2.1,3.1c1,0.6,2.4,1,4.1,1
			c1,0,1.6-0.1,2-0.4c0.4-0.2,0.6-0.7,0.6-1.4c0-0.8-0.4-2.5-1.1-5.2c-0.5-1.9-0.9-3.6-1.2-5c-0.3-1.4-0.5-3.2-0.7-5.3
			c1.3,3.7,2.8,6.9,4.6,9.5c1.8,2.6,3.6,4.5,5.5,5.8c1.9,1.3,3.7,1.9,5.4,1.9c1.7,0,2.9-0.4,3.6-1.2c0.7-0.8,1-1.9,1-3.5
			c0-1.5-0.5-4.3-1.4-8.4c-0.4-1.7-0.6-3-0.8-3.9c2.4,5.9,5.1,10.2,8,12.9c2.9,2.7,5.7,4,8.2,4c3.1,0,4.7-1.6,4.7-4.7
			c0-1.9-0.5-5.3-1.6-10.2c-0.9-4.2-1.4-6.9-1.4-8.3c0-1.9,0.7-2.9,2.1-2.9c1,0,2.1,0.6,3.4,1.8c1.3,1.2,3.1,3.1,5.3,5.7
			c0.6,0.7,1.2,1,1.9,1c0.6,0,1.1-0.3,1.5-0.9c0.4-0.6,0.5-1.4,0.5-2.4c0-1.9-0.5-3.4-1.4-4.5c-2.1-2.5-4.3-4.6-6.7-6.3
			s-5.1-2.4-8.1-2.4c-2.4,0-4.3,0.7-5.5,2.1s-1.9,3.5-1.9,6.2c0,1.3,0.3,3.7,1,7.2c0.6,3,0.9,5.1,0.9,6.3c0,0.8-0.3,1.2-0.8,1.2
			c-0.6,0-1.5-0.8-2.7-2.4c-1.2-1.6-2.3-3.7-3.5-6.4c-1.2-2.6-2.1-5.4-2.8-8.4c-0.5-2.3-1.1-3.8-1.8-4.6c-0.7-0.8-1.8-1.2-3.3-1.2
			c-1.6,0-2.8,0.8-3.6,2.3s-1.2,3.3-1.2,5.5c0,1.8,0.2,4.5,0.7,7.9c0.4,3.1,0.6,5.1,0.6,6c0,0.8-0.3,1.2-0.8,1.2
			c-0.7,0-1.6-0.9-2.7-2.6c-1.1-1.7-2.2-3.9-3.2-6.6c-1-2.7-1.9-5.3-2.5-7.9c-0.5-2.3-1.1-3.8-1.8-4.6c-0.7-0.8-1.8-1.2-3.3-1.2
			C-536.8-260.2-538.1-259.2-538.8-257.3z"/>
		<path d="M-484.8-256.9c-1.8,2.2-2.7,5-2.7,8.5c0,3.8,0.9,7.5,2.7,10.9c1.8,3.4,4.1,6.2,7.1,8.3c3,2.1,6.1,3.1,9.4,3.1
			c1.1,0,1.8-0.2,2.1-0.6c0.4-0.4,0.7-1.1,0.9-2.2c1,0.2,2.1,0.3,3.2,0.3c2.4,0,3.5-0.8,3.5-2.5c0-1-0.4-3.4-1.1-7.2
			c-1.1-5.5-1.7-9.4-1.7-11.5c0-0.7,0.2-1.3,0.5-1.7c0.4-0.4,0.8-0.6,1.4-0.6c0.9,0,2,0.6,3.3,1.8c1.3,1.2,3,3.1,5.3,5.7
			c0.6,0.7,1.2,1,1.9,1c0.6,0,1.1-0.3,1.5-0.9c0.4-0.6,0.5-1.4,0.5-2.4c0-1.9-0.5-3.4-1.4-4.5c-2-2.4-4.1-4.5-6.3-6.2
			c-2.2-1.7-4.3-2.5-6.4-2.5c-1.6,0-3,0.5-4.4,1.6c-1.3,1.1-2.3,2.6-3,4.4c-2.5-4-5.6-6-9.4-6C-480.6-260.2-483-259.1-484.8-256.9z
			 M-472-251c1,1.2,1.7,2.9,2.1,5l2.7,13.2c-2,0-3.9-0.8-5.6-2.3c-1.7-1.5-3.1-3.4-4.1-5.8s-1.5-4.9-1.5-7.6c0-1.5,0.3-2.6,0.9-3.3
			c0.6-0.7,1.4-1.1,2.5-1.1C-474-252.9-473-252.3-472-251z"/>
		<path d="M-419.1-244.6c0.4-0.6,0.5-1.4,0.5-2.4c0-1.9-0.5-3.4-1.4-4.5c-2.1-2.5-4.3-4.6-6.8-6.3s-5.3-2.4-8.4-2.4
			c-9.8,0-14.7,6.9-14.7,20.7c0,2.1,0.1,4.2,0.2,6.4h-2.8c-1.4,0-2.4,0.3-2.9,0.8c-0.5,0.5-0.8,1.4-0.8,2.5c0,2.7,1.1,4,3.2,4h4.1
			c0.8,5.3,2.1,10.1,3.7,14.5c1.7,4.4,3.7,7.8,6.1,10.4s4.9,3.9,7.7,3.9c2,0,3.6-0.9,4.8-2.7c1.2-1.8,1.7-4,1.7-6.7
			c0-7.4-3.1-13.9-9.4-19.4h8.1c0.8,0,1.3-0.2,1.7-0.5c0.3-0.3,0.5-1,0.5-1.9c0-3.3-2.7-5-8.1-5h-8.8c-0.1-2.4-0.1-4.3-0.1-5.6
			c0-5,0.6-8.5,1.8-10.5c1.2-2,3-3,5.6-3c2.1,0,3.9,0.6,5.5,1.9s3.5,3.1,5.6,5.6c0.6,0.7,1.2,1,1.9,1
			C-419.9-243.8-419.4-244-419.1-244.6z M-435.6-206.6c-0.9-1.8-1.7-4.3-2.5-7.5c-0.8-3.2-1.5-6.7-2-10.6c2.8,2.4,5,5.2,6.4,8.2
			c1.4,3,2.1,5.8,2.1,8.3c0,2.8-0.5,4.2-1.6,4.2C-433.9-203.9-434.7-204.8-435.6-206.6z"/>
		<path d="M-422.3-256.9c-1.4,2.2-2.1,5.1-2.1,8.8c0,2.2,0.3,4.9,0.8,8.3c0.6,3.4,1.3,6.5,2.1,9.5c0.4,1.5,1,2.6,1.7,3.2
			c0.7,0.6,1.9,0.9,3.5,0.9c2.4,0,3.7-0.8,3.7-2.4c0-1.2-0.5-4-1.4-8.4c-1.2-5.3-1.7-8.9-1.7-10.7c0-1.4,0.2-2.5,0.6-3.3
			c0.4-0.8,1-1.2,1.9-1.2c0.9,0,1.9,0.6,3.2,1.8c1.3,1.2,3,3.1,5.2,5.7c0.6,0.7,1.2,1,1.9,1c0.6,0,1.1-0.3,1.5-0.9
			c0.4-0.6,0.5-1.4,0.5-2.4c0-1.9-0.5-3.4-1.4-4.5c-4.8-5.8-9.2-8.7-13.3-8.7C-418.6-260.2-420.9-259.1-422.3-256.9z M-419.5-220.1
			c-1,0.9-1.5,2.2-1.5,3.9c0,1.7,0.7,3.1,2,4.2c1.3,1.1,3,1.7,4.9,1.7c1.8,0,3.2-0.4,4.3-1.3c1.1-0.9,1.7-2.1,1.7-3.7
			c0-1.9-0.6-3.4-1.9-4.6c-1.2-1.1-2.9-1.7-5-1.7C-417-221.5-418.5-221-419.5-220.1z"/>
		<path d="M-368.5-238.6c0.3-0.6,0.5-1.4,0.5-2.4c0-2.3-0.7-3.7-2.1-4.1c-2.9-1-6-1.6-9.5-1.7c-0.9-4-2.7-7.3-5.4-9.7
			c-2.7-2.4-5.7-3.6-9.1-3.6c-2.9,0-5.3,0.7-7.4,2.1c-2,1.4-3.6,3.2-4.6,5.5c-1.1,2.3-1.6,4.8-1.6,7.5c0,3.6,0.7,6.9,2.1,9.8
			c1.4,2.9,3.3,5.1,5.8,6.7c2.4,1.6,5.2,2.4,8.1,2.4c3.6,0,6.6-1.3,8.8-3.8c2.2-2.5,3.5-5.6,3.9-9.3c2.3,0.1,4.9,0.6,8.1,1.4
			c0.4,0.1,0.7,0.1,1,0.1C-369.3-237.7-368.8-238-368.5-238.6z M-389.6-250.7c1.1,1.2,1.9,3,2.3,5.4c-1.5,1-2.6,2.3-3.4,4
			c-0.8,1.6-1.2,3.4-1.2,5.2c0,0.8,0.1,1.5,0.2,2.3h-0.4c-1.9,0-3.5-0.9-4.8-2.8c-1.3-1.8-1.9-4.5-1.9-7.8c0-2.6,0.5-4.7,1.5-6
			c1-1.4,2.2-2.1,3.6-2.1C-392-252.5-390.7-251.9-389.6-250.7z"/>
		<path d="M-372.9-257.3c-0.7,1.9-1.1,5-1.1,9.2c0,6.2,0.9,12.2,2.7,17.8c0.4,1.4,1.1,2.4,2.1,3.1c1,0.6,2.4,1,4.1,1
			c1,0,1.6-0.1,2-0.4c0.4-0.2,0.6-0.7,0.6-1.4c0-0.8-0.4-2.5-1.1-5.2c-0.5-1.9-0.9-3.6-1.2-5c-0.3-1.4-0.5-3.2-0.7-5.3
			c1.6,4.1,3.4,7.5,5.3,10.1c2,2.6,3.9,4.4,5.8,5.5c1.9,1.1,3.6,1.7,5.2,1.7c3.1,0,4.7-1.6,4.7-4.7c0-1.9-0.5-5.3-1.6-10.2
			c-0.9-4.2-1.4-6.9-1.4-8.3c0-1.9,0.7-2.9,2.1-2.9c1,0,2.1,0.6,3.4,1.8c1.3,1.2,3.1,3.1,5.3,5.7c0.6,0.7,1.2,1,1.9,1
			c0.6,0,1.1-0.3,1.5-0.9c0.4-0.6,0.5-1.4,0.5-2.4c0-1.9-0.5-3.4-1.4-4.5c-2.1-2.5-4.3-4.6-6.7-6.3s-5.1-2.4-8.1-2.4
			c-2.4,0-4.3,0.7-5.5,2.1c-1.2,1.4-1.9,3.5-1.9,6.2c0,1.3,0.3,3.7,1,7.2c0.6,3,0.9,5.1,0.9,6.3c0,0.8-0.3,1.2-0.8,1.2
			c-0.6,0-1.5-0.8-2.6-2.4c-1.1-1.6-2.3-3.7-3.5-6.4c-1.2-2.6-2.1-5.4-2.8-8.4c-0.5-2.3-1.1-3.8-1.8-4.6c-0.7-0.8-1.8-1.2-3.3-1.2
			C-370.9-260.2-372.2-259.2-372.9-257.3z"/>
	</g>
	<g>
		<g>
			<line class="st26" x1="-472.4" y1="367.8" x2="-472.4" y2="373.8"/>
			<line class="st27" x1="-472.4" y1="382.5" x2="-472.4" y2="395.4"/>
			<polyline class="st26" points="-472.4,399.7 -472.4,405.7 -466.4,405.7 			"/>
			<line class="st28" x1="-454.7" y1="405.7" x2="-249" y2="405.7"/>
			<polyline class="st26" points="-243.1,405.7 -237.1,405.7 -237.1,399.7 			"/>
			<line class="st29" x1="-237.1" y1="388.1" x2="-237.1" y2="184.5"/>
			<polyline class="st26" points="-237.1,178.6 -237.1,172.6 -231.1,172.6 			"/>
			<line class="st30" x1="-218.7" y1="172.6" x2="-200" y2="172.6"/>
			<line class="st26" x1="-193.8" y1="172.6" x2="-187.8" y2="172.6"/>
		</g>
	</g>
	<polyline class="st31" points="-101.4,-232.8 -101.4,-357.9 -307.4,-357.9 	"/>
	<polyline class="st31" points="297.5,80.3 588,80.3 588,267 524.8,267 	"/>
	<polyline class="st31" points="188.4,-192.1 188.4,-295.4 297.5,-295.4 	"/>
</symbol>
<use xlink:href="#skills"  width="1355" height="814.4" id="XMLID_1_" x="-677.5" y="-407.2" transform="matrix(1 0 0 -1 840.25 450.4702)" style="overflow:visible;"/>
</svg>
