<?xml version="1.0" encoding="utf-8"?>
<!-- Generator: Adobe Illustrator 22.0.0, SVG Export Plug-In . SVG Version: 6.00 Build 0)  -->
<svg version="1.1" id="Layer_1" xmlns="http://www.w3.org/2000/svg" xmlns:xlink="http://www.w3.org/1999/xlink" x="0px" y="0px"
	 viewBox="0 0 1221 757.1" style="enable-background:new 0 0 1221 757.1;" xml:space="preserve">
<style type="text/css">
	.st0{fill:#00E6C6;}
	.st1{fill:#002E26;}
	.st2{opacity:0.41;fill:#A7CEBC;}
	.st3{fill:url(#SVGID_1_);}
	.st4{fill:#FF408C;}
	.st5{fill:url(#SVGID_2_);}
	.st6{fill:#31C5F0;}
	.st7{fill:url(#SVGID_3_);}
	.st8{fill:#E579FF;}
	.st9{fill:#2E001E;}
	.st10{fill:#FF2BC2;}
	.st11{clip-path:url(#SVGID_5_);fill:#DA1F26;}
	.st12{fill:url(#SVGID_6_);}
	.st13{fill:#FF7F18;}
</style>
<symbol  id="softw" viewBox="-338.5 -301.5 728.6 548">
	
		<use xlink:href="#software"  width="764.2" height="689.8" id="XMLID_3_" x="-451.7" y="-345" transform="matrix(0.7383 0 0 0.7944 -4.9838 -27.4097)" style="overflow:visible;"/>
	<g>
		
			<rect x="201" y="-97.6" transform="matrix(1 -5.715874e-03 5.715874e-03 1 0.1937 1.5038)" class="st0" width="124.5" height="128.8"/>
		
			<rect x="206.9" y="-91" transform="matrix(1 -5.715874e-03 5.715874e-03 1 0.1937 1.5038)" class="st1" width="112.6" height="115.8"/>
	</g>
	<rect x="218.1" y="-112.5" style="fill:none;" width="172" height="106"/>
	<text transform="matrix(1 0 0 -1 218.0938 -58.0576)" style="fill:#00DFBE; font-family:'ArialMT'; font-size:72px;">Au</text>
</symbol>
<symbol  id="software" viewBox="-451.7 -345 764.2 689.8">
	<g id="Background_4_">
		<circle id="Background_2_4_" class="st2" cx="0.5" cy="-7.7" r="308.5"/>
	</g>
	<g>
		
			<radialGradient id="SVGID_1_" cx="7320.418" cy="-8250.335" r="5.079803e-02" gradientTransform="matrix(2291.6716 0 0 -2218.7549 -16776259 -18305172)" gradientUnits="userSpaceOnUse">
			<stop  offset="0" style="stop-color:#4B2B36;stop-opacity:0.98"/>
			<stop  offset="1" style="stop-color:#250012"/>
		</radialGradient>
		<path class="st3" d="M-316.3,332.6h153.2V183.8h-153.2V332.6z"/>
		<path class="st4" d="M-316.3,332.6h153.2V183.8h-153.2V332.6z M-323.2,176.9h167v162.6h-167V176.9z M-217.4,271.9
			c-1,0.5-2.4,0.7-4.1,0.7c-9,0-15.2-6.9-15.2-18.4c0-13.1,6.4-18.4,14.4-18.4c1.7,0,3.5,0.2,4.9,0.8V271.9z M-221.7,283.4
			c1.5,0,2.3,0,3.7-0.1v18.5c0,0.5,0.4,0.7,0.7,0.7h11.4c0.6,0,0.7-0.2,0.7-0.6v-65c0-1.9,0-4.4,0.4-7c0-0.5-0.1-0.6-0.6-0.8
			c-6.1-2.9-12.5-4.1-18.5-4.1c-15.6,0-26.8,9.5-26.8,28.9C-250.7,270.4-239.5,283.4-221.7,283.4L-221.7,283.4z M-262.4,226.7
			c0-0.7-0.1-0.9-0.9-0.9h-10.6c-0.7,0-0.9,0.3-0.9,0.9v74.8c0,0.7,0.3,0.9,0.9,0.9h10.6c0.5,0,0.8-0.2,0.8-0.8V226.7z"/>
	</g>
	<g>
		
			<radialGradient id="SVGID_2_" cx="7320.3618" cy="-8250.2188" r="5.096266e-02" gradientTransform="matrix(2291.6716 0 0 -2218.7549 -16776259 -18305172)" gradientUnits="userSpaceOnUse">
			<stop  offset="0" style="stop-color:#34364E;stop-opacity:0.98"/>
			<stop  offset="1" style="stop-color:#0C0824"/>
		</radialGradient>
		<path class="st5" d="M-444.8,74.8h153.6V-74.8h-153.6V74.8z"/>
		<path class="st6" d="M-444.8,74.8h153.6V-74.8h-153.6V74.8z M-451.7-81.8h168V81.8h-168V-81.8z M-338.6,14.7
			c-5.6,0-7.5-2.8-7.5-5.1c0-2.5,1.3-4.3,8.7-8.2c11-5.3,14.5-10.5,14.5-18c0-11.3-8.6-17.3-20.2-17.3c-6.1,0-11.4,1.3-14.4,3
			c-0.5,0.2-0.6,0.6-0.6,1.1v10.3c0,0.7,0.4,0.9,0.8,0.6c4.4-2.9,9.5-4.2,14.1-4.2c5.6,0,7.9,2.3,7.9,5.5c0,2.5-1.6,4.8-8.7,8.4
			c-10,4.8-14.1,9.6-14.1,17.7c0,9.1,7.1,16.6,19.4,16.6c6.1,0,10.3-0.9,12.6-2c0.6-0.4,0.7-0.9,0.7-1.4v-9.6c0-0.6-0.4-0.9-1.1-0.7
			C-329.5,13.6-334.1,14.7-338.6,14.7L-338.6,14.7z M-398.7,6.3c1.6-0.1,2.9-0.1,5.7-0.1c8.2,0,15.9,2.9,15.9,14
			c0,8.9-5.5,13.4-14.8,13.4c-2.8,0-5.5-0.1-6.7-0.2V6.3z M-411.1,43.2c0,0.5,1,0.8,1.5,0.8c4.5,0.2,11.1,0.3,18.1,0.3
			c19.4,0,27-10.6,27-24.2c0-17.8-12.9-25.4-28.7-25.4c-2.7,0-3.6,0.1-5.5,0.1v-26.9c0-0.6-0.2-0.8-0.8-0.8h-10.7
			c-0.6,0-0.8,0.2-0.8,0.8L-411.1,43.2L-411.1,43.2z"/>
	</g>
	<g>
		
			<radialGradient id="SVGID_3_" cx="7320.4204" cy="-8250.0996" r="5.060336e-02" gradientTransform="matrix(2291.6716 0 0 -2218.7549 -16776259 -18305172)" gradientUnits="userSpaceOnUse">
			<stop  offset="0" style="stop-color:#4B2D4F;stop-opacity:0.98"/>
			<stop  offset="1" style="stop-color:#180024"/>
		</radialGradient>
		<path class="st7" d="M-309.7-189.3h152.6v-148.6h-152.6V-189.3z"/>
		<path class="st8" d="M-309.7-189.3h152.6v-148.6h-152.6V-189.3z M-316.6-344.8h166.3v162.4h-166.3V-344.8z M-217.2-251.1
			c0,0.8,0,2.8-0.3,6.7c0,0.6,0.1,0.7,0.6,0.9c4.3,1.7,14.3,4.8,25.7,4.8c0.4,0,0.7-0.3,0.7-0.7v-10.1c0-0.6-0.2-0.7-0.8-0.7
			c-4.3,0.2-10.6-0.3-13-1.4v-43.7c0-0.6-0.2-0.8-0.8-0.8h-11.1c-0.6,0-0.8,0.2-0.8,0.8L-217.2-251.1L-217.2-251.1z M-261.5-257.3
			c1.6-0.1,2.8-0.1,5.6-0.1c8.1,0,15.8,2.8,15.8,13.9c0,8.8-5.4,13.3-14.7,13.3c-2.8,0-5.4-0.1-6.7-0.2V-257.3L-261.5-257.3z
			 M-273.7-220.3c0,0.5,0.1,0.8,0.7,0.8c4.4,0.2,10.9,0.3,17.8,0.3c19.1,0,27.5-10.5,27.5-24c0-17.6-12.7-25.1-28.3-25.1
			c-2.6,0-3.5,0.1-5.4,0.1v-26.6c0-0.6-0.2-0.8-0.8-0.8H-273c-0.6,0-0.8,0.2-0.8,0.8L-273.7-220.3L-273.7-220.3L-273.7-220.3z"/>
	</g>
	<g>
		<path class="st9" d="M150.8,337.8h152v-148h-152V337.8z"/>
		<path class="st10" d="M143.8,344.8v-162h166v162H143.8z M150.8,337.8h152v-148h-152V337.8z"/>
		<path class="st10" d="M264.9,275.8c-1,0.5-2.4,0.7-4,0.7c-8.7,0-14.6-6.7-14.6-17.9c0-12.8,6-17.9,13.7-17.9
			c1.7,0,3.5,0.2,4.8,0.8L264.9,275.8L264.9,275.8z M232.6,258.4c0,16.1,10.8,28.8,28.4,28.8c1.5,0,2.3,0,3.7-0.1v18
			c0,0.4,0.4,0.7,0.7,0.7h11.6c0.6,0,0.7-0.2,0.7-0.6v-63.3c0-1.9,0-4.2,0.4-6.8c0-0.5,0-0.6-0.4-0.8c-6-2.8-12.4-4-18.4-4
			C243.8,230.3,232.6,239.6,232.6,258.4L232.6,258.4z M210.2,269.6l19.4-37.7c0.3-0.6,0.1-1.1-0.4-1.1h-12.2c-0.8,0-1.1,0.2-1.4,0.9
			c-4.4,9-8.8,18.4-13.4,28.1h-0.3c-4.1-9.2-8.6-19.2-13-28.2c-0.3-0.5-0.7-0.8-1.2-0.8h-11.6c-0.7,0-0.8,0.6-0.4,1l19,36.6
			l-18.4,36.4c-0.4,0.6,0,1,0.5,1h12.1c0.7,0,1-0.1,1.2-0.8c4.3-9.1,8.7-18.1,12.8-27.2h0.1c4,9,8.4,18.1,12.5,27.1
			c0.3,0.5,0.5,0.9,1.2,0.9h11.3c0.6,0,0.8-0.4,0.4-1L210.2,269.6L210.2,269.6z"/>
	</g>
	<g>
		<g>
			<defs>
				<rect id="SVGID_4_" x="-197.2" y="-138.2" width="367.1" height="271"/>
			</defs>
			<clipPath id="SVGID_5_">
				<use xlink:href="#SVGID_4_"  style="overflow:visible;"/>
			</clipPath>
			<path class="st11" d="M169.9,3.6V-8.8c-0.1-0.7-0.3-1.3-0.3-2c-0.6-5.3-1-10.6-1.9-15.8c-2.8-17-8.9-32.8-18-47.3
				c-13.8-22.1-32.4-39-55.8-50.6c-13.5-6.7-28-11-43-12.7c-3.3-0.4-6.6-0.7-10-1.1H-88c-0.6,0.1-1.3,0.3-2,0.4
				c-13,0.8-25.5,3.8-37.4,9c-26,11.4-45.3,29.8-58,55.2c-5.6,11.2-9.2,23.3-10.7,35.7c-0.4,3-0.7,6-1.1,9.1v11.7
				c0.1,0.7,0.3,1.3,0.4,2c0.7,11.3,3,22.2,7.1,32.8c11,28.3,30,49.3,57.2,62.9c14.1,7.1,29.1,10.8,44.8,11.6c7.7,0.4,15.4,0,23-1.1
				c0.7-0.1,1.7,0.2,2.2,0.7c11,11.2,23.5,20.3,37.6,27.3c13.7,6.7,28.1,11,43.2,12.8c3.6,0.4,7.1,0.7,10.7,1.1h11
				c0.7-0.1,1.4-0.2,2.2-0.3c5.4-0.6,10.9-1,16.3-1.9c16.8-2.8,32.5-8.9,47-17.9c22.2-13.8,39.2-32.4,50.8-55.9
				c6.7-13.5,11-28.1,12.7-43.1c0.4-3.5,0.7-6.9,1.1-10.3 M-34.8,81.7c0.2-0.3,0.3-0.4,0.4-0.5c7.6-3.7,14.8-8.1,21.6-13.1
				c0.4-0.3,1.5-0.2,2,0.1c18.7,11.9,39,15.9,60.8,12.1c21.4-3.8,38.7-14.5,52-31.5c15-19.3,20.8-41.1,16.6-65.4
				c-2.8-16.3-9.3-30.8-20.4-43.1C78-81.8,52.7-91,22.9-87.1C4.6-84.7-11.3-76.8-24.3-63.5c-16.8,17-33.7,33.8-50.6,50.8
				c-2.2,2.3-4.7,4.1-8,4.5c-5.7,0.7-10.8-2.1-13.2-7.2c-2.2-4.5-1.9-9.6,2.8-14.3c18.8-18.5,37.4-37.1,56.2-55.5
				c3.2-3.2,6.7-6.1,10.3-8.8c13.7-10,29.2-15.5,45.9-17.7c13.1-1.7,26.2-1.4,39.1,1.5c24.7,5.5,45.1,18.1,61.2,37.6
				c13.3,16.1,21.3,34.5,24.1,55.2c1.6,11.8,1.3,23.8-1,35.5c-3.7,19.1-11.8,36.3-24.8,50.9c-24.8,27.8-55.9,40.2-93,37.4
				c-14.3-1.1-27.7-5.3-40.4-11.9C-22.5,91-28.9,86.7-34.8,81.7 M-43.9-112.3c-0.5,0.5-1,0.9-1.5,1.4c-7.7,7.3-15.4,14.5-23,21.8
				c-1.5,1.4-2.8,2.1-4.9,2.1c-7.7-0.2-15.4-0.2-23,1.5C-134-77-155.9-36.1-142,0c11,28.4,41.3,45.7,71.2,40.4
				c13.4-2.4,25.2-8.1,34.8-18c11.8-12.2,23.9-24,35.8-36c2.7-2.7,5.8-4,9.6-3.5c4.9,0.7,8.7,3,10.5,7.8c1.7,4.7,0.9,9.1-2.7,12.7
				C4.7,16-7.5,29-20.5,41.1c-25.2,23.5-54.9,30.5-87.8,20.5c-44.2-13.4-70.1-59.1-60-104.2c9.2-41.1,45.1-69.9,87.1-69.9
				c11.7,0,23.5,0,35.2,0C-45.4-112.4-44.8-112.4-43.9-112.3"/>
		</g>
	</g>
	<g>
		
			<radialGradient id="SVGID_6_" cx="7320.6504" cy="-8250.0996" r="5.041360e-02" gradientTransform="matrix(2291.6716 0 0 -2218.7549 -16776322 -18305172)" gradientUnits="userSpaceOnUse">
			<stop  offset="0" style="stop-color:#423325;stop-opacity:0.98"/>
			<stop  offset="1" style="stop-color:#1C0A00"/>
		</radialGradient>
		<path class="st12" d="M153.5-190h152v-148h-152V-190z"/>
		<path class="st13" d="M153.5-190h152v-148h-152V-190z M146.5-345h166v162h-166V-345z M255.5-241c0,0.6,0.8,1,0.8,1h10.3
			c0.5,0,0.8-0.2,0.8-0.8v-54.3c0-0.6-0.1-0.8-0.8-0.8h-10.3c-0.7,0-0.9,0.3-0.9,0.9L255.5-241L255.5-241L255.5-241z M254.8-225.2
			c0,4.4,3.1,7.1,7.1,7.1c4.2,0,7.1-2.8,7.1-7.1c0-4.6-3-7.1-7.2-7.1C257.7-232.3,254.8-229.8,254.8-225.2z M223.8-264
			c-2,7.8-6.6,24.8-8.4,33h-0.1c-1.5-8.2-5.2-22.1-8.1-33H223.8z M204.6-275l-5.4-20.3c-0.1-0.5-0.3-0.7-1-0.7h-10.4
			c-0.7,0-0.8,0.2-0.7,1l19.6,68.6c0.3,1.2,0.6,2.3,0.7,5.7c0,0.5,0.2,0.7,0.6,0.7h14.5c0.5,0,0.7-0.1,0.8-0.7l21.9-74.4
			c0.1-0.6,0-0.9-0.6-0.9h-11.8c-0.5,0-0.9,0.1-1,0.6l-5.6,20.4H204.6L204.6-275z"/>
	</g>
</symbol>
<use xlink:href="#softw"  width="728.6" height="548" id="XMLID_4_" x="-338.5" y="-301.5" transform="matrix(0.9998 0 0 -1 601.8016 358.5592)" style="overflow:visible;"/>
</svg>
