<?xml version="1.0" encoding="utf-8"?>
<!-- Generator: Adobe Illustrator 22.0.0, SVG Export Plug-In . SVG Version: 6.00 Build 0)  -->
<svg version="1.1" id="Layer_1" xmlns="http://www.w3.org/2000/svg" xmlns:xlink="http://www.w3.org/1999/xlink" x="0px" y="0px"
	 viewBox="0 0 385.2 213.1" style="enable-background:new 0 0 385.2 213.1;" xml:space="preserve">
<style type="text/css">
	.st0{enable-background:new    ;}
	.st1{fill:#A7CEBC;}
</style>
<symbol  id="mywork" viewBox="-127.1 -41.8 254.2 83.7">
	<g class="st0">
		<path class="st1" d="M-116.3-13.8c-0.6,0.7-1,1.9-1,3.8c0,1.2,0.1,2.8,0.4,4.8c0.3,1.9,0.7,4.6,1.3,8c1,6.3,1.9,11.7,2.5,16.3
			c0.4,2.9,0.5,5.3,0.5,7.2c0,1.8-0.7,2.7-2,2.7c-1,0-2.3-0.5-3.8-1.6c-1.5-1.1-3.1-2.8-4.8-5.1c-0.6-0.8-1.2-1.1-1.9-1.1
			c-0.6,0-1,0.3-1.5,0.8c-0.4,0.5-0.6,1.1-0.6,1.8c0,0.6,0.1,1.3,0.4,2c0.3,0.7,0.7,1.4,1.3,2.2c1.9,2.7,4.1,4.7,6.4,6.2
			c2.4,1.5,4.7,2.2,7.1,2.2c2.2,0,3.9-0.7,5.1-2.1c1.2-1.4,1.8-3.4,1.8-6.1c0-1.1-0.1-2.4-0.3-3.8c-0.2-1.5-0.4-2.7-0.5-3.6
			c-0.2-0.9-0.3-1.6-0.4-1.9c2.3,6.5,4.8,11.1,7.7,13.6c2.8,2.6,6,3.9,9.4,3.9c2.6,0,4.7-0.9,6.2-2.8c1.5-1.8,2.2-4.4,2.2-7.8
			c0-1.3-0.2-3-0.5-4.9c2,5.5,4.3,9.5,7,11.9c2.7,2.4,5.8,3.6,9.2,3.6c2.8,0,5-0.9,6.5-2.7c1.5-1.8,2.2-4.3,2.2-7.6
			c0-1.8-0.3-3.9-0.8-6.4l-3.7-17.2c-0.4-2-0.6-3.7-0.6-5.2c0-1.7,0.4-2.9,1.2-3.8c0.8-0.8,1.9-1.3,3.3-1.3c1.3,0,2.6,0.4,3.9,1.3
			c1.3,0.9,2.7,2.3,4.5,4.4c0.5,0.6,1,0.8,1.6,0.8c0.5,0,0.9-0.2,1.2-0.7c0.3-0.5,0.5-1.1,0.5-2c0-1.6-0.4-2.8-1.1-3.7
			c-2.1-2.5-4.1-4.4-6.2-5.5c-2-1.2-4.2-1.7-6.4-1.7c-3.4,0-6.1,1-8,3C-69-9.7-70-7-70-3.6c0,2.4,0.5,5.8,1.4,10.3l2.4,11
			c0.1,0.4,0.2,1,0.4,1.9c0.2,0.9,0.4,1.8,0.5,2.6c0.1,0.8,0.2,1.6,0.2,2.4c0,1.4-0.3,2.5-0.8,3.2c-0.5,0.7-1.3,1-2.3,1
			c-1.9,0-3.9-1.2-5.9-3.6c-2.1-2.4-4-6.4-5.9-12c-1.9-5.6-3.4-12.9-4.5-21.8c-0.3-2.4-0.8-4-1.5-4.8c-0.7-0.8-1.8-1.2-3.4-1.2
			c-1.4,0-2.4,0.3-3,1c-0.6,0.6-0.9,1.8-0.9,3.6c0,1.6,0.2,3.8,0.7,6.5c0.4,2.7,1,5.8,1.7,9.4c1.8,9.7,2.8,15.9,2.8,18.7
			c0,1.5-0.3,2.6-0.9,3.4c-0.6,0.7-1.5,1.1-2.6,1.1c-2,0-4-1.1-6.1-3.3c-2.1-2.2-4.1-6.2-6.1-11.8c-2-5.7-3.6-13.3-5-23
			c-0.3-2-0.7-3.5-1.2-4.3c-0.5-0.8-1.6-1.2-3.1-1.2C-114.6-14.8-115.7-14.5-116.3-13.8z"/>
		<path class="st1" d="M-18.3-2c0.3-0.5,0.5-1.1,0.5-1.9c0-0.9-0.1-1.6-0.4-2.2c-0.3-0.5-0.7-1-1.3-1.4l-11.5-7.7
			c-1.5-8.3-3.5-14.8-6-19.5c-2.5-4.7-5.6-7.1-9.4-7.1c-2,0-3.7,0.6-5,1.9c-1.3,1.3-1.9,2.9-1.9,5c0,1.9,0.4,3.8,1.3,5.8
			c0.9,2,2.5,4.2,4.8,6.8c2.3,2.5,5.6,5.5,9.9,8.7l0.2,1.4c0.3,1.5,0.6,3.6,1,6.4c-0.8-2.9-1.9-5.1-3.4-6.6s-3-2.2-4.6-2.2
			c-1.8,0-3.3,0.8-4.4,2.5c-1.1,1.7-1.7,3.7-1.7,6.2c0,3,0.2,5.7,0.6,8.2c0.4,2.5,1.1,5.1,2,7.9c0.4,1.2,1,2.1,1.7,2.6
			c0.7,0.5,1.9,0.8,3.4,0.8c0.9,0,1.5-0.1,1.8-0.4c0.3-0.3,0.5-0.7,0.5-1.3c0-0.3-0.2-1.4-0.7-3.2c-0.4-1.5-0.7-2.8-1-4
			c-0.3-1.6-0.6-3.2-0.8-4.7C-42.9-1.7-43-2.9-43-3.9c0-1.5,0.4-2.3,1.3-2.3c0.6,0,1.4,0.6,2.2,1.8c0.9,1.2,1.9,3,2.9,5.5s2,5.4,3,9
			c0.3,1.2,0.8,2.1,1.5,2.6c0.7,0.5,1.6,0.8,3,0.8c0.9,0,1.6-0.1,1.9-0.4c0.4-0.2,0.5-0.6,0.5-1.2c0-1-0.5-4.4-1.6-10.3l-1.6-9.7
			c3.1,2.3,6.1,4.4,9,6.4c0.5,0.3,1,0.5,1.4,0.5C-19-1.2-18.6-1.5-18.3-2z M-42.4-32.5c1.2,2.3,2.5,6.2,3.7,11.6
			c-3.1-2.6-5.3-5-6.7-7.1c-1.4-2.1-2.1-4-2.1-5.6c0-0.7,0.1-1.2,0.4-1.7c0.3-0.4,0.7-0.7,1.3-0.7C-44.8-36-43.7-34.8-42.4-32.5z"/>
		<path class="st1" d="M39.8,3.8c0.6,0,1.1-0.2,1.4-0.6c0.3-0.4,0.5-0.9,0.5-1.6c0-1.2-0.2-2.2-0.7-2.9c-0.5-0.7-1.2-1.2-2.2-1.5
			c-1.8-0.6-3.8-0.9-5.9-0.9c-1.8,0-3.4,0.2-5,0.7c-1.2-1.9-2.4-3.8-3.8-5.8c-1.6-2.3-3-3.8-4.1-4.7c-1.1-0.8-2.4-1.3-3.9-1.3
			c-1.6,0-2.8,0.6-3.6,1.9c-0.8,1.2-1.3,3.3-1.5,6.1l-0.3,4.4c-1.2-3.4-2.4-5.9-3.3-7.7c-1-1.8-2-3-2.9-3.7c-1-0.7-2.1-1-3.4-1
			c-1.6,0-2.9,0.6-3.9,1.9c-0.9,1.3-1.5,3.3-1.8,6.1C-5.2-1.2-5.5,3.7-5.5,7.9V10c0,1.3,0.4,2.2,1.1,2.8c0.7,0.5,1.7,0.8,3.1,0.8
			c1,0,1.8-0.2,2.3-0.7c0.5-0.5,0.8-1.2,0.8-2.3C1.7,5.9,2-0.1,2.6-7.4c2.7,5.7,5.2,11.7,7.5,17.9c0.4,1.2,1,2,1.6,2.4
			s1.4,0.6,2.2,0.6c1.1,0,1.8-0.2,2.2-0.7c0.4-0.4,0.6-1.2,0.6-2.3c0-4.6,0.3-10.6,0.8-17.9C20-3.9,21.8-1,23,1.1
			c-0.6,1.2-0.9,2.5-0.9,4.1c0,1.4,0.3,2.7,0.9,4c0.6,1.3,1.4,2.3,2.5,3.1c1,0.8,2.2,1.2,3.5,1.2c1.2,0,2.1-0.4,2.8-1.2
			c0.7-0.8,1.1-2,1.1-3.6c0-1.8-0.5-3.9-1.4-6.2C33,2.6,35,2.9,37.5,3.5l1.6,0.3C39.3,3.8,39.5,3.8,39.8,3.8z"/>
		<path class="st1" d="M68.2,3.1c0.3-0.5,0.4-1.2,0.4-2c0-1.9-0.6-3.1-1.7-3.4c-2.4-0.8-5-1.3-7.9-1.4c-0.8-3.4-2.3-6.1-4.5-8.1
			c-2.2-2-4.8-3-7.6-3c-2.4,0-4.5,0.6-6.2,1.7c-1.7,1.2-3,2.7-3.9,4.6c-0.9,1.9-1.3,4-1.3,6.2c0,3,0.6,5.8,1.7,8.1s2.8,4.2,4.8,5.6
			c2,1.3,4.3,2,6.8,2c3,0,5.5-1,7.4-3.1c1.9-2.1,2.9-4.7,3.3-7.8c1.9,0.1,4.1,0.5,6.7,1.2c0.3,0.1,0.6,0.1,0.8,0.1
			C67.5,3.9,67.9,3.7,68.2,3.1z M50.6-6.9c0.9,1,1.6,2.5,1.9,4.5c-1.2,0.8-2.2,1.9-2.8,3.3c-0.7,1.4-1,2.8-1,4.3
			c0,0.6,0.1,1.3,0.2,1.9h-0.3c-1.6,0-2.9-0.8-4-2.3C43.5,3.3,43,1.1,43-1.7c0-2.2,0.4-3.9,1.3-5s1.9-1.7,3-1.7
			C48.6-8.4,49.7-7.9,50.6-6.9z"/>
		<path class="st1" d="M64.5-12.4c-0.6,1.6-0.9,4.2-0.9,7.7c0,5.2,0.7,10.1,2.2,14.8c0.4,1.2,1,2,1.8,2.6c0.8,0.5,2,0.8,3.5,0.8
			c0.8,0,1.4-0.1,1.7-0.3c0.3-0.2,0.5-0.6,0.5-1.1c0-0.6-0.3-2.1-0.9-4.3c-0.4-1.6-0.7-3-1-4.2s-0.4-2.7-0.6-4.4
			c1.3,3.4,2.8,6.2,4.4,8.4c1.6,2.2,3.2,3.7,4.8,4.6c1.6,0.9,3,1.4,4.3,1.4c2.6,0,3.9-1.3,3.9-3.9c0-0.5-0.2-1.8-0.5-3.8
			c-0.3-1.6-0.5-2.6-0.5-3c0-1.4,0.5-2.1,1.5-2.1c1.1,0,2.6,0.9,4.3,2.6c0.5,0.5,1.1,0.8,1.6,0.8c0.5,0,0.9-0.2,1.2-0.7
			c0.3-0.5,0.5-1.1,0.5-1.8c0-1.5-0.4-2.6-1.2-3.5c-1.1-1.2-2.4-2.2-3.9-3c-1.5-0.8-3.1-1.2-4.8-1.2c-2.1,0-3.7,0.5-4.8,1.6
			C80.5-3.4,80-1.9,80-0.1c0,0.6,0.1,1.2,0.2,1.8c0.1,0.8,0.1,1.3,0.1,1.6c0,0.6-0.2,1-0.7,1c-0.6,0-1.4-0.7-2.4-2
			c-1-1.3-2-3.1-2.9-5.3c-1-2.2-1.7-4.5-2.3-7c-0.4-1.9-1-3.2-1.5-3.8c-0.6-0.7-1.5-1-2.7-1C66.2-14.8,65.1-14,64.5-12.4z"/>
		<path class="st1" d="M126.7-1.8c0.3-0.5,0.5-1.1,0.5-2c0-1.6-0.4-2.8-1.1-3.7c-1.8-2.2-3.6-4-5.5-5.3c-1.8-1.3-4-2-6.5-2
			c-3.1,0-5.6,0.9-7.4,2.6c-1.9,1.8-2.8,4.1-2.8,7c0,1.6,0.8,2.7,2.4,3.4c1.8,0.8,3,1.6,3.8,2.4c0.8,0.9,1.1,1.9,1.1,3.1
			c0,0.7-0.2,1.3-0.5,1.6S109.9,6,109.5,6c-1.1,0-2.3-0.8-3.6-2.3c-1.3-1.6-2.5-3.6-3.6-6c-1.1-2.5-2-5-2.6-7.6
			c-0.4-1.9-1-3.2-1.5-3.8c-0.6-0.7-1.5-1-2.7-1c-1.2,0-2.2,0.5-2.7,1.3c-0.6,0.9-1,2.3-1.2,4.2S91.2-4.6,91.2-1
			c0,6.2,0.6,12.6,1.9,19.3c1.3,6.7,3.1,12.3,5.6,16.8c2.5,4.5,5.4,6.8,8.9,6.8c1.8,0,3.3-0.8,4.5-2.4c1.1-1.6,1.7-3.6,1.7-6.2
			c0-4-1.2-8.2-3.5-12.6s-6.2-9.4-11.5-15.2c-0.1-2.1-0.2-4.2-0.2-6.4c1.9,5,4.1,8.6,6.6,10.9c2.5,2.3,4.8,3.4,7,3.4
			c2,0,3.6-0.7,4.8-2c1.2-1.4,1.8-3,1.8-5c0-2.2-0.6-4.2-1.7-6.1c-1.1-1.8-3-3.5-5.8-4.9c0.2-1.1,0.6-2,1.5-2.6c0.8-0.7,1.8-1,3-1
			c1.2,0,2.4,0.5,3.6,1.4s2.7,2.6,4.6,4.8c0.5,0.6,1,0.8,1.6,0.8C125.9-1.1,126.4-1.4,126.7-1.8z M103.8,32.9
			c-0.9-2.1-1.7-4.8-2.5-8.3c-0.8-3.5-1.5-7.3-2-11.4c2.5,2.9,4.5,6.1,6.1,9.5s2.4,6.6,2.4,9.4c0,1.3-0.1,2.3-0.4,2.9
			c-0.3,0.7-0.7,1-1.2,1C105.5,36,104.7,34.9,103.8,32.9z"/>
	</g>
</symbol>
<use xlink:href="#mywork"  width="254.2" height="83.7" id="XMLID_1_" x="-127.1" y="-41.8" transform="matrix(0.9597 0 0 -0.9635 186.132 100.0948)" style="overflow:visible;"/>
</svg>
