<?xml version="1.0" encoding="utf-8"?>
<!-- Generator: Adobe Illustrator 22.0.0, SVG Export Plug-In . SVG Version: 6.00 Build 0)  -->
<svg version="1.1" id="Layer_1" xmlns="http://www.w3.org/2000/svg" xmlns:xlink="http://www.w3.org/1999/xlink" x="0px" y="0px"
	 viewBox="0 0 313 261.8" style="enable-background:new 0 0 313 261.8;" xml:space="preserve">
<style type="text/css">
	.st0{fill:none;}
	.st1{enable-background:new    ;}
	.st2{fill:#A7CEBC;}
</style>
<symbol  id="welcome" viewBox="-305 -103.7 610 207.4">
	<rect x="-305" y="-103.7" class="st0" width="610" height="207.4"/>
	<g class="st1">
		<path class="st2" d="M-46.4,72.6c0.4-0.4,0.6-0.9,0.6-1.6c0-1-0.3-2-0.9-2.8c-0.6-0.8-1.6-1.2-2.9-1.3c-3.2,0-6,0.2-8.5,0.7
			c-2.8-6-6.2-10.9-10.1-14.8C-72.2,49-76.1,47-79.9,47c-3.5,0-6.2,1.9-7.9,5.6c-1.8,3.7-2.8,8.8-3,15c-2.4-7-5.1-12.1-8.1-15.5
			c-3-3.4-6.2-5.1-9.6-5.1c-3.8,0-6.7,2.4-8.7,7.2c-2,4.8-2.9,11.2-2.9,19.3c0,5.9,0.5,12.3,1.6,19.4c0.3,2,0.8,3.4,1.5,4.2
			c0.7,0.8,1.9,1.2,3.5,1.2c1.2,0,2.1-0.3,2.8-0.8c0.7-0.5,1-1.5,1-2.9c0-0.3,0-0.8-0.1-1.6c-1.2-8.2-1.8-15.2-1.8-20.9
			c0-5.4,0.5-9.5,1.4-12.4c0.9-2.9,2.2-4.4,3.7-4.4c1.4,0,3.1,1.5,5.1,4.4c2,2.9,3.9,7.3,5.9,13.1c2,5.8,3.6,12.7,5,20.7
			c0.3,1.8,0.9,3.1,1.8,3.8c0.9,0.7,2,1,3.5,1c1.2,0,2.1-0.3,2.7-0.8c0.6-0.5,0.9-1.4,0.9-2.4c0-0.6,0-1.1-0.1-1.5
			c-1.1-6.5-1.7-13-1.7-19.6c0-4.4,0.1-8,0.5-10.6c0.3-2.6,0.9-4.7,1.7-6c0.9-1.4,2.1-2.1,3.8-2.1c1.9,0,4.1,1.4,6.4,4.3
			c2.4,2.9,4.5,6.5,6.5,10.8c-2.4,1.5-4.3,3.5-5.5,5.9c-1.2,2.4-1.9,5.2-1.9,8.4c0,3.2,0.5,5.8,1.5,8c1,2.2,2.3,3.8,4,4.9
			c1.7,1.1,3.6,1.6,5.7,1.6c2.6,0,4.6-0.9,6.1-2.8c1.5-1.8,2.2-4.4,2.2-7.6c0-4.5-1-9.5-2.9-15.1c2-0.4,4.4-0.5,7.2-0.5
			C-47.5,73.2-46.8,73-46.4,72.6z M-62.3,76.4c1.6,4.5,2.3,8.2,2.3,11.1c0,1.7-0.2,2.9-0.7,3.7c-0.4,0.8-1,1.2-1.8,1.2
			c-1.1,0-2-0.6-2.6-1.9c-0.7-1.3-1-3.1-1-5.4C-66.1,81.1-64.9,78.2-62.3,76.4z"/>
		<path class="st2" d="M-23.6,60c0.3-0.5,0.5-1.1,0.5-2c0-1.6-0.4-2.8-1.1-3.7c-1.5-1.8-3.6-3.5-6.3-5c-2.7-1.5-5.6-2.3-8.7-2.3
			c-4.2,0-7.5,1.1-9.8,3.4c-2.3,2.3-3.5,5.4-3.5,9.4c0,2.8,0.6,5.3,1.7,7.7c1.2,2.4,2.8,4.3,4.8,5.7c2.1,1.4,4.4,2.1,7,2.1
			c2.3,0,4.2-0.7,5.6-2.1c1.4-1.4,2.1-3.2,2.1-5.6c0-2.8-1-5.1-3-7.1c-2-2-5.3-3.5-10-4.7c1-1.8,2.9-2.8,5.7-2.8
			c1.8,0,3.8,0.6,6.1,1.9c2.3,1.3,4.3,2.9,6,5c0.5,0.6,1,0.8,1.6,0.8C-24.3,60.7-23.9,60.5-23.6,60z M-43.7,66.8
			c-1-1.7-1.5-3.8-1.5-6.2v-0.1c2.4,0.6,4.2,1.4,5.6,2.5c1.4,1.1,2,2.4,2,3.9c0,0.8-0.2,1.4-0.6,1.8s-1,0.7-1.7,0.7
			C-41.4,69.4-42.7,68.5-43.7,66.8z"/>
		<path class="st2" d="M-4,60c0.3-0.5,0.4-1.1,0.4-2c0-1.6-0.4-2.8-1.1-3.7c-1.7-2.1-3.6-3.9-5.6-5.2c-2-1.4-4.3-2-6.9-2
			c-3.5,0-6.1,1.6-7.8,4.8c-1.7,3.2-2.6,7.3-2.6,12.4c0,4.9,0.6,10.4,1.9,16.7c1.3,6.2,3.1,11.6,5.6,16.1c2.5,4.5,5.4,6.7,8.8,6.7
			c1.9,0,3.4-0.9,4.5-2.7c1.1-1.8,1.7-4.3,1.7-7.7c0-4.8-1.3-10.3-4-16.6s-6.2-12.5-10.7-18.7c0.3-1.6,0.7-2.8,1.4-3.5
			c0.6-0.7,1.5-1,2.5-1c1.6,0,3.1,0.5,4.3,1.4c1.2,0.9,2.8,2.5,4.7,4.8c0.5,0.6,1,0.8,1.6,0.8C-4.8,60.7-4.3,60.5-4,60z M-15.8,92.8
			c-1.2-3.3-2.2-7.4-3.1-12.4c-0.9-4.9-1.4-9.6-1.4-14.2c2.8,4.7,5.1,9.4,6.8,14.1c1.7,4.7,2.5,9,2.5,12.9c0,3-0.6,4.6-1.7,4.6
			C-13.6,97.8-14.6,96.1-15.8,92.8z"/>
		<path class="st2" d="M-6.1,50.3c-2.2,2.2-3.3,5.1-3.3,8.8c0,3.2,0.6,6.1,1.9,8.5c1.3,2.4,2.9,4.3,5,5.6c2,1.3,4.2,2,6.4,2
			c2.2,0,3.9-0.7,5.1-2c1.2-1.3,1.8-3,1.8-5c0-1.7-0.4-3.1-1.1-4.3C9,62.9,8,62.3,6.8,62.3c-0.8,0-1.4,0.2-1.8,0.5s-0.7,0.9-0.7,1.5
			c0,0.3,0,0.6,0.1,1c0.1,0.4,0.1,0.6,0.2,0.8c0.2,0.6,0.3,1.2,0.3,1.7c0,0.5-0.1,0.9-0.4,1.2c-0.3,0.3-0.6,0.4-1.1,0.4
			c-0.9,0-1.8-0.4-2.6-1.2c-0.8-0.8-1.4-1.9-1.9-3.3c-0.5-1.4-0.7-2.9-0.7-4.6c0-4.6,2-7,6.1-7c1.6,0,3.4,0.5,5.3,1.6
			c1.9,1.1,3.8,2.8,5.6,5c0.5,0.6,1,0.8,1.6,0.8c0.5,0,0.9-0.2,1.2-0.7c0.3-0.5,0.5-1.1,0.5-2c0-1.5-0.4-2.8-1.1-3.7
			c-1.9-2.3-4.1-4.1-6.8-5.4S5.4,47,3,47C-0.9,47-4,48.1-6.1,50.3z"/>
		<path class="st2" d="M45.4,65c0.3-0.5,0.4-1.2,0.4-2c0-1.9-0.6-3.1-1.7-3.4c-2.4-0.8-5-1.3-7.9-1.4c-0.8-3.4-2.3-6.1-4.5-8.1
			c-2.2-2-4.8-3-7.6-3c-2.4,0-4.5,0.6-6.2,1.7c-1.7,1.2-3,2.7-3.9,4.6c-0.9,1.9-1.3,4-1.3,6.2c0,3,0.6,5.7,1.7,8.1s2.8,4.2,4.8,5.6
			c2,1.3,4.3,2,6.8,2c3,0,5.5-1,7.4-3.1c1.9-2.1,2.9-4.7,3.3-7.8c1.9,0.1,4.1,0.5,6.7,1.2c0.3,0.1,0.6,0.1,0.8,0.1
			C44.7,65.7,45.1,65.5,45.4,65z M27.9,54.9c0.9,1,1.6,2.5,1.9,4.5c-1.2,0.8-2.2,1.9-2.8,3.3c-0.7,1.4-1,2.8-1,4.3
			c0,0.6,0.1,1.3,0.2,1.9h-0.3c-1.6,0-2.9-0.8-4-2.3c-1.1-1.5-1.6-3.7-1.6-6.5c0-2.2,0.4-3.9,1.3-5s1.9-1.7,3-1.7
			C25.8,53.4,26.9,53.9,27.9,54.9z"/>
		<path class="st2" d="M41.7,49.4c-0.6,1.6-0.9,4.2-0.9,7.7c0,5.2,0.7,10.1,2.2,14.8c0.4,1.2,1,2,1.8,2.6c0.8,0.5,2,0.8,3.5,0.8
			c0.8,0,1.4-0.1,1.7-0.3c0.3-0.2,0.5-0.6,0.5-1.1c0-0.6-0.3-2.1-0.9-4.3c-0.4-1.6-0.7-3-1-4.2c-0.2-1.2-0.4-2.7-0.6-4.4
			c1.1,3.1,2.4,5.8,3.9,7.9s3,3.8,4.6,4.8c1.6,1.1,3.1,1.6,4.5,1.6s2.4-0.3,3-1c0.6-0.6,0.9-1.6,0.9-2.9c0-1.3-0.4-3.6-1.1-7
			c-0.3-1.4-0.5-2.5-0.7-3.2c2,4.9,4.2,8.5,6.7,10.7c2.4,2.2,4.7,3.4,6.8,3.4c2.6,0,3.9-1.3,3.9-3.9c0-1.6-0.4-4.4-1.3-8.5
			c-0.8-3.5-1.1-5.8-1.1-6.9c0-1.6,0.6-2.4,1.7-2.4c0.8,0,1.7,0.5,2.8,1.5c1.1,1,2.6,2.6,4.4,4.8c0.5,0.6,1,0.8,1.6,0.8
			c0.5,0,0.9-0.2,1.2-0.7c0.3-0.5,0.5-1.1,0.5-2c0-1.6-0.4-2.8-1.1-3.7c-1.7-2.1-3.6-3.9-5.5-5.2c-2-1.4-4.2-2-6.8-2
			c-2,0-3.6,0.6-4.6,1.8c-1,1.2-1.6,2.9-1.6,5.1c0,1.1,0.3,3.1,0.8,6c0.5,2.5,0.8,4.3,0.8,5.2c0,0.6-0.2,1-0.7,1
			c-0.5,0-1.3-0.7-2.2-2c-1-1.3-1.9-3.1-2.9-5.3c-1-2.2-1.7-4.5-2.3-7c-0.4-1.9-1-3.2-1.5-3.8c-0.6-0.6-1.5-1-2.8-1
			c-1.3,0-2.3,0.6-3,1.9s-1,2.8-1,4.6c0,1.5,0.2,3.7,0.6,6.6c0.3,2.6,0.5,4.2,0.5,5c0,0.6-0.2,1-0.7,1c-0.6,0-1.4-0.7-2.3-2.2
			c-0.9-1.4-1.8-3.3-2.7-5.5s-1.6-4.4-2.1-6.6c-0.4-1.9-1-3.2-1.5-3.8c-0.6-0.7-1.5-1-2.7-1C43.4,47,42.3,47.8,41.7,49.4z"/>
		<path class="st2" d="M113.3,60c0.3-0.5,0.5-1.1,0.5-2c0-1.6-0.4-2.8-1.1-3.7c-1.5-1.8-3.6-3.5-6.3-5c-2.7-1.5-5.6-2.3-8.7-2.3
			c-4.2,0-7.5,1.1-9.8,3.4c-2.3,2.3-3.5,5.4-3.5,9.4c0,2.8,0.6,5.3,1.7,7.7c1.2,2.4,2.8,4.3,4.8,5.7c2.1,1.4,4.4,2.1,7,2.1
			c2.3,0,4.2-0.7,5.6-2.1c1.4-1.4,2.1-3.2,2.1-5.6c0-2.8-1-5.1-3-7.1c-2-2-5.3-3.5-10-4.7c1-1.8,2.9-2.8,5.7-2.8
			c1.8,0,3.8,0.6,6.1,1.9c2.3,1.3,4.3,2.9,6,5c0.5,0.6,1,0.8,1.6,0.8C112.6,60.7,113,60.5,113.3,60z M93.2,66.8
			c-1-1.7-1.5-3.8-1.5-6.2v-0.1c2.4,0.6,4.2,1.4,5.6,2.5c1.4,1.1,2,2.4,2,3.9c0,0.8-0.2,1.4-0.6,1.8c-0.4,0.5-1,0.7-1.7,0.7
			C95.5,69.4,94.2,68.5,93.2,66.8z"/>
		<path class="st2" d="M117.7,48.5c-0.9,1-1.3,2.2-1.3,3.8c0,1.8,0.5,3.2,1.5,4.3c1,1.1,2.5,1.6,4.3,1.6c1.8,0,3.1-0.4,4-1.3
			c0.9-0.9,1.3-2.1,1.3-3.8c0-1.8-0.5-3.3-1.6-4.4c-1-1.1-2.5-1.6-4.3-1.6C120,47,118.6,47.5,117.7,48.5z M122,61.9
			c-0.5,0.4-0.8,0.9-0.8,1.7l0.1,0.5c0.7,4.5,1.6,9.6,2.8,15.3c1.2,5.7,2.2,10.7,3.2,14.8c0.6,2.6,2.4,3.8,5.2,3.8
			c2.6,0,3.8-0.8,3.8-2.5c0-0.4-0.1-0.8-0.2-1.2c-1-4.2-2.4-9.4-4.1-15.4c-1.7-6-3.4-11.2-4.9-15.7c-0.4-1.3-1.5-1.9-3.1-1.9
			C123.2,61.4,122.6,61.5,122,61.9z"/>
	</g>
	<text transform="matrix(1 0 0 -1 -153.8984 -3.0879)" style="font-family:'AmericanTypewriter'; font-size:18px;">I’m an aspiring multimediadesigner</text>
	<text transform="matrix(1 0 0 -1 -71.998 -19.8877)" style="font-family:'ArialMT'; font-size:14px;">- and this is my portfolio!</text>
</symbol>
<use xlink:href="#welcome"  width="610" height="207.4" id="XMLID_1_" x="-305" y="-103.7" transform="matrix(0.9997 0 0 -0.998 156.0079 157.7536)" style="overflow:visible;"/>
</svg>
